<?xml version="1.0" standalone="no"?>
<!DOCTYPE svg PUBLIC "-//W3C//DTD SVG 1.1//EN" "http://www.w3.org/Graphics/SVG/1.1/DTD/svg11.dtd" >
<svg>
<metadata>
Created by FontForge 20110222 at Mon Oct  6 00:32:10 2014
 By Orthosie Webhosting
Copyright (c) 2013 by Jonathan Hill. All rights reserved.
</metadata>
<defs>
<font id="CorbertRegular" horiz-adv-x="601" >
  <font-face 
    font-family="CorbertRegular"
    font-weight="400"
    font-stretch="normal"
    units-per-em="1000"
    panose-1="0 0 5 0 0 0 0 0 0 0"
    ascent="800"
    descent="-200"
    x-height="500"
    cap-height="700"
    bbox="-73 -256 1215 1064"
    underline-thickness="50"
    underline-position="-50"
    unicode-range="U+0020-FB02"
  />
<missing-glyph horiz-adv-x="500" 
d="M0 0v700h500v-700h-500zM250 395l170 255h-340zM280 350l170 -255v510zM80 50h340l-170 255zM50 605v-510l170 255z" />
    <glyph glyph-name="fi" unicode="fi" horiz-adv-x="632" 
d="M390 748v-44q-94 0 -150 -49q-57 -50 -57 -155h362v-500h-58v456h-304v-456h-57v456h-92v44h92q0 129 78 192q71 59 186 56z" />
    <glyph glyph-name="fl" unicode="fl" horiz-adv-x="732" 
d="M542 748v-538q0 -86 38 -129q38 -42 115 -42v-44q-102 -3 -155 50q-56 55 -56 165v494h-94q-94 0 -150 -49q-57 -50 -57 -155h165v-44h-165v-456h-57v456h-92v44h92q0 129 78 192q70 59 183 56h155z" />
    <glyph glyph-name="f_f" unicode="ff" horiz-adv-x="781" 
d="M781 748v-44q-95 0 -150 -49q-58 -50 -58 -155h166v-44h-166v-456h-57v456h-333v-456h-57v456h-92v44h92q0 129 78 192q71 59 186 56v-44q-94 0 -150 -49q-57 -50 -57 -155h333q0 129 79 192q71 59 186 56z" />
    <glyph glyph-name="f_f_i" unicode="ffi" horiz-adv-x="1022" 
d="M781 748v-44q-95 0 -150 -49q-58 -50 -58 -155h362v-500h-57v456h-305v-456h-57v456h-333v-456h-57v456h-92v44h92q0 129 78 192q71 59 186 56v-44q-94 0 -150 -49q-57 -50 -57 -155h333q0 129 79 192q71 59 186 56z" />
    <glyph glyph-name="f_f_l" unicode="ffl" horiz-adv-x="1123" 
d="M390 748v-44q-94 0 -150 -49q-57 -50 -57 -155h333q0 129 79 192q70 59 182 56h155v-538q0 -86 38 -129q38 -42 115 -42v-44q-101 -3 -155 50q-55 55 -55 165v494h-94q-95 0 -150 -49q-58 -50 -58 -155h166v-44h-166v-456h-57v456h-333v-456h-57v456h-92v44h92
q0 129 78 192q71 59 186 56z" />
    <glyph glyph-name=".notdef" horiz-adv-x="500" 
d="M0 0v700h500v-700h-500zM250 395l170 255h-340zM280 350l170 -255v510zM80 50h340l-170 255zM50 605v-510l170 255z" />
    <glyph glyph-name=".null" horiz-adv-x="0" 
 />
    <glyph glyph-name="nonmarkingreturn" horiz-adv-x="333" 
 />
    <glyph glyph-name="space" unicode=" " horiz-adv-x="295" 
 />
    <glyph glyph-name="exclam" unicode="!" horiz-adv-x="160" 
d="M110 153h-60v547h60v-547zM79.5 60q14.5 0 25 -9.5t10.5 -23t-10.5 -23t-24.5 -9.5t-24.5 9.5t-10.5 23t10 23t24.5 9.5z" />
    <glyph glyph-name="quotedbl" unicode="&#x22;" horiz-adv-x="294" 
d="M94 450h-49v256h49v-256zM249 450h-49v256h49v-256z" />
    <glyph glyph-name="numbersign" unicode="#" horiz-adv-x="636" 
d="M496 510h95l-10 -45h-95l-49 -230h95l-9 -45h-95l-41 -190h-52l40 190h-190l-41 -190h-52l40 190h-87l10 45h87l48 230h-86l9 45h87l40 190h53l-40 -190h190l40 190h53zM243 465l-49 -230h191l49 230h-191z" />
    <glyph glyph-name="dollar" unicode="$" horiz-adv-x="668" 
d="M363 711h18q125 -3 212 -56l-34 -43q-84 52 -203 52q-60 0 -108.5 -15.5t-80.5 -48.5t-32 -79q0 -28 11.5 -49.5t27.5 -35t44.5 -24t51 -16t58.5 -12.5q9 -2 25 -5q32 -5 47.5 -8.5t43.5 -10t42.5 -11.5t37 -14.5t34.5 -19t26.5 -23t21.5 -29.5t12 -36.5t5 -44.5
q0 -60 -38 -103.5t-95 -64t-127 -24.5v-95h-55v94q-80 5 -151 29.5t-112 65.5l36 40q39 -39 109.5 -62.5t147.5 -23.5q60 0 108.5 14.5t81 47.5t32.5 81q0 20 -3.5 36.5t-13 29.5t-18.5 23t-27 18t-31 13t-37.5 11t-39.5 8.5t-44 8.5q-23 4 -35 6q-43 8 -72.5 15.5t-63 21.5
t-53.5 32t-34 47t-14 67q0 82 66.5 131t167.5 60v96h55v-94z" />
    <glyph glyph-name="percent" unicode="%" horiz-adv-x="869" 
d="M232 -17h-59l462 734h59zM204.5 706q47.5 0 80 -14.5t49 -42.5t23.5 -60t7 -75.5t-7 -76t-24.5 -60.5t-49.5 -42.5t-78.5 -14.5t-79 14.5t-49.5 42.5t-24 60.5t-7 76t7 75.5t23.5 60t49 42.5t80 14.5zM204 668q-64 0 -88 -38t-24 -116q0 -79 24.5 -117.5t88 -38.5
t88 38.5t24.5 117t-24 116.5t-89 38zM664.5 380q47.5 0 80 -15t49 -42.5t23.5 -60t7 -75.5t-7 -76t-24 -60.5t-49.5 -42t-79 -14.5t-78.5 14.5t-49 42t-24.5 60.5t-7.5 76t7 75.5t24 60t49 42.5t79.5 15zM664.5 342q-64.5 0 -88.5 -38t-24 -117t24.5 -117t88 -38t88 38
t24.5 117t-24 117t-88.5 38z" />
    <glyph glyph-name="ampersand" unicode="&#x26;" horiz-adv-x="695" 
d="M223 385l-70 74q-33 37 -33 100q0 44 15 75t44 47.5t64 23.5t81 7q45 0 79.5 -7t63.5 -23t44.5 -47t15.5 -76q0 -94 -74 -130l-141 -60l244 -256q23 32 23 84q0 67 -38 101l31 23q55 -50 55 -140q0 -68 -31 -112l49 -52l5 -17h-63l-33 34q-62 -56 -216 -56
q-51 0 -92.5 5.5t-80 19.5t-64 36.5t-41 58t-15.5 83.5q0 120 100 170zM277 407l144 61q48 23 48 90q0 60 -36.5 83t-109 23t-108.5 -23t-36 -83q0 -48 21 -71zM259 346l-81 -34q-75 -36 -75 -131q0 -45 16 -76t47.5 -48t71 -24t93.5 -7q137 0 186 49z" />
    <glyph glyph-name="quotesingle" unicode="'" horiz-adv-x="139" 
d="M94 450h-49v256h49v-256z" />
    <glyph glyph-name="parenleft" unicode="(" horiz-adv-x="326" 
d="M279 717l2 -47q-53 -9 -89 -41t-55.5 -86t-28 -119t-8.5 -151q0 -87 8.5 -151.5t28 -118.5t55.5 -86t89 -41l-2 -47q-57 7 -99 33t-67.5 64.5t-41 95t-21 116t-5.5 135.5t5.5 135.5t21 116t41 95t67.5 65t99 32.5z" />
    <glyph glyph-name="parenright" unicode=")" horiz-adv-x="326" 
d="M45 670l2 47q57 -6 98.5 -32.5t67.5 -65t41.5 -95t21 -116t5.5 -135.5t-5.5 -135.5t-21 -116t-41.5 -95t-67.5 -64.5t-98.5 -33l-2 47q53 9 89 41.5t55.5 87t28 119t8.5 150.5t-8.5 151t-28.5 119t-56 85.5t-88 40.5z" />
    <glyph glyph-name="asterisk" unicode="*" horiz-adv-x="324" 
d="M182 628l84 29l13 -40l-85 -26l53 -72l-33 -24l-52 73l-51 -73l-34 24l54 72l-86 26l13 40l85 -29l-1 89h41z" />
    <glyph glyph-name="plus" unicode="+" horiz-adv-x="493" 
d="M270 316h178v-47h-178v-178h-47v178h-178v47h178v178h47v-178z" />
    <glyph glyph-name="comma" unicode="," horiz-adv-x="162" 
d="M87 -11v6q-3 -1 -9 -1q-15 0 -24 9t-9 21.5t9 21t24 8.5q19 0 28 -13q11 -15 11 -46t-11 -47.5t-38 -16.5h-10l4 26h4q13 0 17 6.5t4 25.5z" />
    <glyph glyph-name="hyphen" unicode="-" horiz-adv-x="461" 
d="M415 322h-370v48h370v-48z" />
    <glyph glyph-name="period" unicode="." horiz-adv-x="156" 
d="M78 56q15 0 24 -9t9 -21.5t-9 -21.5t-24 -9t-24 9t-9 21.5t9 21.5t24 9z" />
    <glyph glyph-name="slash" unicode="/" horiz-adv-x="465" 
d="M101 -17h-58l321 734h58z" />
    <glyph glyph-name="zero" unicode="0" horiz-adv-x="692" 
d="M345.5 687q68.5 0 119.5 -18t82.5 -48t50.5 -76t26.5 -95.5t7.5 -112.5t-7.5 -113t-27 -95.5t-51 -76t-82.5 -48t-118.5 -17.5t-118 17.5t-82 48t-51 76t-27 95.5t-7.5 113t7 112.5t26.5 95.5t50.5 76t82 48t119.5 18zM346 639q-67 0 -112.5 -20.5t-70 -62t-34 -93.5
t-9.5 -125.5t10 -126.5t35 -94t70 -61.5t111 -20.5t111 20.5t70 61.5t35 94t10 126.5t-9.5 125.5t-34 93.5t-70 62t-112.5 20.5z" />
    <glyph glyph-name="one" unicode="1" horiz-adv-x="327" 
d="M232 0h-59v627l-138 -31v50l153 34h44v-680z" />
    <glyph glyph-name="two" unicode="2" horiz-adv-x="622" 
d="M108 506h-55q0 53 18 89.5t54.5 56t81.5 27.5t107 8q61 0 105.5 -7.5t81 -27t54.5 -56t18 -90.5t-15 -90.5t-47.5 -57t-73.5 -29.5t-103 -13q-115 -7 -169.5 -42.5t-54.5 -120.5v-103h460v-50h-517v153q0 55 19 94.5t57 63.5t86.5 36t114.5 15q100 6 143.5 35.5
t43.5 107.5q0 77 -51 106t-152.5 29t-153 -29t-52.5 -105z" />
    <glyph glyph-name="three" unicode="3" horiz-adv-x="630" 
d="M119 510h-57q1 51 20 86.5t54 54.5t77 27.5t99 8.5t99.5 -8t78 -26.5t54.5 -54t19 -87.5q0 -70 -33.5 -108t-96.5 -52q72 -15 110 -56.5t38 -118.5q0 -45 -14 -78.5t-37 -54.5t-58 -33.5t-73.5 -17.5t-86.5 -5q-61 0 -106.5 8.5t-83 29.5t-57.5 59t-21 93h56
q2 -81 55 -111.5t156 -30.5q105 0 158 31.5t53 115t-53 114.5t-158 31h-105v46h106q95 0 143 28.5t48 104.5t-48 104.5t-143 28.5t-143 -28t-50 -101z" />
    <glyph glyph-name="four" unicode="4" horiz-adv-x="642" 
d="M511 204h86v-48h-86v-156h-59v156h-409v52l409 473h59v-477zM107 204h345v400z" />
    <glyph glyph-name="five" unicode="5" horiz-adv-x="618" 
d="M533 632h-396v-210h174q60 0 105 -9.5t82 -32.5t56.5 -67t19.5 -108t-19.5 -108t-56.5 -67.5t-82 -33t-105 -9.5q-59 0 -103.5 9.5t-81 32t-56.5 63.5t-21 101h61q4 -89 54.5 -123.5t148.5 -34.5q100 0 151 36t51 132q0 98 -50.5 134.5t-151.5 36.5h-236v306h456v-48z
" />
    <glyph glyph-name="six" unicode="6" horiz-adv-x="652" 
d="M121 360v-34q23 56 79.5 78.5t144.5 22.5q57 0 100.5 -10.5t80 -34.5t56 -68t19.5 -108t-20 -108.5t-58.5 -68t-84 -33t-107.5 -9.5q-67 0 -116.5 18t-79 47.5t-46.5 76.5t-23 95.5t-6 113t5.5 112t22.5 94.5t46 76.5t79 48t118 18.5q204 0 260 -160l-56 -14
q-23 63 -70.5 94.5t-133.5 31.5q-52 0 -89.5 -13.5t-60.5 -35.5t-36.5 -59t-18.5 -76t-5 -95zM332 382q-95 0 -147.5 -30t-62.5 -107q9 -104 56 -157t154 -53q51 0 87.5 7.5t65.5 26t43.5 53.5t14.5 86.5t-14.5 86.5t-43.5 53.5t-65.5 26t-87.5 7.5z" />
    <glyph glyph-name="seven" unicode="7" horiz-adv-x="594" 
d="M549 647l-373 -647h-65l367 633h-433v48h504v-34z" />
    <glyph glyph-name="eight" unicode="8" horiz-adv-x="685" 
d="M343 687q47 0 84 -4.5t71.5 -16.5t57.5 -31.5t36.5 -50.5t13.5 -73q0 -69 -34.5 -106.5t-98.5 -51.5q74 -16 113 -57t39 -118q0 -46 -14.5 -79.5t-39 -54.5t-61 -34t-76.5 -18t-91 -5q-64 0 -112.5 8.5t-88.5 29.5t-61 59t-21 94q0 76 39.5 117.5t114.5 57.5
q-66 14 -100.5 52t-34.5 106q0 51 19.5 86.5t57 54.5t82.5 27t105 8zM343 639q-100 0 -150.5 -29t-50.5 -104t50.5 -103.5t150.5 -28.5q99 0 149 28t50 104t-50 104.5t-149 28.5zM343 326q-109 0 -164.5 -32t-55.5 -114t55.5 -113.5t164.5 -31.5q53 0 90.5 6.5t67.5 22
t45 44.5t15 72t-15 72.5t-45 45t-67.5 22t-90.5 6.5z" />
    <glyph glyph-name="nine" unicode="9" horiz-adv-x="652" 
d="M531 313v35q-24 -56 -80 -78.5t-142 -22.5q-58 0 -102 10t-80.5 34t-56 68.5t-19.5 107.5q0 65 20 109.5t58.5 67.5t84 33t107.5 10q67 0 116.5 -18.5t79 -48t46.5 -76t23 -95t6 -113t-5.5 -112t-22.5 -95t-46 -77t-79 -47.5t-118 -18q-204 0 -260 160l56 14
q23 -63 70.5 -94.5t133.5 -31.5q52 0 89.5 13t60.5 35.5t36.5 59t18 75.5t5.5 95zM320 639q-51 0 -87.5 -7.5t-65.5 -26.5t-43.5 -53.5t-14.5 -86t14.5 -86.5t43.5 -53.5t65.5 -26t87.5 -7.5q95 0 147.5 30t62.5 106q-9 104 -56 157.5t-154 53.5z" />
    <glyph glyph-name="colon" unicode=":" horiz-adv-x="156" 
d="M78 483q15 0 24 -9t9 -21.5t-9 -21.5t-24 -9t-24 9t-9 21.5t9 21.5t24 9zM78 56q15 0 24 -9t9 -21.5t-9 -21.5t-24 -9t-24 9t-9 21.5t9 21.5t24 9z" />
    <glyph glyph-name="semicolon" unicode=";" horiz-adv-x="162" 
d="M78 483q15 0 24 -9t9 -21.5t-9 -21.5t-24 -9t-24 9t-9 21.5t9 21.5t24 9zM88 -10v6q-3 -1 -10 -1q-15 0 -24 9t-9 21.5t9 21t24 8.5q19 0 28 -13q11 -15 11 -47q0 -30 -10.5 -46.5t-38.5 -16.5h-10l4 26h4q13 0 17 7t5 25z" />
    <glyph glyph-name="less" unicode="&#x3c;" horiz-adv-x="472" 
d="M427 295v-61l-382 -229v56l325 204l-325 204v56z" />
    <glyph glyph-name="equal" unicode="=" horiz-adv-x="493" 
d="M448 360h-403v48h403v-48zM448 166h-403v48h403v-48z" />
    <glyph glyph-name="greater" unicode="&#x3e;" horiz-adv-x="472" 
d="M427 469l-326 -204l326 -204v-56l-382 229v61l382 230v-56z" />
    <glyph glyph-name="question" unicode="?" horiz-adv-x="613" 
d="M104 533h-59q0 52 19 88t55.5 55.5t81.5 27.5t104 8q47 0 84.5 -4.5t72 -17t57 -32t36 -52t13.5 -74.5q0 -33 -5.5 -59.5t-14 -45t-23 -33t-27 -23.5t-32.5 -16.5t-33 -11t-33 -8.5q-24 -5 -35.5 -8.5t-29.5 -11.5t-26.5 -17.5t-15 -27t-7.5 -40.5v-77h-59v97q0 17 3 31
t6.5 25t12.5 20.5t14.5 15.5t19 12.5t19.5 9.5t23.5 7.5t23.5 6t25 5.5q26 6 40.5 10.5t35 15.5t31.5 25.5t19 39.5t8 59q0 75 -50.5 103t-150.5 28q-101 0 -152 -28.5t-51 -102.5zM256.5 60q14.5 0 24.5 -9.5t10 -23t-10 -23t-24.5 -9.5t-24.5 9.5t-10 23t10 23t24.5 9.5z
" />
    <glyph glyph-name="at" unicode="@" horiz-adv-x="988" 
d="M616 -158l13 -51q-70 -17 -136 -17q-136 0 -238.5 60.5t-156 166.5t-53.5 243q0 136 52 241t154.5 166t241.5 61q137 0 239.5 -58.5t156.5 -161t54 -234.5q0 -104 -60.5 -166.5t-156.5 -62.5h-123l-1 59q-35 -40 -70.5 -54.5t-75.5 -14.5q-89 0 -139.5 56t-50.5 155
q0 91 60.5 148.5t154.5 57.5q68 0 118 -31v26h47v-349h83q72 1 115.5 48t43.5 128q0 179 -106.5 290t-288.5 111q-184 0 -289 -114.5t-105 -300.5q0 -187 106 -301.5t288 -114.5q63 0 123 14zM599 130v233q-42 34 -108 34q-80 0 -128.5 -47t-48.5 -121q0 -80 39.5 -125.5
t113.5 -45.5q37 0 67.5 14.5t64.5 57.5z" />
    <glyph glyph-name="A" unicode="A" horiz-adv-x="731" 
d="M688 0h-62l-80 193h-361l-80 -193h-62l291 700h63zM203 243h325l-162 393z" />
    <glyph glyph-name="B" unicode="B" horiz-adv-x="690" 
d="M98 700h313q87 0 136.5 -48.5t49.5 -128.5q0 -57 -25.5 -98t-72.5 -60q61 -16 94 -62.5t33 -113.5q0 -86 -52 -137.5t-144 -51.5h-332v700zM157 652v-267h258q59 3 90.5 38.5t31.5 94.5q0 62 -34.5 98t-97.5 36h-248zM157 49h263q68 0 105 38.5t37 105.5
q0 66 -37.5 104.5t-104.5 38.5h-263v-287z" />
    <glyph glyph-name="C" unicode="C" horiz-adv-x="685" 
d="M587 88l38 -41q-85 -58 -203 -58q-164 0 -258 101t-94 260.5t94 260.5t258 101q118 0 203 -58l-38 -41q-68 48 -165 48q-137 0 -214.5 -85t-77.5 -225.5t77.5 -226t214.5 -85.5q97 0 165 49z" />
    <glyph glyph-name="D" unicode="D" horiz-adv-x="743" 
d="M98 700h223q164 0 258 -95.5t94 -254.5q0 -160 -93 -255t-259 -95h-223v700zM157 50h164q139 0 215.5 80t76.5 220q0 139 -77 219.5t-215 80.5h-164v-600z" />
    <glyph glyph-name="E" unicode="E" horiz-adv-x="591" 
d="M535 650h-378v-264h346v-50h-346v-286h378v-50h-437v700h437v-50z" />
    <glyph glyph-name="F" unicode="F" horiz-adv-x="574" 
d="M518 650h-361v-276h329v-49h-329v-325h-59v700h420v-50z" />
    <glyph glyph-name="G" unicode="G" horiz-adv-x="790" 
d="M701 375v-262q-96 -125 -279 -125q-162 0 -257 101t-95 261t94 261t258 101q166 0 262 -106l-36 -34q-88 89 -226 89q-135 0 -213.5 -85t-78.5 -226t78.5 -226.5t213.5 -85.5q142 0 220 92v197h-220v48h279z" />
    <glyph glyph-name="H" unicode="H" horiz-adv-x="749" 
d="M652 0h-60v325h-435v-325h-59v700h59v-325h435v325h60v-700z" />
    <glyph glyph-name="I" unicode="I" horiz-adv-x="255" 
d="M157 0h-59v700h59v-700z" />
    <glyph glyph-name="J" unicode="J" horiz-adv-x="502" 
d="M404 700v-429q0 -64 -12.5 -112.5t-41 -86.5t-79.5 -58t-123 -20q-58 0 -105 16l11 42q41 -10 94 -10q109 0 153 56.5t44 172.5v429h59z" />
    <glyph glyph-name="K" unicode="K" horiz-adv-x="645" 
d="M318 387l284 -387h-73l-249 341l-124 -149v-192h-58v700h58v-421l347 421h74z" />
    <glyph glyph-name="L" unicode="L" horiz-adv-x="564" 
d="M157 48h365v-48h-424v700h59v-652z" />
    <glyph glyph-name="M" unicode="M" horiz-adv-x="883" 
d="M785 0h-59v585l-260 -585h-58l-260 585v-585h-59v700h73l275 -632l274 632h74v-700z" />
    <glyph glyph-name="N" unicode="N" horiz-adv-x="728" 
d="M639 0h-72l-419 601v-601h-59v700h72l419 -601v601h59v-700z" />
    <glyph glyph-name="O" unicode="O" horiz-adv-x="844" 
d="M421.5 712q163.5 0 258 -101t94.5 -261q0 -161 -93.5 -261.5t-258.5 -100.5q-162 0 -257 101t-95 261t94 261t257.5 101zM421.5 661q-136.5 0 -214 -85t-77.5 -226t78.5 -226.5t213.5 -85.5q138 0 215.5 85t77.5 227q0 141 -78.5 226t-215 85z" />
    <glyph glyph-name="P" unicode="P" horiz-adv-x="688" 
d="M98 700h288q109 0 171.5 -63.5t62.5 -166.5q0 -105 -62 -168t-172 -63h-229v-239h-59v700zM157 651v-363h224q85 0 132.5 48.5t47.5 133.5q0 83 -48 132t-132 49h-224z" />
    <glyph glyph-name="Q" unicode="Q" horiz-adv-x="848" 
d="M746 -15l-87 87q-91 -84 -237 -84q-162 0 -257 101t-95 261t94 261t257.5 101t258 -101t94.5 -261q0 -145 -76 -240l86 -87zM421.5 661q-136.5 0 -214 -85t-77.5 -226t78.5 -226.5t213.5 -85.5q138 0 215.5 85t77.5 227q0 141 -78.5 226t-215 85z" />
    <glyph glyph-name="R" unicode="R" horiz-adv-x="698" 
d="M98 700h288q103 0 162.5 -60t59.5 -158q0 -87 -45.5 -144t-128.5 -69l199 -269h-71l-190 263h-215v-263h-59v700zM157 651v-339h223q80 0 124 45.5t44 124.5q0 78 -44.5 123.5t-123.5 45.5h-223z" />
    <glyph glyph-name="S" unicode="S" horiz-adv-x="684" 
d="M49 84l36 40q39 -39 109.5 -62.5t147.5 -23.5q59 0 107.5 14.5t81.5 47.5t33 81q0 20 -3.5 36.5t-13 29.5t-18.5 23t-27.5 18t-31 13t-37.5 11t-39.5 8.5t-44.5 8.5q-22 4 -34 6q-43 8 -72.5 15.5t-63 21.5t-54 32t-34 47t-13.5 67q0 63 42.5 108.5t106 65.5t139.5 20
q136 0 231 -57l-35 -43q-83 52 -202 52q-60 0 -109 -15.5t-80.5 -48.5t-31.5 -79q0 -28 11.5 -49.5t27.5 -35t44.5 -24t51 -16t58.5 -12.5q8 -2 25 -5q31 -5 47 -8.5t44 -10t42.5 -11.5t37 -14.5t34 -19t26.5 -23t22 -29.5t12 -36.5t5 -44.5q0 -64 -42.5 -109.5t-105.5 -65
t-139 -19.5q-85 0 -165.5 25.5t-125.5 70.5z" />
    <glyph glyph-name="T" unicode="T" horiz-adv-x="666" 
d="M623 650h-260v-650h-60v650h-260v50h580v-50z" />
    <glyph glyph-name="U" unicode="U" horiz-adv-x="745" 
d="M656 700v-382q0 -77 -13.5 -135t-44.5 -103.5t-86.5 -69t-134.5 -23.5q-78 0 -133.5 23t-87 68t-45 103.5t-13.5 136.5v382h59v-378q0 -143 49.5 -212t170.5 -69t170.5 70t49.5 211v378h59z" />
    <glyph glyph-name="V" unicode="V" horiz-adv-x="716" 
d="M388 0h-60l-285 700h62l253 -632l254 632h62z" />
    <glyph glyph-name="W" unicode="W" horiz-adv-x="1091" 
d="M578 700l199 -611l206 611h65l-242 -700h-62l-199 604l-199 -604h-61l-242 700h65l206 -611l199 611h65z" />
    <glyph glyph-name="X" unicode="X" horiz-adv-x="679" 
d="M379 358l257 -358h-68l-229 319l-228 -319h-68l257 360l-241 340h69l212 -301l211 301h69z" />
    <glyph glyph-name="Y" unicode="Y" horiz-adv-x="690" 
d="M375 279v-279h-60v279l-272 421h69l233 -366l234 366h68z" />
    <glyph glyph-name="Z" unicode="Z" horiz-adv-x="640" 
d="M584 665l-455 -615h462v-50h-542v35l454 615h-419v50h500v-35z" />
    <glyph glyph-name="bracketleft" unicode="[" horiz-adv-x="287" 
d="M242 672h-142v-791h142v-44h-197v880h197v-45z" />
    <glyph glyph-name="backslash" unicode="\" horiz-adv-x="465" 
d="M422 -17h-58l-321 734h58z" />
    <glyph glyph-name="bracketright" unicode="]" horiz-adv-x="287" 
d="M242 -163h-197v44h142v791h-142v45h197v-880z" />
    <glyph glyph-name="asciicircum" unicode="^" horiz-adv-x="564" 
d="M519 385h-67l-170 262l-171 -262h-66l207 312h60z" />
    <glyph glyph-name="underscore" unicode="_" horiz-adv-x="551" 
d="M506 -153h-461v48h461v-48z" />
    <glyph glyph-name="grave" unicode="`" horiz-adv-x="279" 
d="M234 595l-30 -36l-159 133l30 36z" />
    <glyph glyph-name="a" unicode="a" horiz-adv-x="580" 
d="M111 427l-16 37q90 49 186 49q57 0 106.5 -19.5t82.5 -63t33 -102.5v-328h-51l-3 75q-76 -87 -200 -87q-81 0 -138 43t-57 121q0 55 31.5 93.5t78.5 55t104 16.5q101 0 178 -44v56q-1 66 -53 104t-121 38q-83 0 -161 -44zM446 116v117q-70 46 -168 46q-73 0 -121.5 -31.5
t-48.5 -92.5q0 -59 44.5 -91.5t110.5 -32.5q115 0 183 85z" />
    <glyph glyph-name="b" unicode="b" horiz-adv-x="618" 
d="M143 738v-311q60 51 101 68.5t89 17.5q111 0 168.5 -69t57.5 -193q0 -121 -62.5 -192t-173.5 -71q-117 0 -184 86l-2 -74h-52v738h58zM143 376v-251q59 -91 165 -91q95 0 144.5 59t49.5 158q0 216 -182 216q-44 0 -81 -18t-96 -73z" />
    <glyph glyph-name="c" unicode="c" horiz-adv-x="517" 
d="M436 63l31 -37q-27 -19 -67 -29t-79 -10q-120 0 -191 74t-71 189q0 114 70 188.5t192 74.5q91 0 142 -37l-32 -36q-35 27 -107 27q-95 0 -151.5 -60.5t-56.5 -156.5q0 -98 57 -157.5t151 -59.5q69 0 112 30z" />
    <glyph glyph-name="d" unicode="d" horiz-adv-x="618" 
d="M533 0h-52l-2 74q-67 -86 -184 -86q-111 0 -173.5 71t-62.5 192q0 124 57.5 193t168.5 69q48 0 89 -17.5t102 -68.5v311h57v-738zM476 125v251q-60 55 -97 73t-81 18q-182 0 -182 -216q0 -99 50 -158t144 -59q107 0 166 91z" />
    <glyph glyph-name="e" unicode="e" 
d="M484 72l25 -31q-80 -53 -191 -53q-121 0 -190 73t-69 191q0 115 66.5 188.5t186.5 73.5q115 0 177 -58.5t62 -170.5q0 -34 -6 -66h-429q9 -85 62 -135t140 -51q91 -2 166 39zM116 255h379q2 20 2 40q0 175 -184 175q-92 0 -143.5 -56.5t-53.5 -147.5v-11z" />
    <glyph glyph-name="f" unicode="f" horiz-adv-x="390" 
d="M390 748v-44q-94 0 -150 -49q-57 -50 -57 -155h165v-44h-165v-456h-57v456h-92v44h92q0 129 78 192q71 59 186 56z" />
    <glyph glyph-name="g" unicode="g" 
d="M208 50h92q40 1 71.5 -1.5t66.5 -12t58.5 -25.5t39 -45t15.5 -68q0 -40 -21.5 -71t-57.5 -48t-78.5 -25.5t-89.5 -8.5q-48 0 -91 8t-81 25t-60.5 48t-22.5 72q0 101 102 133q-35 6 -55 25.5t-20 43.5t17 47t48 40q-69 48 -69 146q0 87 59.5 135.5t156.5 48.5
q57 0 102 -17h156v-36l-112 -3q70 -41 70 -128q0 -90 -58 -137.5t-158 -47.5q-60 0 -104 20q-28 -12 -42.5 -29t-14.5 -35q0 -22 21.5 -37.5t59.5 -16.5zM288 472q-75 0 -119 -36.5t-44 -102.5q0 -68 43.5 -104t119.5 -36t119.5 36.5t43.5 103t-44 103t-119 36.5zM289 7
q-42 0 -72.5 -4.5t-57 -15.5t-40 -33.5t-13.5 -55.5q0 -54 53.5 -81.5t135.5 -27.5q86 0 142 27t56 82q0 29 -11 49t-28 31.5t-45 18t-54.5 8.5t-65.5 2z" />
    <glyph glyph-name="h" unicode="h" horiz-adv-x="626" 
d="M151 738v-314q55 48 96 69t94 21q52 0 98.5 -20t78 -63.5t31.5 -102.5v-328h-57v318q0 70 -49.5 109.5t-116.5 39.5q-46 0 -83 -20t-92 -71v-376h-57v738h57z" />
    <glyph glyph-name="i" unicode="i" horiz-adv-x="241" 
d="M125.5 683q14.5 0 24.5 -9.5t10 -23t-10 -23t-24.5 -9.5t-24.5 9.5t-10 23t10 23t24.5 9.5zM154 0h-57v500h57v-500z" />
    <glyph glyph-name="j" unicode="j" horiz-adv-x="246" 
d="M129.5 683q14.5 0 24.5 -9.5t10 -23t-10 -23t-24.5 -9.5t-24.5 9.5t-10 23t10 23t24.5 9.5zM158 500v-519q0 -113 -72 -172q-61 -59 -159 -65v44q82 9 129 61q45 48 45 132v519h57z" />
    <glyph glyph-name="k" unicode="k" horiz-adv-x="545" 
d="M151 238l264 262h66l-195 -198l223 -302h-68l-190 261l-100 -97v-164h-57v737h57v-499z" />
    <glyph glyph-name="l" unicode="l" horiz-adv-x="342" 
d="M151 738v-528q0 -86 38 -129q38 -42 115 -42v-44q-101 -3 -155 50q-55 55 -55 165v528h57z" />
    <glyph glyph-name="m" unicode="m" horiz-adv-x="946" 
d="M137 500l2 -75q50 47 87.5 68t86.5 21q51 0 97 -23.5t72 -67.5q55 52 97 71.5t95 19.5q49 0 92.5 -20t73.5 -63.5t30 -102.5v-328h-58v318q0 70 -45 109.5t-106 39.5q-44 0 -79 -17t-86 -66q11 -29 11 -61v-323h-58v318q0 70 -45 109.5t-106 39.5q-41 0 -74 -19.5
t-81 -68.5v-379h-58v500h52z" />
    <glyph glyph-name="n" unicode="n" horiz-adv-x="621" 
d="M137 500l2 -77q55 48 97 69.5t96 21.5q53 0 100.5 -20t79.5 -63.5t32 -102.5v-328h-57v318q0 70 -50 109.5t-118 39.5q-47 0 -84 -19.5t-92 -69.5v-378h-58v500h52z" />
    <glyph glyph-name="o" unicode="o" horiz-adv-x="641" 
d="M321 513q122 0 191.5 -72.5t69.5 -190.5t-68.5 -190.5t-192.5 -72.5q-123 0 -192.5 73.5t-69.5 189.5t69.5 189.5t192.5 73.5zM321 467q-95 0 -150 -59.5t-55 -157.5t55 -157.5t150 -59.5q96 0 150 58.5t54 158.5t-54.5 158.5t-149.5 58.5z" />
    <glyph glyph-name="p" unicode="p" horiz-adv-x="627" 
d="M146 500l2 -74q67 86 184 86q112 0 174 -70.5t62 -192.5q0 -124 -57.5 -193t-168.5 -69q-48 0 -89 17.5t-102 68.5v-311h-57v738h52zM151 375v-251q60 -55 97 -73t81 -18q182 0 182 216q0 99 -50 158t-144 59q-107 0 -166 -91z" />
    <glyph glyph-name="q" unicode="q" horiz-adv-x="618" 
d="M476 -238v311q-61 -51 -102 -68.5t-89 -17.5q-111 0 -168.5 69t-57.5 193q0 122 62 192.5t174 70.5q117 0 184 -86l2 74h52v-738h-57zM476 124v251q-59 91 -166 91q-94 0 -144 -59t-50 -158q0 -216 182 -216q44 0 81 18t97 73z" />
    <glyph glyph-name="r" unicode="r" horiz-adv-x="359" 
d="M334 513v-47h-14q-50 0 -96.5 -25.5t-80.5 -77.5v-363h-58v500h52l2 -88q36 49 85 75t103 26h7z" />
    <glyph glyph-name="s" unicode="s" horiz-adv-x="502" 
d="M39 59l20 37q28 -27 81 -44t108 -17q66 0 109 24.5t43 73.5q0 22 -8 38.5t-18.5 26t-33 17t-37.5 11t-46 8.5q-13 3 -19 4q-35 6 -57 11.5t-47.5 15.5t-39.5 23t-23.5 34t-9.5 49q0 46 30.5 78.5t76 47t100.5 14.5q101 0 170 -43l-18 -38q-64 37 -153 37
q-63 0 -106.5 -25t-43.5 -70q0 -19 7 -33t16.5 -23t27 -16t32.5 -10.5t39 -8.5q7 -1 22 -4q30 -5 44.5 -8t39.5 -9.5t37.5 -12.5t29.5 -17t25 -24t14 -32t6 -42q0 -46 -31 -79t-77 -47.5t-99 -14.5q-62 0 -120 18.5t-91 49.5z" />
    <glyph glyph-name="t" unicode="t" horiz-adv-x="397" 
d="M182 500h152v-44h-152v-249q0 -73 40 -117q39 -44 115 -52v-44q-100 6 -154 59q-58 56 -58 154v249h-101v44h101v146h57v-146z" />
    <glyph glyph-name="u" unicode="u" horiz-adv-x="612" 
d="M536 0h-52l-2 77q-56 -49 -97.5 -70t-95.5 -21q-53 0 -100.5 19.5t-80 63.5t-32.5 103v328h58v-318q0 -70 50 -109.5t118 -39.5q47 0 84 19.5t92 69.5v378h58v-500z" />
    <glyph glyph-name="v" unicode="v" horiz-adv-x="516" 
d="M289 0h-62l-202 500h59l174 -442l174 442h59z" />
    <glyph glyph-name="w" unicode="w" horiz-adv-x="815" 
d="M607 0h-61l-139 416l-138 -416h-61l-183 500h59l154 -432l142 432h54l143 -432l154 432h59z" />
    <glyph glyph-name="x" unicode="x" horiz-adv-x="497" 
d="M286 250l186 -250h-63l-159 214l-162 -214h-63l190 251l-182 249h62l155 -210l152 210h62z" />
    <glyph glyph-name="y" unicode="y" horiz-adv-x="546" 
d="M521 500l-242 -598q-31 -77 -94 -115q-59 -35 -145 -35v44q73 0 123 32q47 32 72 92l31 80h-11l-205 500h59l178 -443l175 443h59z" />
    <glyph glyph-name="z" unicode="z" horiz-adv-x="473" 
d="M424 475l-308 -431h314v-44h-389v26l308 430h-292v44h367v-25z" />
    <glyph glyph-name="braceleft" unicode="{" horiz-adv-x="378" 
d="M331 714l2 -43q-73 -9 -114.5 -53t-41.5 -116v-127q0 -37 -19 -64.5t-50 -41.5q31 -13 50 -40.5t19 -64.5v-127q0 -73 42 -116.5t114 -52.5l-2 -44q-95 9 -152 62.5t-57 150.5v127q0 34 -20 56t-57 26v47q37 4 57 26t20 56v127q0 97 57.5 150.5t151.5 61.5z" />
    <glyph glyph-name="bar" unicode="|" horiz-adv-x="150" 
d="M105 -144h-60v894h60v-894z" />
    <glyph glyph-name="braceright" unicode="}" horiz-adv-x="378" 
d="M45 670l1 45q95 -9 152 -62.5t57 -150.5v-127q0 -34 20 -56t58 -26v-47q-38 -4 -58 -26t-20 -56v-127q0 -97 -56.5 -150.5t-152.5 -62.5l-1 44q72 9 113.5 53t41.5 116v127q0 37 19 64.5t51 40.5q-32 14 -51 41.5t-19 64.5v127q0 72 -41.5 116t-113.5 52z" />
    <glyph glyph-name="asciitilde" unicode="~" horiz-adv-x="531" 
d="M76 246l-31 18q45 88 120 88q46 0 120 -42q55 -31 96 -31q55 0 73 51l32 -16q-14 -37 -41.5 -56t-61.5 -19q-46 0 -103 33q-72 41 -113 41q-58 0 -91 -67z" />
    <glyph glyph-name="exclamdown" unicode="&#xa1;" horiz-adv-x="160" 
d="M79.5 524q14.5 0 25 -9.5t10.5 -23t-10.5 -23t-25 -9.5t-24.5 9.5t-10 23t10 23t24.5 9.5zM108 -180h-56v547h56v-547z" />
    <glyph glyph-name="cent" unicode="&#xa2;" horiz-adv-x="495" 
d="M313 512l11 -1q79 -4 124 -35l-32 -36q-36 27 -107 27q-95 0 -151.5 -60.5t-56.5 -156.5q0 -98 57 -157.5t151 -59.5q69 0 112 30l31 -37q-51 -33 -128 -37l-11 -1v-78h-54v82q-99 13 -157 84t-58 174q0 102 57 173.5t158 84.5v83h54v-79z" />
    <glyph glyph-name="sterling" unicode="&#xa3;" horiz-adv-x="628" 
d="M46 360h77q-26 90 -26 151q3 202 236 202q55 0 95.5 -9t73 -29t50 -56.5t18.5 -89.5h-58q-2 75 -46.5 104t-130.5 29q-83 0 -129 -36.5t-48 -119.5q0 -56 27 -146h270v-50h-260q10 -39 10 -68q0 -85 -82 -192h460v-50h-538v50q90 102 97 176q1 11 1 23q0 26 -8 61h-89v50
z" />
    <glyph glyph-name="currency" unicode="&#xa4;" horiz-adv-x="730" 
 />
    <glyph glyph-name="yen" unicode="&#xa5;" horiz-adv-x="690" 
d="M437 374h94v-45h-121l-35 -58v-61h156v-45h-156v-165h-60v165h-156v45h156v61l-35 58h-121v45h94l-210 326h69l233 -366l234 366h68z" />
    <glyph glyph-name="brokenbar" unicode="&#xa6;" horiz-adv-x="150" 
d="M105 384h-60v366h60v-366zM105 -144h-60v366h60v-366z" />
    <glyph glyph-name="section" unicode="&#xa7;" horiz-adv-x="562" 
d="M45 -67l28 41q33 -31 93 -51.5t123 -20.5q74 0 123 29.5t49 85.5q0 19 -5 33.5t-12 25t-21 19.5t-25 14t-32.5 10.5t-34 8t-38.5 7.5q-11 2 -17 3q-40 7 -64 13t-53.5 18t-45 27t-26.5 40t-11 58q0 46 27 79t73 52q-48 17 -74 46.5t-26 80.5q0 53 34.5 91t86 55t114.5 17
q107 0 183 -46l-28 -42q-70 40 -162 40q-72 0 -121.5 -29t-49.5 -83q0 -22 8 -38.5t20 -27t33 -19t38.5 -12.5t45.5 -9q6 -1 19 -4q26 -4 38.5 -6.5t35.5 -8t35 -10t30.5 -12t28 -16t21.5 -20t17.5 -25.5t9.5 -32t4 -39q0 -84 -88 -127q43 -18 65.5 -49t22.5 -82
q0 -54 -35 -92.5t-86.5 -55t-112.5 -16.5q-70 0 -135.5 21t-102.5 58zM272 398l-31 6q-49 -11 -79.5 -38t-30.5 -68q0 -22 8 -38.5t19.5 -26.5t32 -18.5t38.5 -13t45 -9.5q80 -15 98 -20q42 13 67 39t25 64q0 19 -5.5 34t-12 25.5t-21 19t-25.5 14t-32.5 11t-34 8t-38.5 7.5
q-15 2 -23 4z" />
    <glyph glyph-name="dieresis" unicode="&#xa8;" horiz-adv-x="356" 
d="M81.5 665q15.5 0 24 -9t8.5 -21.5t-9 -21.5t-24 -9t-23.5 9t-8.5 21.5t8.5 21.5t24 9zM275 665q15 0 24 -9t9 -21.5t-9 -21.5t-24 -9t-24 9t-9 21.5t9 21.5t24 9z" />
    <glyph glyph-name="copyright" unicode="&#xa9;" horiz-adv-x="810" 
d="M405 710q98 0 180.5 -48t131 -131t48.5 -181t-48.5 -181t-131 -131t-180.5 -48t-181 48t-131 131t-48 181t48 181t131 131t181 48zM405 669q-86 0 -159.5 -42.5t-116 -116t-42.5 -160t42.5 -160t116 -116t159.5 -42.5t159.5 42.5t116 116t42.5 160t-42.5 160t-116 116
t-159.5 42.5zM499 217l27 -29q-47 -35 -115 -35q-89 0 -140.5 55.5t-51.5 141.5t51.5 141.5t140.5 55.5q68 0 115 -35l-27 -29q-35 29 -88 29q-70 0 -110 -44.5t-40 -117.5t40 -117t110 -44q53 0 88 28z" />
    <glyph glyph-name="ordfeminine" unicode="&#xaa;" horiz-adv-x="544" 
d="M148 642l-13 29q62 35 129 35q61 0 106.5 -33.5t45.5 -93.5v-223h-41l-1 46q-51 -54 -132 -54q-55 0 -94.5 30t-39.5 83q0 56 43 84.5t104 28.5q65 0 116 -28v35q-1 43 -34.5 67.5t-78.5 24.5q-57 0 -110 -31zM371 437v77q-46 29 -109 29q-48 0 -79.5 -20t-31.5 -60
q0 -38 29 -59t72 -21q75 0 119 54z" />
    <glyph glyph-name="guillemotleft" unicode="&#xab;" horiz-adv-x="554" 
d="M299 497l-187 -204l187 -204l-38 -30l-216 234l216 234zM509 497l-187 -204l187 -204l-37 -30l-217 234l217 234z" />
    <glyph glyph-name="logicalnot" unicode="&#xac;" horiz-adv-x="730" 
 />
    <glyph glyph-name="registered" unicode="&#xae;" horiz-adv-x="810" 
d="M405 710q98 0 180.5 -48t131 -131t48.5 -181t-48.5 -181t-131 -131t-180.5 -48t-181 48t-131 131t-48 181t48 181t131 131t181 48zM405 669q-86 0 -159.5 -42.5t-116 -116t-42.5 -160t42.5 -160t116 -116t159.5 -42.5t159.5 42.5t116 116t42.5 160t-42.5 160t-116 116
t-159.5 42.5zM270 537h153q55 0 87.5 -32.5t32.5 -84.5q0 -44 -23 -74t-65 -38l105 -142h-46l-96 136h-110v-136h-38v371zM308 335h113q40 0 61.5 22.5t21.5 62.5t-22 62.5t-61 22.5h-113v-170z" />
    <glyph glyph-name="macron" unicode="&#xaf;" horiz-adv-x="390" 
d="M345 676h-300v38h300v-38z" />
    <glyph glyph-name="degree" unicode="&#xb0;" horiz-adv-x="395" 
d="M197.5 801q63.5 0 108 -43.5t44.5 -104.5t-44.5 -104.5t-108 -43.5t-108 43.5t-44.5 104.5t44.5 104.5t108 43.5zM197.5 765q-45.5 0 -79 -32.5t-33.5 -79.5t33.5 -80t79 -33t78.5 33t33 80t-33 79.5t-78.5 32.5z" />
    <glyph glyph-name="plusminus" unicode="&#xb1;" horiz-adv-x="493" 
d="M270 413h178v-48h-178v-174h-47v174h-178v48h178v173h47v-173zM448 -16h-403v48h403v-48z" />
    <glyph glyph-name="twosuperior" unicode="&#xb2;" horiz-adv-x="368" 
d="M91 603h-43q-2 57 34 80t104 23q65 0 101 -21t36 -75.5t-31 -76t-96 -24.5q-54 -4 -79 -19.5t-25 -53.5v-49h229v-37h-273v83q0 56 38 81.5t107 29.5q48 2 67.5 15t19.5 50q0 36 -23 48.5t-72 12.5q-50 0 -72.5 -13.5t-21.5 -53.5z" />
    <glyph glyph-name="threesuperior" unicode="&#xb3;" horiz-adv-x="374" 
d="M98 610h-44q0 96 133 96t133 -94q0 -60 -54 -80q63 -20 63 -87q0 -56 -38.5 -78.5t-103.5 -22.5q-141 0 -142 103h43q1 -39 24.5 -53t74 -14t74 14t23.5 53.5t-23.5 53.5t-74.5 14h-50v33h51q45 0 66.5 13t21.5 48.5t-21 48t-67 12.5t-67.5 -12.5t-21.5 -47.5z" />
    <glyph glyph-name="acute" unicode="&#xb4;" horiz-adv-x="279" 
d="M234 692l-159 -133l-30 36l159 133z" />
    <glyph glyph-name="paragraph" unicode="&#xb6;" horiz-adv-x="744" 
d="M699 652h-99v-886h-60v886h-158v-886h-60v474h-55q-104 3 -163 65.5t-59 164.5q0 103 62.5 166.5t171.5 63.5h420v-48z" />
    <glyph glyph-name="periodcentered" unicode="&#xb7;" horiz-adv-x="156" 
d="M78 333q15 0 24 -8.5t9 -21.5t-9 -21.5t-24 -8.5t-24 8.5t-9 21t9 21.5t24 9z" />
    <glyph glyph-name="cedilla" unicode="&#xb8;" horiz-adv-x="297" 
d="M178 7l-41 -68q11 2 18 2q43 -1 70 -24t27 -63q0 -44 -31.5 -69t-80.5 -25q-67 0 -95 41l24 22q20 -28 68 -28q33 0 52.5 16t19.5 45q0 28 -20 44.5t-54 16.5q-18 0 -31 -4l-17 10l50 84h41z" />
    <glyph glyph-name="onesuperior" unicode="&#xb9;" horiz-adv-x="204" 
d="M159 348h-45v311l-69 -15v37l83 19h31v-352z" />
    <glyph glyph-name="ordmasculine" unicode="&#xba;" 
d="M301 706q83 0 130.5 -49.5t47.5 -129.5t-47 -129.5t-131 -49.5t-131.5 50t-47.5 128.5t47.5 129t131.5 50.5zM300.5 670q-62.5 0 -98 -39t-35.5 -104t35.5 -104t98.5 -39t98 38.5t35 104.5t-35.5 104.5t-98 38.5z" />
    <glyph glyph-name="guillemotright" unicode="&#xbb;" horiz-adv-x="554" 
d="M509 293l-216 -234l-38 30l187 204l-187 204l38 30zM299 293l-217 -234l-37 30l187 204l-187 204l37 30z" />
    <glyph glyph-name="onequarter" unicode="&#xbc;" horiz-adv-x="658" 
d="M113 -17h-59l450 734h59zM166 348h-45v311l-69 -15v37l83 19h31v-352zM570 114h43v-36h-43v-78h-40v78h-209v34l208 240h41v-238zM372 114h158v185z" />
    <glyph glyph-name="onehalf" unicode="&#xbd;" horiz-adv-x="743" 
d="M113 -17h-59l450 734h59zM166 348h-45v311l-69 -15v37l83 19h31v-352zM465 253h-43q-2 57 34.5 80t103.5 23q66 0 102 -21.5t36 -76t-31.5 -75.5t-95.5 -25q-54 -3 -79.5 -19t-25.5 -54v-48h230v-37h-274v82q0 56 38 81.5t108 29.5q48 3 67 16t19 49t-22.5 49t-71.5 13
q-51 0 -73.5 -14t-21.5 -53z" />
    <glyph glyph-name="threequarters" unicode="&#xbe;" horiz-adv-x="769" 
d="M224 -17h-60l450 734h59zM98 610h-44q0 96 133 96t133 -94q0 -60 -54 -80q63 -20 63 -87q0 -56 -38.5 -78.5t-103.5 -22.5q-141 0 -142 103h43q0 -39 24 -53t74.5 -14t74 14t23.5 53.5t-23.5 53.5t-74.5 14h-50v33h51q45 0 66.5 13t21.5 48.5t-21 48t-67 12.5
t-67.5 -12.5t-21.5 -47.5zM681 114h43v-36h-43v-78h-40v78h-209v34l208 240h41v-238zM482 114h159v185z" />
    <glyph glyph-name="questiondown" unicode="&#xbf;" horiz-adv-x="613" 
d="M356.5 545q14.5 0 24.5 -9.5t10 -23t-10 -23t-24.5 -9.5t-24.5 9.5t-10 23t10 23t24.5 9.5zM386 387v-97q0 -17 -3 -31t-6.5 -25t-12.5 -20.5t-14.5 -15.5t-19 -12.5t-19.5 -9.5t-23.5 -7.5t-23.5 -6t-25 -5.5q-26 -6 -40.5 -10.5t-35 -15.5t-31.5 -25.5t-19 -39.5
t-8 -59q0 -75 50.5 -103t150.5 -28q101 0 152 28t51 102h59q0 -52 -19 -87.5t-55.5 -55t-81.5 -27.5t-104 -8q-47 0 -84.5 4.5t-72 17t-57 32t-36 51.5t-13.5 75q0 33 5.5 59.5t14 45t23 33t27 23.5t32.5 16.5t33 11t33 8.5q24 5 36 8.5t29.5 11.5t26 18t15 27t7.5 41v76h59
z" />
    <glyph glyph-name="Agrave" unicode="&#xc0;" horiz-adv-x="731" 
d="M459 795l-30 -36l-159 133l30 36zM688 0h-62l-80 193h-361l-80 -193h-62l291 700h63zM203 243h325l-162 393z" />
    <glyph glyph-name="Aacute" unicode="&#xc1;" horiz-adv-x="731" 
d="M462 892l-160 -133l-30 36l160 133zM688 0h-62l-80 193h-361l-80 -193h-62l291 700h63zM203 243h325l-162 393z" />
    <glyph glyph-name="Acircumflex" unicode="&#xc2;" horiz-adv-x="731" 
d="M516 785l-31 -31l-121 124l-121 -124l-31 31l152 153zM688 0h-62l-80 193h-361l-80 -193h-62l291 700h63zM203 243h325l-162 393z" />
    <glyph glyph-name="Atilde" unicode="&#xc3;" horiz-adv-x="731" 
d="M263 815l-34 19q29 63 75 63q26 0 66 -22q42 -23 61 -23q24 0 39 34l34 -19q-23 -55 -67 -55q-27 0 -69 23q-40 22 -58 22q-27 0 -47 -42zM688 0h-62l-80 193h-361l-80 -193h-62l291 700h63zM203 243h325l-162 393z" />
    <glyph glyph-name="Adieresis" unicode="&#xc4;" horiz-adv-x="731" 
d="M267.5 865q15.5 0 24 -9t8.5 -21.5t-8.5 -21.5t-23.5 -9t-24 9t-9 21.5t8.5 21.5t24 9zM461 865q15 0 24 -9t9 -21.5t-9 -21.5t-24 -9t-24 9t-9 21.5t9 21.5t24 9zM688 0h-62l-80 193h-361l-80 -193h-62l291 700h63zM203 243h325l-162 393z" />
    <glyph glyph-name="Aring" unicode="&#xc5;" horiz-adv-x="731" 
d="M364.5 961q46.5 0 78.5 -31.5t32 -75t-32 -75t-78.5 -31.5t-78.5 31.5t-32 75t32 75t78.5 31.5zM364.5 929q-29.5 0 -52 -21.5t-22.5 -53t22.5 -53t52 -21.5t52 21.5t22.5 53t-22.5 53t-52 21.5zM688 0h-62l-80 193h-361l-80 -193h-62l291 700h63zM203 243h325l-162 393z
" />
    <glyph glyph-name="AE" unicode="&#xc6;" horiz-adv-x="859" 
d="M803 650h-378v-264h346v-50h-346v-286h378v-50h-437v193h-181l-80 -193h-62l291 700h469v-50zM203 243h163v393z" />
    <glyph glyph-name="Ccedilla" unicode="&#xc7;" horiz-adv-x="685" 
d="M282 -77l46 76q-122 27 -190 122t-68 229q0 160 94 261t258 101q118 0 203 -58l-38 -41q-67 48 -165 48q-137 0 -214.5 -85t-77.5 -225.5t77.5 -226t214.5 -85.5q98 0 165 49l38 -41q-82 -55 -195 -58q-35 0 -64 4l-35 -54q13 2 20 2q43 -2 69.5 -24.5t26.5 -62.5
q0 -44 -32 -69t-81 -25q-67 0 -95 41l25 22q20 -28 67 -28q33 0 53 16t20 45q0 28 -20.5 44.5t-54.5 16.5q-18 0 -30 -4z" />
    <glyph glyph-name="Egrave" unicode="&#xc8;" horiz-adv-x="591" 
d="M395 795l-31 -36l-159 133l30 36zM535 650h-378v-264h346v-50h-346v-286h378v-50h-437v700h437v-50z" />
    <glyph glyph-name="Eacute" unicode="&#xc9;" horiz-adv-x="591" 
d="M397 892l-159 -133l-31 36l160 133zM535 650h-378v-264h346v-50h-346v-286h378v-50h-437v700h437v-50z" />
    <glyph glyph-name="Ecircumflex" unicode="&#xca;" horiz-adv-x="591" 
d="M451 785l-31 -31l-121 124l-121 -124l-31 31l152 153zM535 650h-378v-264h346v-50h-346v-286h378v-50h-437v700h437v-50z" />
    <glyph glyph-name="Edieresis" unicode="&#xcb;" horiz-adv-x="591" 
d="M203 865q15 0 24 -9t9 -21.5t-9 -21.5t-24 -9t-24 9t-9 21.5t9 21.5t24 9zM396 865q15 0 24 -9t9 -21.5t-9 -21.5t-24 -9t-24 9t-9 21.5t9 21.5t24 9zM535 650h-378v-264h346v-50h-346v-286h378v-50h-437v700h437v-50z" />
    <glyph glyph-name="Igrave" unicode="&#xcc;" horiz-adv-x="255" 
d="M222 795l-30 -36l-159 133l30 36zM157 0h-59v700h59v-700z" />
    <glyph glyph-name="Iacute" unicode="&#xcd;" horiz-adv-x="255" 
d="M224 892l-159 -133l-30 36l159 133zM157 0h-59v700h59v-700z" />
    <glyph glyph-name="Icircumflex" unicode="&#xce;" horiz-adv-x="255" 
d="M279 785l-31 -31l-121 124l-122 -124l-30 31l152 153zM157 0h-59v700h59v-700z" />
    <glyph glyph-name="Idieresis" unicode="&#xcf;" horiz-adv-x="255" 
d="M30 865q15 0 24 -9t9 -21.5t-9 -21.5t-24 -9t-24 9t-9 21.5t9 21.5t24 9zM223 865q15 0 24 -9t9 -21.5t-9 -21.5t-24 -9t-24 9t-9 21.5t9 21.5t24 9zM157 0h-59v700h59v-700z" />
    <glyph glyph-name="Eth" unicode="&#xd0;" horiz-adv-x="751" 
d="M105 700h223q165 0 258.5 -95.5t93.5 -254.5q0 -160 -93 -255t-259 -95h-223v320h-102v48h102v332zM165 650v-282h191v-48h-191v-270h163q140 0 216.5 80t76.5 220q0 139 -77.5 219.5t-215.5 80.5h-163z" />
    <glyph glyph-name="Ntilde" unicode="&#xd1;" horiz-adv-x="728" 
d="M263 815l-34 19q29 63 75 63q26 0 67 -22q42 -23 60 -23q25 0 40 34l33 -19q-23 -55 -67 -55q-26 0 -69 23q-40 22 -58 22q-27 0 -47 -42zM639 0h-72l-419 601v-601h-59v700h72l419 -601v601h59v-700z" />
    <glyph glyph-name="Ograve" unicode="&#xd2;" horiz-adv-x="844" 
d="M518 795l-30 -36l-160 133l31 36zM421.5 712q163.5 0 258 -101t94.5 -261q0 -161 -93.5 -261.5t-258.5 -100.5q-162 0 -257 101t-95 261t94 261t257.5 101zM421.5 661q-136.5 0 -214 -85t-77.5 -226t78.5 -226.5t213.5 -85.5q138 0 215.5 85t77.5 227q0 141 -78.5 226
t-215 85z" />
    <glyph glyph-name="Oacute" unicode="&#xd3;" horiz-adv-x="844" 
d="M520 892l-159 -133l-30 36l159 133zM421.5 712q163.5 0 258 -101t94.5 -261q0 -161 -93.5 -261.5t-258.5 -100.5q-162 0 -257 101t-95 261t94 261t257.5 101zM421.5 661q-136.5 0 -214 -85t-77.5 -226t78.5 -226.5t213.5 -85.5q138 0 215.5 85t77.5 227q0 141 -78.5 226
t-215 85z" />
    <glyph glyph-name="Ocircumflex" unicode="&#xd4;" horiz-adv-x="844" 
d="M574 785l-30 -31l-122 124l-121 -124l-31 31l152 153zM421.5 712q163.5 0 258 -101t94.5 -261q0 -161 -93.5 -261.5t-258.5 -100.5q-162 0 -257 101t-95 261t94 261t257.5 101zM421.5 661q-136.5 0 -214 -85t-77.5 -226t78.5 -226.5t213.5 -85.5q138 0 215.5 85t77.5 227
q0 141 -78.5 226t-215 85z" />
    <glyph glyph-name="Otilde" unicode="&#xd5;" horiz-adv-x="844" 
d="M321 815l-34 19q29 63 75 63q26 0 67 -22q42 -23 60 -23q25 0 40 34l33 -19q-23 -55 -67 -55q-26 0 -69 23q-40 22 -58 22q-27 0 -47 -42zM421.5 712q163.5 0 258 -101t94.5 -261q0 -161 -93.5 -261.5t-258.5 -100.5q-162 0 -257 101t-95 261t94 261t257.5 101z
M421.5 661q-136.5 0 -214 -85t-77.5 -226t78.5 -226.5t213.5 -85.5q138 0 215.5 85t77.5 227q0 141 -78.5 226t-215 85z" />
    <glyph glyph-name="Odieresis" unicode="&#xd6;" horiz-adv-x="844" 
d="M326 865q15 0 24 -9t9 -21.5t-9 -21.5t-24 -9t-24 9t-9 21.5t9 21.5t24 9zM519 865q15 0 24 -9t9 -21.5t-9 -21.5t-24 -9t-24 9t-9 21.5t9 21.5t24 9zM421.5 712q163.5 0 258 -101t94.5 -261q0 -161 -93.5 -261.5t-258.5 -100.5q-162 0 -257 101t-95 261t94 261
t257.5 101zM421.5 661q-136.5 0 -214 -85t-77.5 -226t78.5 -226.5t213.5 -85.5q138 0 215.5 85t77.5 227q0 141 -78.5 226t-215 85z" />
    <glyph glyph-name="multiply" unicode="&#xd7;" horiz-adv-x="409" 
d="M204 326l126 126l34 -34l-126 -126l126 -125l-34 -34l-126 126l-125 -126l-34 34l126 126l-126 125l34 34z" />
    <glyph glyph-name="Oslash" unicode="&#xd8;" horiz-adv-x="844" 
d="M626 750l-33 -76q87 -43 134 -128t47 -196q0 -161 -93.5 -261.5t-258.5 -100.5q-65 0 -121 18l-25 -56h-58l33 76q-86 43 -133.5 128t-47.5 196q0 160 94 261t258 101q65 0 122 -18l24 56h58zM272 74l251 573q-47 14 -101 14q-137 0 -214.5 -85t-77.5 -226
q0 -95 37 -166.5t105 -109.5zM572 626l-251 -573q47 -15 101 -15q138 0 215.5 85t77.5 227q0 95 -37 167t-106 109z" />
    <glyph glyph-name="Ugrave" unicode="&#xd9;" horiz-adv-x="745" 
d="M468 795l-31 -36l-159 133l30 36zM656 700v-382q0 -77 -13.5 -135t-44.5 -103.5t-86.5 -69t-134.5 -23.5q-78 0 -133.5 23t-87 68t-45 103.5t-13.5 136.5v382h59v-378q0 -142 49.5 -211.5t170.5 -69.5t170.5 70t49.5 211v378h59z" />
    <glyph glyph-name="Uacute" unicode="&#xda;" horiz-adv-x="745" 
d="M470 892l-159 -133l-30 36l159 133zM656 700v-382q0 -77 -13.5 -135t-44.5 -103.5t-86.5 -69t-134.5 -23.5q-78 0 -133.5 23t-87 68t-45 103.5t-13.5 136.5v382h59v-378q0 -143 49.5 -212t170.5 -69t170.5 70t49.5 211v378h59z" />
    <glyph glyph-name="Ucircumflex" unicode="&#xdb;" horiz-adv-x="745" 
d="M524 785l-31 -31l-121 124l-121 -124l-31 31l152 153zM656 700v-382q0 -77 -13.5 -135t-44.5 -103.5t-86.5 -69t-134.5 -23.5q-78 0 -133.5 23t-87 68t-45 103.5t-13.5 136.5v382h59v-378q0 -143 49.5 -212t170.5 -69t170.5 70t49.5 211v378h59z" />
    <glyph glyph-name="Udieresis" unicode="&#xdc;" horiz-adv-x="745" 
d="M276 865q15 0 24 -9t9 -21.5t-9 -21.5t-24 -9t-24 9t-9 21.5t9 21.5t24 9zM469 865q15 0 24 -9t9 -21.5t-9 -21.5t-24 -9t-24 9t-9 21.5t9 21.5t24 9zM656 700v-382q0 -77 -13.5 -135t-44.5 -103.5t-86.5 -69t-134.5 -23.5q-78 0 -133.5 23t-87 68t-45 103.5t-13.5 136.5
v382h59v-378q0 -143 49.5 -212t170.5 -69t170.5 70t49.5 211v378h59z" />
    <glyph glyph-name="Yacute" unicode="&#xdd;" horiz-adv-x="690" 
d="M442 892l-159 -133l-30 36l159 133zM375 279v-279h-60v279l-272 421h69l233 -366l234 366h68z" />
    <glyph glyph-name="Thorn" unicode="&#xde;" horiz-adv-x="692" 
d="M157 584h229q109 0 171.5 -63.5t62.5 -166.5q0 -105 -62 -168t-172 -63h-229v-123h-59v700h59v-116zM157 172h224q85 0 132.5 48.5t47.5 133.5q0 83 -48 132t-132 49h-224v-363z" />
    <glyph glyph-name="germandbls" unicode="&#xdf;" horiz-adv-x="671" 
d="M88 1v532q1 52 18.5 88t50 55.5t72 27.5t90.5 8q53 0 92 -8t71.5 -27.5t50 -57t17.5 -91.5q0 -125 -103 -159q81 -14 124 -57.5t43 -128.5q0 -47 -14 -81.5t-37 -55t-59 -33t-73 -16.5t-86 -4h-116v51h117q52 0 87 5.5t64 20.5t43 44t14 73q0 85 -50.5 117t-150.5 33h-19
v50h10q72 3 109 33t37 104q0 78 -43 107.5t-128 29.5q-84 0 -127 -28.5t-44 -102.5v-529h-60z" />
    <glyph glyph-name="agrave" unicode="&#xe0;" horiz-adv-x="580" 
d="M388 595l-30 -36l-160 133l31 36zM111 427l-16 37q90 49 186 49q57 0 106.5 -19.5t82.5 -63t33 -102.5v-328h-51l-3 75q-76 -87 -200 -87q-81 0 -138 43t-57 121q0 55 31.5 93.5t78.5 55t104 16.5q101 0 178 -44v56q-1 66 -53 104t-121 38q-83 0 -161 -44zM446 116v117
q-70 46 -168 46q-73 0 -121.5 -31.5t-48.5 -92.5q0 -59 44.5 -91.5t110.5 -32.5q115 0 183 85z" />
    <glyph glyph-name="aacute" unicode="&#xe1;" horiz-adv-x="580" 
d="M390 692l-159 -133l-30 36l159 133zM111 427l-16 37q90 49 186 49q57 0 106.5 -19.5t82.5 -63t33 -102.5v-328h-51l-3 75q-76 -87 -200 -87q-81 0 -138 43t-57 121q0 55 31.5 93.5t78.5 55t104 16.5q101 0 178 -44v56q-1 66 -53 104t-121 38q-83 0 -161 -44zM446 116v117
q-70 46 -168 46q-73 0 -121.5 -31.5t-48.5 -92.5q0 -59 44.5 -91.5t110.5 -32.5q115 0 183 85z" />
    <glyph glyph-name="acircumflex" unicode="&#xe2;" horiz-adv-x="580" 
d="M444 585l-30 -31l-122 124l-121 -124l-31 31l152 153zM111 427l-16 37q90 49 186 49q57 0 106.5 -19.5t82.5 -63t33 -102.5v-328h-51l-3 75q-76 -87 -200 -87q-81 0 -138 43t-57 121q0 55 31.5 93.5t78.5 55t104 16.5q101 0 178 -44v56q-1 66 -53 104t-121 38
q-83 0 -161 -44zM446 116v117q-70 46 -168 46q-73 0 -121.5 -31.5t-48.5 -92.5q0 -59 44.5 -91.5t110.5 -32.5q115 0 183 85z" />
    <glyph glyph-name="atilde" unicode="&#xe3;" horiz-adv-x="580" 
d="M191 615l-34 19q29 63 75 63q26 0 66 -22q43 -23 61 -23q25 0 40 34l33 -19q-23 -55 -67 -55q-26 0 -69 23q-40 22 -58 22q-27 0 -47 -42zM111 427l-16 37q90 49 186 49q57 0 106.5 -19.5t82.5 -63t33 -102.5v-328h-51l-3 75q-76 -87 -200 -87q-81 0 -138 43t-57 121
q0 55 31.5 93.5t78.5 55t104 16.5q101 0 178 -44v56q-1 66 -53 104t-121 38q-83 0 -161 -44zM446 116v117q-70 46 -168 46q-73 0 -121.5 -31.5t-48.5 -92.5q0 -59 44.5 -91.5t110.5 -32.5q115 0 183 85z" />
    <glyph glyph-name="adieresis" unicode="&#xe4;" horiz-adv-x="580" 
d="M196 665q15 0 24 -9t9 -21.5t-9 -21.5t-24 -9t-24 9t-9 21.5t9 21.5t24 9zM389 665q15 0 24 -9t9 -21.5t-9 -21.5t-24 -9t-24 9t-9 21.5t9 21.5t24 9zM111 427l-16 37q90 49 186 49q57 0 106.5 -19.5t82.5 -63t33 -102.5v-328h-51l-3 75q-76 -87 -200 -87q-81 0 -138 43
t-57 121q0 55 31.5 93.5t78.5 55t104 16.5q101 0 178 -44v56q-1 66 -53 104t-121 38q-83 0 -161 -44zM446 116v117q-70 46 -168 46q-73 0 -121.5 -31.5t-48.5 -92.5q0 -59 44.5 -91.5t110.5 -32.5q115 0 183 85z" />
    <glyph glyph-name="aring" unicode="&#xe5;" horiz-adv-x="580" 
d="M293 761q46 0 78 -31.5t32 -75t-32 -75t-78 -31.5t-78.5 31.5t-32.5 75t32.5 75t78.5 31.5zM292.5 729q-29.5 0 -52 -21.5t-22.5 -53t22.5 -53t52 -21.5t52 21.5t22.5 53t-22.5 53t-52 21.5zM111 427l-16 37q90 49 186 49q57 0 106.5 -19.5t82.5 -63t33 -102.5v-328h-51
l-3 75q-76 -87 -200 -87q-81 0 -138 43t-57 121q0 55 31.5 93.5t78.5 55t104 16.5q101 0 178 -44v56q-1 66 -53 104t-121 38q-83 0 -161 -44zM446 116v117q-70 46 -168 46q-73 0 -121.5 -31.5t-48.5 -92.5q0 -59 44.5 -91.5t110.5 -32.5q115 0 183 85z" />
    <glyph glyph-name="ae" unicode="&#xe6;" horiz-adv-x="1010" 
d="M111 427l-16 37q90 49 186 49q78 0 140 -39t73 -110q25 70 83.5 110t143.5 40q115 0 177 -58.5t62 -170.5q0 -34 -6 -66h-428q8 -85 61 -135t140 -51q92 -2 166 39l25 -31q-80 -53 -191 -53q-83 0 -140.5 38t-83.5 105v-131h-51l-3 75q-76 -87 -200 -87q-81 0 -138 43
t-57 121q0 55 31.5 93.5t78.5 55t104 16.5q101 0 178 -44v56q-1 67 -53 104.5t-121 37.5q-83 0 -161 -44zM525 255h379q3 20 3 40q0 175 -185 175q-92 0 -143.5 -56.5t-53.5 -147.5v-11zM446 116v117q-70 46 -168 46q-73 0 -121.5 -31.5t-48.5 -92.5q0 -59 44.5 -91.5
t110.5 -32.5q115 0 183 85z" />
    <glyph glyph-name="ccedilla" unicode="&#xe7;" horiz-adv-x="517" 
d="M200 -77l44 73q-86 22 -135.5 90.5t-49.5 163.5q0 114 70 188.5t192 74.5q91 0 142 -37l-32 -36q-35 27 -107 27q-95 0 -151.5 -60.5t-56.5 -156.5q0 -98 57 -157.5t151 -59.5q69 0 112 30l31 -37q-53 -35 -137 -39q-28 0 -48 4l-33 -52q13 2 19 2q44 -2 70.5 -24.5
t26.5 -62.5q0 -44 -32 -69t-81 -25q-67 0 -94 41l24 22q20 -28 67 -28q33 0 53 16t20 45q0 28 -20.5 44.5t-54.5 16.5q-18 0 -30 -4z" />
    <glyph glyph-name="egrave" unicode="&#xe8;" 
d="M394 595l-30 -36l-159 133l30 36zM484 72l25 -31q-80 -53 -191 -53q-121 0 -190 73t-69 191q0 115 66.5 188.5t186.5 73.5q115 0 177 -58.5t62 -170.5q0 -34 -6 -66h-429q9 -85 62 -135t140 -51q91 -2 166 39zM116 255h379q2 20 2 40q0 175 -184 175q-92 0 -143.5 -56.5
t-53.5 -147.5v-11z" />
    <glyph glyph-name="eacute" unicode="&#xe9;" 
d="M397 692l-160 -133l-30 36l160 133zM484 72l25 -31q-80 -53 -191 -53q-121 0 -190 73t-69 190q0 116 66.5 189.5t186.5 73.5q115 0 177 -58.5t62 -170.5q0 -34 -6 -66h-429q9 -85 62 -135t140 -51q91 -2 166 39zM116 255h379q2 20 2 40q0 175 -184 175
q-92 0 -143.5 -56.5t-53.5 -147.5v-11z" />
    <glyph glyph-name="ecircumflex" unicode="&#xea;" 
d="M451 585l-31 -31l-121 124l-121 -124l-31 31l152 153zM484 72l25 -31q-80 -53 -191 -53q-121 0 -190 73t-69 190q0 116 66.5 189.5t186.5 73.5q115 0 177 -58.5t62 -170.5q0 -34 -6 -66h-429q9 -85 62 -135t140 -51q91 -2 166 39zM116 255h379q2 20 2 40q0 175 -184 175
q-92 0 -143.5 -56.5t-53.5 -147.5v-11z" />
    <glyph glyph-name="edieresis" unicode="&#xeb;" 
d="M203 665q15 0 24 -9t9 -21.5t-9 -21.5t-24 -9t-24 9t-9 21.5t9 21.5t24 9zM396 665q15 0 24 -9t9 -21.5t-9 -21.5t-24 -9t-24 9t-9 21.5t9 21.5t24 9zM484 72l25 -31q-80 -53 -191 -53q-121 0 -190 73t-69 191q0 115 66.5 188.5t186.5 73.5q115 0 177 -58.5t62 -170.5
q0 -34 -6 -66h-429q9 -85 62 -135t140 -51q91 -2 166 39zM116 255h379q2 20 2 40q0 175 -184 175q-92 0 -143.5 -56.5t-53.5 -147.5v-11z" />
    <glyph glyph-name="igrave" unicode="&#xec;" horiz-adv-x="229" 
d="M214 595l-30 -36l-159 133l30 36zM148 0h-58v500h58v-500z" />
    <glyph glyph-name="iacute" unicode="&#xed;" horiz-adv-x="229" 
d="M216 692l-159 -133l-30 36l159 133zM148 0h-58v500h58v-500z" />
    <glyph glyph-name="icircumflex" unicode="&#xee;" horiz-adv-x="229" 
d="M271 585l-31 -31l-121 124l-121 -124l-31 31l152 153zM148 0h-58v500h58v-500z" />
    <glyph glyph-name="idieresis" unicode="&#xef;" horiz-adv-x="229" 
d="M22 665q15 0 24 -9t9 -21.5t-9 -21.5t-24 -9t-23.5 9t-8.5 21.5t8.5 21.5t23.5 9zM216 665q15 0 24 -9t9 -21.5t-9 -21.5t-24 -9t-24 9t-9 21.5t9 21.5t24 9zM148 0h-58v500h58v-500z" />
    <glyph glyph-name="eth" unicode="&#xf0;" horiz-adv-x="600" 
d="M149 665l-25 38q43 31 87 44.5t102 13.5q141 0 204 -80l72 43l24 -38l-73 -42q44 -82 44 -272q0 -70 -6 -122.5t-23 -103t-46.5 -82.5t-78.5 -51.5t-117 -19.5q-62 0 -107.5 10.5t-84 36.5t-58 74.5t-19.5 118.5t19 118t56 73.5t81.5 36t104.5 10.5q86 0 138 -22.5
t83 -90.5l1 47q-1 149 -36 210l-111 -64l-23 37l109 64q-47 61 -153 61q-98 0 -164 -48zM313 424q-52 0 -88.5 -8.5t-66 -29t-44 -59t-14.5 -95.5t14.5 -95.5t44 -59t66 -28.5t88.5 -8q110 0 157 60t55 178q-12 46 -31 75.5t-47 44.5t-58 20t-76 5z" />
    <glyph glyph-name="ntilde" unicode="&#xf1;" horiz-adv-x="621" 
d="M214 615l-34 19q29 63 75 63q26 0 66 -22q43 -23 61 -23q25 0 40 34l33 -19q-23 -55 -67 -55q-26 0 -69 23q-40 22 -58 22q-27 0 -47 -42zM137 500l2 -77q55 48 97 69.5t96 21.5q53 0 100.5 -20t79.5 -63.5t32 -102.5v-328h-57v318q0 70 -50 109.5t-118 39.5
q-47 0 -84 -19.5t-92 -69.5v-378h-58v500h52z" />
    <glyph glyph-name="ograve" unicode="&#xf2;" horiz-adv-x="641" 
d="M416 595l-30 -36l-159 133l30 36zM321 513q122 0 191.5 -72.5t69.5 -190.5t-68.5 -190.5t-192.5 -72.5q-123 0 -192.5 73.5t-69.5 189.5t69.5 189.5t192.5 73.5zM321 467q-95 0 -150 -59.5t-55 -157.5t55 -157.5t150 -59.5q96 0 150 58.5t54 158.5t-54.5 158.5
t-149.5 58.5z" />
    <glyph glyph-name="oacute" unicode="&#xf3;" horiz-adv-x="641" 
d="M418 692l-159 -133l-30 36l159 133zM321 513q122 0 191.5 -72.5t69.5 -190.5t-68.5 -190.5t-192.5 -72.5q-123 0 -192.5 73.5t-69.5 189.5t69.5 189.5t192.5 73.5zM320.5 467q-94.5 0 -149.5 -59.5t-55 -157.5t55 -157.5t150 -59.5q96 0 150 58.5t54 158.5t-55 158.5
t-149.5 58.5z" />
    <glyph glyph-name="ocircumflex" unicode="&#xf4;" horiz-adv-x="641" 
d="M473 585l-31 -31l-121 124l-122 -124l-30 31l152 153zM321 513q122 0 191.5 -72.5t69.5 -190.5t-68.5 -190.5t-192.5 -72.5q-123 0 -192.5 73.5t-69.5 189.5t69.5 189.5t192.5 73.5zM321 467q-95 0 -150 -59.5t-55 -157.5t55 -157.5t150 -59.5q96 0 150 58.5t54 158.5
t-54.5 158.5t-149.5 58.5z" />
    <glyph glyph-name="otilde" unicode="&#xf5;" horiz-adv-x="641" 
d="M219 615l-33 19q28 63 75 63q25 0 66 -22q42 -23 61 -23q24 0 39 34l34 -19q-23 -55 -68 -55q-26 0 -69 23q-40 22 -58 22q-27 0 -47 -42zM321 513q122 0 191.5 -72.5t69.5 -190.5t-68.5 -190.5t-192.5 -72.5q-123 0 -192.5 73.5t-69.5 189.5t69.5 189.5t192.5 73.5z
M321 467q-95 0 -150 -59.5t-55 -157.5t55 -157.5t150 -59.5q96 0 150 58.5t54 158.5t-54.5 158.5t-149.5 58.5z" />
    <glyph glyph-name="odieresis" unicode="&#xf6;" horiz-adv-x="641" 
d="M224 665q15 0 24 -9t9 -21.5t-9 -21.5t-24 -9t-24 9t-9 21.5t9 21.5t24 9zM417 665q15 0 24 -9t9 -21.5t-9 -21.5t-24 -9t-24 9t-9 21.5t9 21.5t24 9zM321 513q122 0 191.5 -72.5t69.5 -190.5t-68.5 -190.5t-192.5 -72.5q-123 0 -192.5 73.5t-69.5 189.5t69.5 189.5
t192.5 73.5zM321 467q-95 0 -150 -59.5t-55 -157.5t55 -157.5t150 -59.5q96 0 150 58.5t54 158.5t-54.5 158.5t-149.5 58.5z" />
    <glyph glyph-name="divide" unicode="&#xf7;" horiz-adv-x="493" 
d="M246.5 531q15.5 0 24 -8.5t8.5 -21t-8.5 -21.5t-24 -9t-24 9t-8.5 21.5t8.5 21t24 8.5zM448 315h-403v48h403v-48zM246.5 207q15.5 0 24 -9t8.5 -21.5t-8.5 -21t-24 -8.5t-24 8.5t-8.5 21t8.5 21.5t24 9z" />
    <glyph glyph-name="oslash" unicode="&#xf8;" horiz-adv-x="641" 
d="M477 550l-28 -64q64 -31 98.5 -92.5t34.5 -143.5q0 -118 -68.5 -190.5t-192.5 -72.5q-46 0 -85 11l-21 -48h-51l28 65q-64 31 -98.5 93t-34.5 142q0 116 69.5 189.5t192.5 73.5q45 0 85 -11l21 48h50zM212 60l174 398q-30 9 -65 9q-95 0 -150 -59.5t-55 -157.5
q0 -65 25 -114t71 -76zM429 440l-174 -398q31 -9 66 -9q96 0 150 58.5t54 158.5q0 66 -25 115t-71 75z" />
    <glyph glyph-name="ugrave" unicode="&#xf9;" horiz-adv-x="612" 
d="M403 595l-30 -36l-159 133l30 36zM536 0h-52l-2 77q-56 -49 -97.5 -70t-95.5 -21q-53 0 -100.5 19.5t-80 63.5t-32.5 103v328h58v-318q0 -70 50 -109.5t118 -39.5q47 0 84 19.5t92 69.5v378h58v-500z" />
    <glyph glyph-name="uacute" unicode="&#xfa;" horiz-adv-x="612" 
d="M405 692l-159 -133l-30 36l159 133zM536 0h-52l-2 77q-56 -49 -97.5 -70t-95.5 -21q-53 0 -100.5 19.5t-80 63.5t-32.5 103v328h58v-318q0 -70 50 -109.5t118 -39.5q47 0 84 19.5t92 69.5v378h58v-500z" />
    <glyph glyph-name="ucircumflex" unicode="&#xfb;" horiz-adv-x="612" 
d="M460 585l-31 -31l-121 124l-121 -124l-31 31l152 153zM536 0h-52l-2 77q-56 -49 -97.5 -70t-95.5 -21q-53 0 -100.5 19.5t-80 63.5t-32.5 103v328h58v-318q0 -70 50 -109.5t118 -39.5q47 0 84 19.5t92 69.5v378h58v-500z" />
    <glyph glyph-name="udieresis" unicode="&#xfc;" horiz-adv-x="612" 
d="M211.5 665q15.5 0 24 -9t8.5 -21.5t-9 -21.5t-24 -9t-24 9t-9 21.5t9 21.5t24.5 9zM405 665q15 0 24 -9t9 -21.5t-9 -21.5t-24 -9t-24 9t-9 21.5t9 21.5t24 9zM536 0h-52l-2 77q-56 -49 -97.5 -70t-95.5 -21q-53 0 -100.5 19.5t-80 63.5t-32.5 103v328h58v-318
q0 -70 50 -109.5t118 -39.5q47 0 84 19.5t92 69.5v378h58v-500z" />
    <glyph glyph-name="yacute" unicode="&#xfd;" horiz-adv-x="546" 
d="M369 692l-159 -133l-30 36l159 133zM521 500l-242 -598q-31 -77 -94 -115q-59 -35 -145 -35v44q73 0 123 32q47 32 72 92l31 80h-11l-205 500h59l178 -443l175 443h59z" />
    <glyph glyph-name="thorn" unicode="&#xfe;" horiz-adv-x="627" 
d="M151 700v-271q68 83 181 83q112 0 174 -70.5t62 -192.5q0 -124 -57.5 -193t-168.5 -69q-48 0 -89 17.5t-102 68.5v-311h-57v938h57zM151 375v-251q60 -55 97 -73t81 -18q182 0 182 216q0 99 -50 158t-144 59q-107 0 -166 -91z" />
    <glyph glyph-name="ydieresis" unicode="&#xff;" horiz-adv-x="546" 
d="M175 665q15 0 24 -9t9 -21.5t-9 -21.5t-24 -9t-24 9t-9 21.5t9 21.5t24 9zM368 665q15 0 24 -9t9 -21.5t-9 -21.5t-24 -9t-24 9t-9 21.5t9 21.5t24 9zM521 500l-242 -598q-31 -77 -94 -115q-59 -35 -145 -35v44q73 0 123 32q47 32 72 92l31 80h-11l-205 500h59l178 -443
l175 443h59z" />
    <glyph glyph-name="Amacron" unicode="&#x100;" horiz-adv-x="731" 
d="M514 876h-300v38h300v-38zM688 0h-62l-80 193h-361l-80 -193h-62l291 700h63zM203 243h325l-162 393z" />
    <glyph glyph-name="amacron" unicode="&#x101;" horiz-adv-x="580" 
d="M443 676h-300v38h300v-38zM111 427l-16 37q90 49 186 49q57 0 106.5 -19.5t82.5 -63t33 -102.5v-328h-51l-3 75q-76 -87 -200 -87q-81 0 -138 43t-57 121q0 55 31.5 93.5t78.5 55t104 16.5q101 0 178 -44v56q-1 66 -53 104t-121 38q-83 0 -161 -44zM446 116v117
q-70 46 -168 46q-73 0 -121.5 -31.5t-48.5 -92.5q0 -59 44.5 -91.5t110.5 -32.5q115 0 183 85z" />
    <glyph glyph-name="Abreve" unicode="&#x102;" horiz-adv-x="731" 
d="M465 904l41 -2q-6 -54 -46 -90t-95.5 -36t-95.5 36t-46 90l41 2q5 -41 33.5 -66t66.5 -25t67 25t34 66zM688 0h-62l-80 193h-361l-80 -193h-62l291 700h63zM203 243h325l-163 393z" />
    <glyph glyph-name="abreve" unicode="&#x103;" horiz-adv-x="580" 
d="M393 704l41 -2q-6 -54 -46 -90t-95.5 -36t-95.5 36t-46 90l41 2q5 -41 34 -66t67 -25t66.5 25t33.5 66zM111 427l-16 37q90 49 186 49q57 0 106.5 -19.5t82.5 -63t33 -102.5v-328h-51l-3 75q-76 -87 -200 -87q-81 0 -138 43t-57 121q0 55 31.5 93.5t78.5 55t104 16.5
q101 0 178 -44v56q-1 66 -53 104t-121 38q-83 0 -161 -44zM446 116v117q-70 46 -168 46q-73 0 -121.5 -31.5t-48.5 -92.5q0 -59 44.5 -91.5t110.5 -32.5q115 0 183 85z" />
    <glyph glyph-name="Aogonek" unicode="&#x104;" horiz-adv-x="731" 
d="M688 0l-10 -5q-49 -35 -73.5 -70t-24.5 -65q0 -28 20 -46t53 -18q36 0 77 22l18 -33q-54 -26 -103 -26q-71 0 -99 49q-11 21 -11 46q0 76 91 146l-80 193h-361l-80 -193h-62l291 700h63zM203 243h325l-162 393z" />
    <glyph glyph-name="aogonek" unicode="&#x105;" horiz-adv-x="580" 
d="M111 427l-16 37q90 49 186 49q57 0 106.5 -19.5t82.5 -63t33 -102.5v-333q-51 -36 -76 -72.5t-25 -66.5q0 -27 20 -45t53 -18q36 0 77 22l17 -33q-54 -26 -102 -26q-71 0 -99 49q-12 21 -12 46q0 77 96 149l-3 75q-76 -87 -200 -87q-81 0 -138 43t-57 121q0 55 31.5 93.5
t78.5 55t104 16.5q101 0 178 -44v56q-1 66 -53 104t-121 38q-83 0 -161 -44zM446 116v117q-70 46 -168 46q-73 0 -121.5 -31.5t-48.5 -92.5q0 -59 44.5 -91.5t110.5 -32.5q115 0 183 85z" />
    <glyph glyph-name="Cacute" unicode="&#x106;" horiz-adv-x="685" 
d="M519 892l-159 -134l-30 36l159 134zM587 88l38 -41q-85 -58 -203 -58q-164 0 -258 101t-94 260.5t94 260.5t258 101q118 0 203 -58l-38 -41q-68 48 -165 48q-137 0 -214.5 -85t-77.5 -225.5t77.5 -226t214.5 -85.5q97 0 165 49z" />
    <glyph glyph-name="cacute" unicode="&#x107;" horiz-adv-x="517" 
d="M418 694l-159 -134l-30 36l159 134zM436 63l31 -37q-27 -19 -67 -29t-79 -10q-120 0 -191 74t-71 189q0 114 70 188.5t192 74.5q91 0 142 -37l-32 -36q-35 27 -107 27q-95 0 -151.5 -60.5t-56.5 -156.5q0 -98 57 -157.5t151 -59.5q69 0 112 30z" />
    <glyph glyph-name="Cdotaccent" unicode="&#x10a;" horiz-adv-x="685" 
d="M421 864q15 0 24 -8.5t9 -21t-9 -21.5t-24 -9t-24 9t-9 21.5t9 21t24 8.5zM587 88l38 -41q-85 -58 -203 -58q-164 0 -258 101t-94 260.5t94 260.5t258 101q118 0 203 -58l-38 -41q-68 48 -165 48q-137 0 -214.5 -85t-77.5 -225.5t77.5 -226t214.5 -85.5q97 0 165 49z" />
    <glyph glyph-name="cdotaccent" unicode="&#x10b;" horiz-adv-x="517" 
d="M321 666q15 0 24 -8.5t9 -21t-9 -21.5t-24 -9t-24 9t-9 21.5t9 21t24 8.5zM436 63l31 -37q-27 -19 -67 -29t-79 -10q-120 0 -191 74t-71 189q0 114 70 188.5t192 74.5q91 0 142 -37l-32 -36q-35 27 -107 27q-95 0 -151.5 -60.5t-56.5 -156.5q0 -98 57 -157.5t151 -59.5
q69 0 112 30z" />
    <glyph glyph-name="Ccaron" unicode="&#x10c;" horiz-adv-x="685" 
d="M573 902l-152 -154l-152 154l31 30l121 -123l121 123zM587 88l38 -41q-85 -58 -203 -58q-164 0 -258 101t-94 260.5t94 260.5t258 101q118 0 203 -58l-38 -41q-68 48 -165 48q-137 0 -214.5 -85t-77.5 -225.5t77.5 -226t214.5 -85.5q97 0 165 49z" />
    <glyph glyph-name="ccaron" unicode="&#x10d;" horiz-adv-x="517" 
d="M473 704l-152 -154l-152 154l31 30l121 -123l121 123zM436 63l31 -37q-27 -19 -67 -29t-79 -10q-120 0 -191 74t-71 189q0 114 70 188.5t192 74.5q91 0 142 -37l-32 -36q-35 27 -107 27q-95 0 -151.5 -60.5t-56.5 -156.5q0 -98 57 -157.5t151 -59.5q69 0 112 30z" />
    <glyph glyph-name="Dcaron" unicode="&#x10e;" horiz-adv-x="743" 
d="M473 902l-152 -153l-152 153l30 31l122 -124l121 124zM98 700h223q164 0 258 -95.5t94 -254.5q0 -160 -93 -255t-259 -95h-223v700zM157 50h164q139 0 215.5 80t76.5 220q0 139 -77 219.5t-215 80.5h-164v-600z" />
    <glyph glyph-name="dcaron" unicode="&#x10f;" horiz-adv-x="710" 
d="M655 703l1 6q-4 -1 -10 -1q-15 0 -24 9t-9 21.5t9 21t24 8.5q19 0 28 -13q11 -14 11 -46q0 -31 -10.5 -47t-38.5 -16h-10l4 25h4q13 0 17 7t4 25zM533 0h-52l-2 74q-67 -86 -184 -86q-111 0 -173.5 71t-62.5 192q0 124 57.5 193t168.5 69q48 0 89 -17.5t102 -68.5v311h57
v-738zM476 125v251q-60 55 -97 73t-81 18q-182 0 -182 -216q0 -99 50 -158t144 -59q107 0 166 91z" />
    <glyph glyph-name="Dcroat" unicode="&#x110;" horiz-adv-x="751" 
d="M105 700h223q165 0 258.5 -95.5t93.5 -254.5q0 -160 -93 -255t-259 -95h-223v320h-102v48h102v332zM165 650v-282h191v-48h-191v-270h163q140 0 216.5 80t76.5 220q0 139 -77.5 219.5t-215.5 80.5h-163z" />
    <glyph glyph-name="dcroat" unicode="&#x111;" horiz-adv-x="618" 
d="M631 609h-98v-609h-52l-2 74q-67 -86 -184 -86q-111 0 -173.5 71t-62.5 192q0 124 57.5 193t168.5 69q48 0 89 -17.5t102 -68.5v182h-145v37h145v92h57v-92h98v-37zM476 125v251q-60 55 -97 73t-81 18q-182 0 -182 -216q0 -99 50 -158t144 -59q107 0 166 91z" />
    <glyph glyph-name="Emacron" unicode="&#x112;" horiz-adv-x="591" 
d="M450 876h-301v38h301v-38zM535 650h-378v-264h346v-50h-346v-286h378v-50h-437v700h437v-50z" />
    <glyph glyph-name="emacron" unicode="&#x113;" 
d="M449 676h-300v38h300v-38zM484 72l25 -31q-80 -53 -191 -53q-121 0 -190 73t-69 191q0 115 66.5 188.5t186.5 73.5q115 0 177 -58.5t62 -170.5q0 -34 -6 -66h-429q9 -85 62 -135t140 -51q91 -2 166 39zM116 255h379q2 20 2 40q0 175 -184 175q-92 0 -143.5 -56.5
t-53.5 -147.5v-11z" />
    <glyph glyph-name="Edotaccent" unicode="&#x116;" horiz-adv-x="591" 
d="M299 865q15 0 24 -9t9 -21.5t-9 -21.5t-24 -9t-24 9t-9 21.5t9 21.5t24 9zM535 650h-378v-264h346v-50h-346v-286h378v-50h-437v700h437v-50z" />
    <glyph glyph-name="edotaccent" unicode="&#x117;" 
d="M299 665q15 0 24 -9t9 -21.5t-9 -21.5t-24 -9t-24 9t-9 21.5t9 21.5t24 9zM484 72l25 -31q-80 -53 -191 -53q-121 0 -190 73t-69 191q0 115 66.5 188.5t186.5 73.5q115 0 177 -58.5t62 -170.5q0 -34 -6 -66h-429q9 -85 62 -135t140 -51q91 -2 166 39zM116 255h379
q2 20 2 40q0 175 -184 175q-92 0 -143.5 -56.5t-53.5 -147.5v-11z" />
    <glyph glyph-name="Eogonek" unicode="&#x118;" horiz-adv-x="591" 
d="M535 650h-378v-264h346v-50h-346v-286h378v-50h-81q-90 -67 -90 -130q0 -28 20 -46t53 -18q36 0 77 22l17 -33q-54 -26 -102 -26q-71 0 -99 49q-11 21 -11 46q0 70 78 136h-299v700h437v-50z" />
    <glyph glyph-name="eogonek" unicode="&#x119;" 
d="M497 -168l17 -33q-54 -26 -102 -26q-71 0 -99 49q-11 21 -11 45q0 65 69 127q-27 -3 -51 -3q-14 0 -28 1q-109 7 -171 78t-62 182q0 115 66.5 188.5t186.5 73.5q115 0 177 -58.5t62 -170.5q0 -34 -6 -65h-429q9 -86 62 -136t140 -51q91 -2 166 40l25 -31q-30 -20 -65 -33
q-49 -35 -73 -70t-24 -65q0 -17 7 -30q19 -34 66 -34q36 0 77 22zM116 255h379q2 20 2 40q0 175 -184 175q-92 0 -143.5 -56.5t-53.5 -147.5v-11z" />
    <glyph glyph-name="Ecaron" unicode="&#x11a;" horiz-adv-x="591" 
d="M451 902l-152 -153l-152 153l31 31l121 -124l121 124zM535 650h-378v-264h346v-50h-346v-286h378v-50h-437v700h437v-50z" />
    <glyph glyph-name="ecaron" unicode="&#x11b;" 
d="M451 702l-152 -153l-152 153l31 31l121 -124l121 124zM484 72l25 -31q-80 -53 -191 -53q-121 0 -190 73t-69 190q0 116 66.5 189.5t186.5 73.5q115 0 177 -58.5t62 -170.5q0 -34 -6 -66h-429q9 -85 62 -135t140 -51q91 -2 166 39zM116 255h379q2 20 2 40q0 175 -184 175
q-92 0 -143.5 -56.5t-53.5 -147.5v-11z" />
    <glyph glyph-name="Gbreve" unicode="&#x11e;" horiz-adv-x="790" 
d="M494 904l41 -2q-5 -54 -45 -90t-96 -36t-96 36t-45 90l40 2q5 -41 34 -66t67 -25t67 25t33 66zM701 375v-262q-96 -125 -279 -125q-162 0 -257 101t-95 261t94 261t258 101q166 0 262 -106l-36 -34q-88 89 -226 89q-135 0 -213.5 -85t-78.5 -226t78.5 -226.5t213.5 -85.5
q142 0 220 92v197h-220v48h279z" />
    <glyph glyph-name="gbreve" unicode="&#x11f;" 
d="M400 704l41 -2q-5 -54 -45 -90t-96 -36t-96 36t-45 90l40 2q5 -41 34 -66t67 -25t67 25t33 66zM208 50h92q40 1 71.5 -1.5t66.5 -12t58.5 -25.5t39 -45t15.5 -68q0 -40 -21.5 -71t-57.5 -48t-78.5 -25.5t-89.5 -8.5q-48 0 -91 8t-81 25t-60.5 48t-22.5 72q0 101 102 133
q-35 6 -55 25.5t-20 43.5t17 47t48 40q-69 48 -69 146q0 87 59.5 136t156.5 49q57 0 102 -18h156v-36l-112 -3q70 -41 70 -128q0 -90 -58 -137.5t-158 -47.5q-60 0 -104 20q-28 -12 -42.5 -29t-14.5 -35q0 -22 21.5 -37.5t59.5 -16.5zM288 472q-75 0 -119 -36.5t-44 -102.5
q0 -68 43.5 -104t119.5 -36t119.5 36.5t43.5 103t-44 103t-119 36.5zM289 7q-42 0 -72.5 -4.5t-57 -15.5t-40 -33.5t-13.5 -55.5q0 -54 53.5 -81.5t135.5 -27.5q86 0 142 27t56 82q0 29 -11 49t-28 31.5t-45 18t-54.5 8.5t-65.5 2z" />
    <glyph glyph-name="Gdotaccent" unicode="&#x120;" horiz-adv-x="790" 
d="M394 865q15 0 24 -9t9 -21.5t-9 -21.5t-24 -9t-24 9t-9 21.5t9 21.5t24 9zM701 375v-262q-96 -125 -279 -125q-162 0 -257 101t-95 261t94 261t258 101q166 0 262 -106l-36 -34q-88 89 -226 89q-135 0 -213.5 -85t-78.5 -226t78.5 -226.5t213.5 -85.5q142 0 220 92v197
h-220v48h279z" />
    <glyph glyph-name="gdotaccent" unicode="&#x121;" 
d="M300 665q15 0 24 -9t9 -21.5t-9 -21.5t-24 -9t-24 9t-9 21.5t9 21.5t24 9zM208 50h92q40 1 71.5 -1.5t66.5 -12t58.5 -25.5t39 -45t15.5 -68q0 -40 -21.5 -71t-57.5 -48t-78.5 -25.5t-89.5 -8.5q-48 0 -91 8t-81 25t-60.5 48t-22.5 72q0 101 102 133q-35 6 -55 25.5
t-20 43.5t17 47t48 40q-69 48 -69 146q0 87 59.5 136t156.5 49q57 0 102 -18h156v-36l-112 -3q70 -41 70 -128q0 -90 -58 -137.5t-158 -47.5q-60 0 -104 20q-28 -12 -42.5 -29t-14.5 -35q0 -22 21.5 -37.5t59.5 -16.5zM288 472q-75 0 -119 -36.5t-44 -102.5q0 -68 43.5 -104
t119.5 -36t119.5 36.5t43.5 103t-44 103t-119 36.5zM289 7q-42 0 -72.5 -4.5t-57 -15.5t-40 -33.5t-13.5 -55.5q0 -54 53.5 -81.5t135.5 -27.5q86 0 142 27t56 82q0 29 -11 49t-28 31.5t-45 18t-54.5 8.5t-65.5 2z" />
    <glyph glyph-name="Gcommaaccent" unicode="&#x122;" horiz-adv-x="790" 
d="M701 375v-262q-96 -125 -279 -125q-162 0 -257 101t-95 261t94 261t258 101q166 0 262 -106l-36 -34q-88 89 -226 89q-135 0 -213.5 -85t-78.5 -226t78.5 -226.5t213.5 -85.5q142 0 220 92v197h-220v48h279zM402 -160v5q-3 -1 -9 -1q-15 0 -24 8.5t-9 21.5t9 21.5t24 8.5
q19 0 27 -13q12 -14 12 -46q0 -26 -11 -40t-39 -14h-9l4 21h4q12 0 16 6t5 22z" />
    <glyph glyph-name="gcommaaccent" unicode="&#x123;" 
d="M319 731h-4q-13 0 -17 -5.5t-4 -21.5v-5q3 1 9 1q15 0 24 -9t9 -21.5t-9 -21.5t-24 -9q-19 0 -28 14q-11 14 -11 46q0 26 11 40t38 14h10zM208 50h92q40 1 71.5 -1.5t66.5 -12t58.5 -25.5t39 -45t15.5 -68q0 -40 -21.5 -71t-57.5 -48t-78.5 -25.5t-89.5 -8.5q-48 0 -91 8
t-81 25t-60.5 48t-22.5 72q0 101 102 133q-35 6 -55 25.5t-20 43.5t17 47t48 40q-69 48 -69 146q0 87 59.5 136t156.5 49q57 0 102 -18h156v-36l-112 -3q70 -41 70 -128q0 -90 -58 -137.5t-158 -47.5q-60 0 -104 20q-28 -12 -42.5 -29t-14.5 -35q0 -22 21.5 -37.5
t59.5 -16.5zM288 472q-75 0 -119 -36.5t-44 -102.5q0 -68 43.5 -104t119.5 -36t119.5 36.5t43.5 103t-44 103t-119 36.5zM289 7q-42 0 -72.5 -4.5t-57 -15.5t-40 -33.5t-13.5 -55.5q0 -54 53.5 -81.5t135.5 -27.5q86 0 142 27t56 82q0 29 -11 49t-28 31.5t-45 18t-54.5 8.5
t-65.5 2z" />
    <glyph glyph-name="Hbar" unicode="&#x126;" horiz-adv-x="749" 
d="M749 519h-98v-519h-59v325h-435v-325h-59v519h-98v50h98v131h59v-131h435v131h59v-131h98v-50zM592 519h-435v-144h435v144z" />
    <glyph glyph-name="hbar" unicode="&#x127;" horiz-adv-x="626" 
d="M151 602v-178q55 48 96 69t94 21q52 0 98.5 -20t78 -63.5t31.5 -102.5v-328h-57v318q0 70 -49.5 109.5t-116.5 39.5q-46 0 -83 -20t-92 -71v-376h-57v602h-99v45h99v91h57v-91h183v-45h-183z" />
    <glyph glyph-name="Itilde" unicode="&#x128;" horiz-adv-x="255" 
d="M25 815l-33 19q28 63 75 63q25 0 66 -22q42 -23 61 -23q24 0 39 34l34 -19q-23 -55 -68 -55q-26 0 -69 23q-40 22 -58 22q-27 0 -47 -42zM157 0h-59v700h59v-700z" />
    <glyph glyph-name="itilde" unicode="&#x129;" horiz-adv-x="229" 
d="M17 615l-33 19q28 63 75 63q26 0 66 -22q42 -23 61 -23q24 0 39 34l34 -19q-23 -55 -67 -55q-27 0 -70 23q-39 22 -57 22q-27 0 -48 -42zM148 0h-58v500h58v-500z" />
    <glyph glyph-name="Imacron" unicode="&#x12a;" horiz-adv-x="255" 
d="M277 876h-300v38h300v-38zM157 0h-59v700h59v-700z" />
    <glyph glyph-name="imacron" unicode="&#x12b;" horiz-adv-x="229" 
d="M269 676h-300v38h300v-38zM148 0h-58v500h58v-500z" />
    <glyph glyph-name="Iogonek" unicode="&#x12e;" horiz-adv-x="255" 
d="M157 700v-705q-51 -36 -76 -72.5t-25 -66.5q0 -27 19.5 -45t52.5 -18q36 0 77 22l18 -33q-55 -26 -104 -26q-71 0 -98 49q-11 20 -11 44q0 75 89 146l-1 5v700h59z" />
    <glyph glyph-name="iogonek" unicode="&#x12f;" horiz-adv-x="229" 
d="M119 665q15 0 24 -9t9 -21.5t-9 -21.5t-24 -9t-24 9t-9 21.5t9 21.5t24 9zM148 500v-505q-51 -36 -76 -72.5t-25 -66.5q0 -27 19.5 -45t52.5 -18q36 0 78 22l17 -33q-55 -26 -103 -26q-71 0 -99 49q-11 19 -11 43q0 75 89 147v5v500h58z" />
    <glyph glyph-name="Idotaccent" unicode="&#x130;" horiz-adv-x="255" 
d="M127 865q15 0 24 -9t9 -21.5t-9 -21.5t-24 -9t-24 9t-9 21.5t9 21.5t24 9zM157 0h-59v700h59v-700z" />
    <glyph glyph-name="dotlessi" unicode="&#x131;" horiz-adv-x="229" 
d="M148 0h-58v500h58v-500z" />
    <glyph glyph-name="IJ" unicode="&#x132;" horiz-adv-x="757" 
d="M157 0h-59v700h59v-700zM659 700v-429q0 -64 -12.5 -112.5t-41 -86.5t-79.5 -58t-123 -20q-58 0 -106 16l12 42q41 -10 94 -10q109 0 153 56.5t44 172.5v429h59z" />
    <glyph glyph-name="ij" unicode="&#x133;" horiz-adv-x="487" 
d="M125.5 683q14.5 0 24.5 -9.5t10 -23t-10 -23t-24.5 -9.5t-24.5 9.5t-10 23t10 23t24.5 9.5zM370.5 683q14.5 0 25 -9.5t10.5 -23t-10.5 -23t-25 -9.5t-24.5 9.5t-10 23t10 23t24.5 9.5zM154 0h-57v500h57v-500zM400 500v-519q0 -113 -72 -172q-62 -59 -159 -65v44
q82 9 128 61q45 48 45 132v519h58z" />
    <glyph glyph-name="Kcommaaccent" unicode="&#x136;" horiz-adv-x="645" 
d="M318 387l284 -387h-73l-249 341l-124 -149v-192h-58v700h58v-421l347 421h74zM328 -160l1 5q-3 -1 -10 -1q-15 0 -24 8.5t-9 21.5t9 21.5t24 8.5q19 0 28 -13q11 -14 11 -46q0 -26 -10.5 -40t-38.5 -14h-10l4 21h4q13 0 17 6t4 22z" />
    <glyph glyph-name="kcommaaccent" unicode="&#x137;" horiz-adv-x="545" 
d="M151 238l264 262h66l-195 -198l223 -302h-68l-190 261l-100 -97v-164h-57v737h57v-499zM277 -160v5q-2 -1 -9 -1q-15 0 -24 8.5t-9 21.5t9 21.5t24 8.5q19 0 28 -13q11 -14 11 -46q0 -26 -11 -40t-38 -14h-10l4 21h4q13 0 17 6t4 22z" />
    <glyph glyph-name="Lacute" unicode="&#x139;" horiz-adv-x="564" 
d="M383 892l-159 -133l-30 36l159 133zM157 48h365v-48h-424v700h59v-652z" />
    <glyph glyph-name="lacute" unicode="&#x13a;" horiz-adv-x="342" 
d="M218 930l-159 -134l-30 36l159 134zM151 738v-528q0 -86 38 -129q38 -42 115 -42v-44q-101 -3 -155 50q-55 55 -55 165v528h57z" />
    <glyph glyph-name="Lcommaaccent" unicode="&#x13b;" horiz-adv-x="564" 
d="M157 48h365v-48h-424v700h59v-652zM294 -160v5q-3 -1 -9 -1q-16 0 -24.5 8.5t-8.5 21.5t8.5 21.5t24.5 8.5q19 0 27 -13q11 -14 11 -46q0 -26 -10.5 -40t-38.5 -14h-9l3 21h5q12 0 16 6t5 22z" />
    <glyph glyph-name="lcommaaccent" unicode="&#x13c;" horiz-adv-x="342" 
d="M151 738v-528q0 -86 38 -129q38 -42 115 -42v-44q-101 -3 -155 50q-55 55 -55 165v528h57zM168 -160v5q-3 -1 -9 -1q-16 0 -24.5 8.5t-8.5 21.5t8.5 21.5t24.5 8.5q19 0 27 -13q11 -14 11 -46q0 -26 -10.5 -40t-38.5 -14h-9l3 21h5q12 0 16 6t5 22z" />
    <glyph glyph-name="Lcaron" unicode="&#x13d;" horiz-adv-x="564" 
d="M157 48h365v-48h-424v700h59v-652z" />
    <glyph glyph-name="lcaron" unicode="&#x13e;" horiz-adv-x="362" 
d="M274 703v6q-4 -1 -9 -1q-16 0 -24.5 9t-8.5 21.5t8.5 21t24.5 8.5q18 0 27 -13q11 -14 11 -46q0 -31 -10.5 -47t-38.5 -16h-10l4 25h4q13 0 17 7t5 25zM151 738v-528q0 -86 38 -129q38 -42 115 -42v-44q-101 -3 -155 50q-55 55 -55 165v528h57z" />
    <glyph glyph-name="Ldot" unicode="&#x13f;" horiz-adv-x="564" 
d="M157 48h365v-48h-424v700h59v-652zM402 396q15 0 24 -9t9 -21.5t-9 -21.5t-24 -9t-24 9t-9 21.5t9 21.5t24 9z" />
    <glyph glyph-name="ldot" unicode="&#x140;" horiz-adv-x="379" 
d="M151 738v-528q0 -86 38 -129q38 -42 115 -42v-44q-101 -3 -155 50q-55 55 -55 165v528h57zM320 396q15 0 24 -9t9 -21.5t-9 -21.5t-24 -9t-24 9t-9 21.5t9 21.5t24 9z" />
    <glyph glyph-name="Lslash" unicode="&#x141;" horiz-adv-x="569" 
d="M174 457l189 104l25 -44l-214 -117v-352h364v-48h-424v367l-69 -37l-25 43l94 52v275h60v-243z" />
    <glyph glyph-name="lslash" unicode="&#x142;" horiz-adv-x="431" 
d="M208 461l165 90l21 -37l-186 -102v-202q0 -78 32 -121q38 -50 121 -50v-44q-108 -3 -161 59q-49 55 -49 156v171l-97 -53l-21 37l118 65v308h57v-277z" />
    <glyph glyph-name="Nacute" unicode="&#x143;" horiz-adv-x="728" 
d="M462 892l-159 -133l-30 36l159 133zM639 0h-72l-419 601v-601h-59v700h72l419 -601v601h59v-700z" />
    <glyph glyph-name="nacute" unicode="&#x144;" horiz-adv-x="621" 
d="M413 692l-159 -133l-30 36l159 133zM137 500l2 -77q55 48 97 69.5t96 21.5q53 0 100.5 -20t79.5 -63.5t32 -102.5v-328h-57v318q0 70 -50 109.5t-118 39.5q-47 0 -84 -19.5t-92 -69.5v-378h-58v500h52z" />
    <glyph glyph-name="Ncommaaccent" unicode="&#x145;" horiz-adv-x="728" 
d="M639 0h-72l-419 601v-601h-59v700h72l419 -601v601h59v-700zM373 -160v5q-3 -1 -10 -1q-15 0 -24 8.5t-9 21.5t9 21.5t24 8.5q20 0 28 -13q11 -14 11 -46q0 -26 -10.5 -40t-38.5 -14h-10l4 21h4q13 0 17 6t5 22z" />
    <glyph glyph-name="ncommaaccent" unicode="&#x146;" horiz-adv-x="621" 
d="M137 500l2 -77q55 48 97 69.5t96 21.5q53 0 100.5 -20t79.5 -63.5t32 -102.5v-328h-57v318q0 70 -50 109.5t-118 39.5q-47 0 -84 -19.5t-92 -69.5v-378h-58v500h52zM324 -160v5q-3 -1 -10 -1q-15 0 -24 8.5t-9 21.5t9 21.5t24 8.5q20 0 28 -13q11 -14 11 -46
q0 -26 -10.5 -40t-38.5 -14h-10l4 21h4q13 0 17 6t5 22z" />
    <glyph glyph-name="Ncaron" unicode="&#x147;" horiz-adv-x="728" 
d="M516 902l-152 -153l-152 153l31 31l121 -124l122 124zM639 0h-72l-419 601v-601h-59v700h72l419 -601v601h59v-700z" />
    <glyph glyph-name="ncaron" unicode="&#x148;" horiz-adv-x="621" 
d="M467 702l-152 -153l-152 153l31 31l121 -124l122 124zM137 500l2 -77q55 48 97 69.5t96 21.5q53 0 100.5 -20t79.5 -63.5t32 -102.5v-328h-57v318q0 70 -50 109.5t-118 39.5q-47 0 -84 -19.5t-92 -69.5v-378h-58v500h52z" />
    <glyph glyph-name="Eng" unicode="&#x14a;" horiz-adv-x="728" 
d="M639 700v-652q0 -64 -12.5 -112.5t-41 -86.5t-79.5 -58t-123 -20q-63 0 -106 16l12 42q39 -10 94 -10q98 0 142.5 45t52.5 136h-11l-419 601v-601h-59v700h72l419 -600v600h59z" />
    <glyph glyph-name="eng" unicode="&#x14b;" horiz-adv-x="626" 
d="M137 500l2 -77q55 48 97 69.5t96 21.5q53 0 100.5 -20t79.5 -63.5t32 -102.5v-348q0 -112 -72 -171q-61 -59 -158 -65v44q81 9 128 61q45 48 45 132v337q0 70 -50 109.5t-118 39.5q-47 0 -84 -19.5t-92 -69.5v-378h-58v500h52z" />
    <glyph glyph-name="Omacron" unicode="&#x14c;" horiz-adv-x="844" 
d="M573 876h-300v38h300v-38zM421.5 712q163.5 0 258 -101t94.5 -261q0 -161 -93.5 -261.5t-258.5 -100.5q-162 0 -257 101t-95 261t94 261t257.5 101zM421.5 661q-136.5 0 -214 -85t-77.5 -226t78.5 -226.5t213.5 -85.5q138 0 215.5 85t77.5 227q0 141 -78.5 226t-215 85z
" />
    <glyph glyph-name="omacron" unicode="&#x14d;" horiz-adv-x="641" 
d="M471 676h-300v38h300v-38zM321 513q122 0 191.5 -72.5t69.5 -190.5t-68.5 -190.5t-192.5 -72.5q-123 0 -192.5 73.5t-69.5 189.5t69.5 189.5t192.5 73.5zM321 467q-95 0 -150 -59.5t-55 -157.5t55 -157.5t150 -59.5q96 0 150 58.5t54 158.5t-54.5 158.5t-149.5 58.5z" />
    <glyph glyph-name="Ohungarumlaut" unicode="&#x150;" horiz-adv-x="844" 
d="M427 897l-147 -148l-35 34l148 148zM619 897l-147 -148l-35 34l148 148zM421.5 712q163.5 0 258 -101t94.5 -261q0 -161 -93.5 -261.5t-258.5 -100.5q-162 0 -257 101t-95 261t94 261t257.5 101zM421.5 661q-136.5 0 -214 -85t-77.5 -226t78.5 -226t213.5 -85
q138 0 215.5 84.5t77.5 226.5q0 141 -78.5 226t-215 85z" />
    <glyph glyph-name="ohungarumlaut" unicode="&#x151;" horiz-adv-x="641" 
d="M325 697l-147 -148l-34 34l147 148zM517 697l-147 -148l-34 34l147 148zM321 513q122 0 191.5 -72.5t69.5 -190.5t-68.5 -190.5t-192.5 -72.5q-123 0 -192.5 73.5t-69.5 189.5t69.5 189.5t192.5 73.5zM320.5 467q-94.5 0 -149.5 -59.5t-55 -157.5t55 -157.5t150 -59.5
q96 0 150 58.5t54 158.5t-55 158.5t-149.5 58.5z" />
    <glyph glyph-name="OE" unicode="&#x152;" horiz-adv-x="1208" 
d="M715 0v182q-32 -90 -107.5 -142t-185.5 -52q-162 0 -257 101t-95 261t94 261t258 101q109 0 185 -52.5t108 -142.5v183h437v-50h-378v-264h346v-50h-346v-286h378v-50h-437zM421.5 661q-136.5 0 -214 -85t-77.5 -226t78.5 -226t213.5 -85q138 0 215.5 84.5t77.5 226.5
q0 141 -78.5 226t-215 85z" />
    <glyph glyph-name="oe" unicode="&#x153;" horiz-adv-x="1067" 
d="M950 72l25 -31q-80 -53 -191 -53q-88 0 -148 43t-82 118q-23 -76 -83 -119t-150 -43q-123 0 -192.5 73.5t-69.5 189.5t69.5 189.5t192.5 73.5q88 0 148.5 -42.5t83.5 -117.5q22 74 79.5 117.5t145.5 43.5q115 0 177 -58.5t62 -170.5q0 -34 -6 -66h-428q8 -85 61 -135
t140 -51q92 -2 166 39zM582 255h379q3 20 3 40q0 175 -185 175q-92 0 -143.5 -56.5t-53.5 -147.5v-11zM321 467q-95 0 -150 -59.5t-55 -157.5t55 -157.5t150 -59.5q96 0 150 58.5t54 158.5t-54.5 158.5t-149.5 58.5z" />
    <glyph glyph-name="Racute" unicode="&#x154;" horiz-adv-x="698" 
d="M446 892l-159 -133l-30 36l159 133zM98 700h288q103 0 162.5 -60t59.5 -158q0 -87 -45.5 -144t-128.5 -69l199 -269h-71l-190 263h-215v-263h-59v700zM157 651v-339h223q80 0 124 45.5t44 124.5q0 78 -44.5 123.5t-123.5 45.5h-223z" />
    <glyph glyph-name="racute" unicode="&#x155;" horiz-adv-x="359" 
d="M280 692l-159 -133l-30 36l159 133zM334 513v-47h-14q-50 0 -96.5 -25.5t-80.5 -77.5v-363h-58v500h52l2 -88q36 49 85 75t103 26h7z" />
    <glyph glyph-name="Rcommaaccent" unicode="&#x156;" horiz-adv-x="698" 
d="M98 700h288q103 0 162.5 -60t59.5 -158q0 -87 -45.5 -144t-128.5 -69l199 -269h-71l-190 263h-215v-263h-59v700zM157 651v-339h223q80 0 124 45.5t44 124.5q0 78 -44.5 123.5t-123.5 45.5h-223zM357 -160v5q-3 -1 -9 -1q-15 0 -24 8.5t-9 21.5t9 21.5t24 8.5
q19 0 28 -13q11 -14 11 -46q0 -26 -11 -40t-39 -14h-9l4 21h4q12 0 16.5 6t4.5 22z" />
    <glyph glyph-name="rcommaaccent" unicode="&#x157;" horiz-adv-x="359" 
d="M334 513v-47h-14q-50 0 -96.5 -25.5t-80.5 -77.5v-363h-58v500h52l2 -88q36 49 85 75t103 26h7zM191 -160v5q-3 -1 -10 -1q-15 0 -24 8.5t-9 21.5t9 21.5t24 8.5q20 0 28 -13q11 -14 11 -46q0 -26 -10.5 -40t-38.5 -14h-10l4 21h4q13 0 17 6t5 22z" />
    <glyph glyph-name="Rcaron" unicode="&#x158;" horiz-adv-x="698" 
d="M501 902l-152 -153l-152 153l31 31l121 -124l121 124zM98 700h288q103 0 162.5 -60t59.5 -158q0 -87 -45.5 -144t-128.5 -69l199 -269h-71l-190 263h-215v-263h-59v700zM157 651v-339h223q80 0 124 45.5t44 124.5q0 78 -44.5 123.5t-123.5 45.5h-223z" />
    <glyph glyph-name="rcaron" unicode="&#x159;" horiz-adv-x="359" 
d="M334 702l-152 -153l-152 153l31 31l121 -124l122 124zM334 513v-47h-14q-50 0 -96.5 -25.5t-80.5 -77.5v-363h-58v500h52l2 -88q36 49 85 75t103 26h7z" />
    <glyph glyph-name="Sacute" unicode="&#x15a;" horiz-adv-x="684" 
d="M439 892l-160 -133l-30 36l160 133zM49 84l36 40q39 -39 109.5 -62.5t147.5 -23.5q59 0 107.5 14.5t81.5 47.5t33 81q0 20 -3.5 36.5t-13 29.5t-18.5 23t-27.5 18t-31 13t-37.5 11t-39.5 8.5t-44.5 8.5q-22 4 -34 6q-43 8 -72.5 15.5t-63 21.5t-54 32t-34 47t-13.5 67
q0 63 42.5 108.5t106 65.5t139.5 20q136 0 231 -57l-35 -43q-83 52 -202 52q-60 0 -109 -15.5t-80.5 -48.5t-31.5 -79q0 -28 11.5 -49.5t27.5 -35t44.5 -24t51 -16t58.5 -12.5q8 -2 25 -5q31 -5 47 -8.5t44 -10t42.5 -11.5t37 -14.5t34 -19t26.5 -23t22 -29.5t12 -36.5
t5 -44.5q0 -64 -42.5 -109.5t-105.5 -65t-139 -19.5q-85 0 -165.5 25.5t-125.5 70.5z" />
    <glyph glyph-name="sacute" unicode="&#x15b;" horiz-adv-x="502" 
d="M348 692l-159 -133l-30 36l159 133zM39 59l20 37q28 -27 81 -44t108 -17q66 0 109 24.5t43 73.5q0 22 -8 38.5t-18.5 26t-33 17t-37.5 11t-46 8.5q-13 3 -19 4q-35 6 -57 11.5t-47.5 15.5t-39.5 23t-23.5 34t-9.5 49q0 46 30.5 78.5t76 47t100.5 14.5q101 0 170 -43
l-18 -38q-64 37 -153 37q-63 0 -106.5 -25t-43.5 -70q0 -19 7 -33t16.5 -23t27 -16t32.5 -10.5t39 -8.5q7 -1 22 -4q30 -5 44.5 -8t39.5 -9.5t37.5 -12.5t29.5 -17t25 -24t14 -32t6 -42q0 -46 -31 -79t-77 -47.5t-99 -14.5q-62 0 -120 18.5t-91 49.5z" />
    <glyph glyph-name="Scedilla" unicode="&#x15e;" horiz-adv-x="684" 
d="M49 84l36 40q39 -39 109.5 -62.5t147.5 -23.5q59 0 108 14.5t81.5 47.5t32.5 81q0 20 -3.5 36.5t-13 29.5t-18.5 23t-27.5 18t-31 13t-37.5 11t-39.5 8.5t-44.5 8.5q-22 4 -34 6q-43 8 -72.5 15.5t-63 21.5t-54 32t-34 47t-13.5 67q0 63 42.5 108.5t106 65.5t139.5 20
q136 0 231 -57l-35 -43q-83 52 -202 52q-60 0 -109 -15.5t-80.5 -48.5t-31.5 -79q0 -28 11.5 -49.5t27.5 -35t44.5 -24t51 -16t58.5 -12.5q8 -2 25 -5q31 -5 47 -8.5t44 -10t42.5 -11.5t37 -14.5t34.5 -19t26.5 -23t21.5 -29.5t12 -36.5t5 -44.5q0 -61 -38.5 -105
t-96.5 -64.5t-129 -23.5l-32 -50q12 2 19 2q44 -2 70.5 -24.5t26.5 -62.5q0 -44 -31.5 -69t-80.5 -25q-67 0 -95 41l24 22q20 -28 67 -28q33 0 53 16t20 45q0 28 -20 44.5t-55 16.5q-18 0 -30 -4l-17 10l40 66q-81 2 -156 27.5t-117 67.5z" />
    <glyph glyph-name="scedilla" unicode="&#x15f;" horiz-adv-x="502" 
d="M39 59l20 37q28 -27 81 -44t108 -17q66 0 109 24.5t43 73.5q0 22 -8 38.5t-18.5 26t-33 17t-37.5 11t-46 8.5q-13 3 -19 4q-35 6 -56.5 11.5t-47.5 15.5t-40 23t-23.5 34t-9.5 49q0 46 30.5 78.5t76 47t100.5 14.5q101 0 170 -43l-18 -38q-64 37 -153 37
q-63 0 -106.5 -25t-43.5 -70q0 -19 7 -33t16.5 -23t27 -16t32.5 -10.5t39 -8.5q7 -1 22 -4q30 -5 44.5 -8t39.5 -9.5t37.5 -12.5t29.5 -17t25 -24t14 -32t6 -42q0 -63 -53 -98.5t-130 -41.5l-33 -51q3 0 8.5 0.5t8.5 0.5q45 -1 72 -23.5t27 -63.5q0 -44 -32 -69t-81 -25
q-67 0 -95 41l25 22q19 -28 67 -28q33 0 52.5 16t19.5 45t-20 45.5t-54 16.5q-15 0 -31 -5l-16 10l41 68q-57 2 -110.5 20t-83.5 47z" />
    <glyph glyph-name="Scaron" unicode="&#x160;" horiz-adv-x="684" 
d="M493 902l-152 -153l-152 153l31 31l121 -124l121 124zM49 84l36 40q39 -39 109.5 -62.5t147.5 -23.5q59 0 107.5 14.5t81.5 47.5t33 81q0 20 -3.5 36.5t-13 29.5t-18.5 23t-27.5 18t-31 13t-37.5 11t-39.5 8.5t-44.5 8.5q-22 4 -34 6q-43 8 -72.5 15.5t-63 21.5t-54 32
t-34 47t-13.5 67q0 63 42.5 108.5t106 65.5t139.5 20q136 0 231 -57l-35 -43q-83 52 -202 52q-60 0 -109 -15.5t-80.5 -48.5t-31.5 -79q0 -28 11.5 -49.5t27.5 -35t44.5 -24t51 -16t58.5 -12.5q8 -2 25 -5q31 -5 47 -8.5t44 -10t42.5 -11.5t37 -14.5t34 -19t26.5 -23
t22 -29.5t12 -36.5t5 -44.5q0 -64 -42.5 -109.5t-105.5 -65t-139 -19.5q-85 0 -165.5 25.5t-125.5 70.5z" />
    <glyph glyph-name="scaron" unicode="&#x161;" horiz-adv-x="502" 
d="M403 702l-152 -153l-152 153l30 31l122 -124l121 124zM39 59l20 37q28 -27 81 -44t108 -17q66 0 109 24.5t43 73.5q0 22 -8 38.5t-18.5 26t-33 17t-37.5 11t-46 8.5q-13 3 -19 4q-35 6 -57 11.5t-47.5 15.5t-39.5 23t-23.5 34t-9.5 49q0 46 30.5 78.5t76 47t100.5 14.5
q101 0 170 -43l-18 -38q-65 37 -153 37q-63 0 -106.5 -25t-43.5 -70q0 -19 7 -33t16.5 -23t27 -16t32.5 -10.5t39 -8.5q7 -1 22 -4q30 -5 44.5 -8t39.5 -9.5t37.5 -12.5t29.5 -17t25 -24t14 -32t6 -42q0 -46 -31 -79t-77 -47.5t-99 -14.5q-62 0 -120 18.5t-91 49.5z" />
    <glyph glyph-name="Tcedilla" unicode="&#x162;" horiz-adv-x="666" 
d="M623 650h-260v-653l-11 -1l-36 -57q12 2 19 2q43 -2 70 -24.5t27 -62.5q0 -44 -32 -69t-81 -25q-67 0 -95 41l25 22q19 -28 67 -28q33 0 52.5 16t19.5 45q0 28 -20 44.5t-54 16.5q-18 0 -31 -4l-16 10l46 76l-10 1v650h-260v50h580v-50z" />
    <glyph glyph-name="tcedilla" unicode="&#x163;" horiz-adv-x="397" 
d="M182 500h152v-44h-152v-249q0 -73 40 -117q39 -44 115 -52v-44q-57 5 -99 27l-33 -52q6 1 19 1q43 -1 70 -23.5t27 -62.5q0 -44 -32 -69.5t-81 -25.5q-67 0 -95 41l25 22q20 -28 67 -28q33 0 53 16t20 45t-20.5 45.5t-54.5 16.5q-15 0 -30 -5l-17 10l48 82q-14 10 -25 21
q-54 56 -54 152v249h-101v44h101v146h57v-146z" />
    <glyph glyph-name="Tcaron" unicode="&#x164;" horiz-adv-x="666" 
d="M485 902l-152 -153l-152 153l31 31l121 -124l122 124zM623 650h-260v-650h-60v650h-260v50h580v-50z" />
    <glyph glyph-name="tcaron" unicode="&#x165;" horiz-adv-x="394" 
d="M305 703v6q-4 -1 -9 -1q-15 0 -24 9t-9 21.5t8.5 21t24.5 8.5q18 0 27 -13q11 -14 11 -46q0 -31 -10.5 -47t-38.5 -16h-9l3 25h5q12 0 16 7t5 25zM182 500h152v-44h-152v-249q0 -74 40 -117q39 -44 115 -52v-44q-100 6 -154 59q-58 56 -58 154v249h-101v44h101v146h57
v-146z" />
    <glyph glyph-name="Tbar" unicode="&#x166;" horiz-adv-x="666" 
d="M363 650v-230h121v-38h-121v-382h-60v382h-119v38h119v230h-260v50h580v-50h-260z" />
    <glyph glyph-name="tbar" unicode="&#x167;" horiz-adv-x="397" 
d="M182 295v-88q0 -73 40 -117q39 -44 115 -52v-44q-100 6 -154 59q-58 56 -58 154v88h-99v37h99v124h-101v44h101v146h57v-146h152v-44h-152v-124h149v-37h-149z" />
    <glyph glyph-name="Utilde" unicode="&#x168;" horiz-adv-x="745" 
d="M271 815l-34 19q29 63 75 63q26 0 66 -22q42 -23 61 -23q25 0 39 34l34 -19q-23 -55 -67 -55q-26 0 -69 23q-40 22 -58 22q-27 0 -47 -42zM656 700v-382q0 -77 -13.5 -135t-44.5 -103.5t-86.5 -69t-134.5 -23.5q-78 0 -133.5 23t-87 68t-45 103.5t-13.5 136.5v382h59
v-378q0 -143 49.5 -212t170.5 -69t170.5 70t49.5 211v378h59z" />
    <glyph glyph-name="utilde" unicode="&#x169;" horiz-adv-x="612" 
d="M206 615l-33 19q28 63 75 63q26 0 66 -22q42 -23 61 -23q24 0 39 34l34 -19q-23 -55 -67 -55q-27 0 -69 23q-40 22 -58 22q-27 0 -48 -42zM536 0h-52l-2 77q-56 -49 -97.5 -70t-95.5 -21q-53 0 -100.5 19.5t-80 63.5t-32.5 103v328h58v-318q0 -70 50 -109.5t118 -39.5
q47 0 84 19.5t92 69.5v378h58v-500z" />
    <glyph glyph-name="Umacron" unicode="&#x16a;" horiz-adv-x="745" 
d="M523 876h-301v38h301v-38zM656 700v-382q0 -77 -13.5 -135t-44.5 -103.5t-86.5 -69t-134.5 -23.5q-78 0 -133.5 23t-87 68t-45 103.5t-13.5 136.5v382h59v-378q0 -143 49.5 -212t170.5 -69t170.5 70t49.5 211v378h59z" />
    <glyph glyph-name="umacron" unicode="&#x16b;" horiz-adv-x="612" 
d="M458 676h-300v38h300v-38zM536 0h-52l-2 77q-56 -49 -97.5 -70t-95.5 -21q-53 0 -100.5 19.5t-80 63.5t-32.5 103v328h58v-318q0 -70 50 -109.5t118 -39.5q47 0 84 19.5t92 69.5v378h58v-500z" />
    <glyph glyph-name="Uring" unicode="&#x16e;" horiz-adv-x="745" 
d="M373 961q46 0 78 -31.5t32 -75t-32 -75t-78 -31.5t-78.5 31.5t-32.5 75t32.5 75t78.5 31.5zM372.5 929q-29.5 0 -52 -21.5t-22.5 -53t22.5 -53t52 -21.5t52 21.5t22.5 53t-22.5 53t-52 21.5zM656 700v-382q0 -77 -13.5 -135t-44.5 -103.5t-86.5 -69t-134.5 -23.5
q-78 0 -133.5 23t-87 68t-45 103.5t-13.5 136.5v382h59v-378q0 -143 49.5 -212t170.5 -69t170.5 70t49.5 211v378h59z" />
    <glyph glyph-name="uring" unicode="&#x16f;" horiz-adv-x="612" 
d="M308 761q46 0 78.5 -31.5t32.5 -75t-32.5 -75t-78.5 -31.5t-78 31.5t-32 75t32 75t78 31.5zM308.5 729q-29.5 0 -52 -21.5t-22.5 -53t22.5 -53t52 -21.5t52 21.5t22.5 53t-22.5 53t-52 21.5zM536 0h-52l-2 77q-56 -49 -97.5 -70t-95.5 -21q-53 0 -100.5 19.5t-80 63.5
t-32.5 103v328h58v-318q0 -70 50 -109.5t118 -39.5q47 0 84 19.5t92 69.5v378h58v-500z" />
    <glyph glyph-name="Uhungarumlaut" unicode="&#x170;" horiz-adv-x="745" 
d="M377 897l-147 -148l-35 34l148 148zM569 897l-147 -148l-35 34l147 148zM656 700v-382q0 -77 -13.5 -135t-44.5 -103.5t-86.5 -69t-134.5 -23.5q-78 0 -133.5 23t-87 68t-45 103.5t-13.5 136.5v382h59v-378q0 -143 49.5 -212t170.5 -69t170.5 70t49.5 211v378h59z" />
    <glyph glyph-name="uhungarumlaut" unicode="&#x171;" horiz-adv-x="612" 
d="M313 697l-148 -148l-34 34l147 148zM504 697l-147 -148l-34 34l147 148zM536 0h-52l-2 77q-56 -49 -97.5 -70t-95.5 -21q-53 0 -100.5 19.5t-80 63.5t-32.5 103v328h58v-318q0 -70 50 -109.5t118 -39.5q47 0 84 19.5t92 69.5v378h58v-500z" />
    <glyph glyph-name="Uogonek" unicode="&#x172;" horiz-adv-x="745" 
d="M656 700v-383q0 -126 -38.5 -206t-129.5 -108q-49 -34 -72.5 -69t-23.5 -65q0 -16 7 -29q18 -34 66 -34q36 0 77 21l17 -33q-54 -26 -102 -26q-72 0 -99 49q-12 21 -12 45q0 66 71 128q-23 -2 -43 -2q-78 0 -132.5 23t-85.5 68t-44.5 103t-13.5 136v382h59v-378
q0 -143 49.5 -212t170.5 -69t170.5 70t49.5 211v378h59z" />
    <glyph glyph-name="uogonek" unicode="&#x173;" horiz-adv-x="612" 
d="M536 500v-505q-51 -36 -76 -72.5t-25 -66.5q0 -27 19.5 -45t52.5 -18q36 0 78 22l17 -33q-55 -26 -103 -26q-71 0 -99 49q-11 20 -11 45q0 78 95 150l-2 77q-56 -49 -97.5 -70t-95.5 -21q-53 0 -100.5 19.5t-80 63t-32.5 103.5v328h58v-318q0 -70 50 -109.5t118 -39.5
q47 0 84 19.5t92 69.5v378h58z" />
    <glyph glyph-name="Wcircumflex" unicode="&#x174;" horiz-adv-x="1091" 
d="M699 785l-31 -31l-121 124l-121 -124l-31 31l152 153zM578 700l199 -611l206 611h65l-242 -700h-62l-199 604l-199 -604h-61l-242 700h65l206 -611l199 611h65z" />
    <glyph glyph-name="wcircumflex" unicode="&#x175;" horiz-adv-x="815" 
d="M559 585l-30 -31l-122 124l-121 -124l-31 31l152 153zM607 0h-61l-139 416l-138 -416h-61l-183 500h59l154 -432l142 432h54l143 -432l154 432h59z" />
    <glyph glyph-name="Ycircumflex" unicode="&#x176;" horiz-adv-x="690" 
d="M497 785l-31 -31l-121 124l-122 -124l-30 31l152 153zM375 279v-279h-60v279l-272 421h69l233 -366l234 366h68z" />
    <glyph glyph-name="ycircumflex" unicode="&#x177;" horiz-adv-x="546" 
d="M424 585l-31 -31l-121 124l-122 -124l-30 31l152 153zM521 500l-242 -598q-31 -77 -94 -115q-59 -35 -145 -35v44q73 0 123 32q47 32 72 92l31 80h-11l-205 500h59l178 -443l175 443h59z" />
    <glyph glyph-name="Ydieresis" unicode="&#x178;" horiz-adv-x="690" 
d="M248 865q15 0 24 -9t9 -21.5t-9 -21.5t-24 -9t-24 9t-9 21.5t9 21.5t24 9zM441 865q15 0 24 -9t9 -21.5t-9 -21.5t-24 -9t-24 9t-9 21.5t9 21.5t24 9zM375 279v-279h-60v279l-272 421h69l233 -366l234 366h68z" />
    <glyph glyph-name="Zacute" unicode="&#x179;" horiz-adv-x="640" 
d="M420 892l-159 -133l-30 36l159 133zM584 665l-455 -615h462v-50h-542v35l454 615h-419v50h500v-35z" />
    <glyph glyph-name="zacute" unicode="&#x17a;" horiz-adv-x="473" 
d="M333 692l-159 -133l-30 36l159 133zM424 475l-308 -431h314v-44h-389v26l308 430h-292v44h367v-25z" />
    <glyph glyph-name="Zdotaccent" unicode="&#x17b;" horiz-adv-x="640" 
d="M323 865q15 0 24 -9t9 -21.5t-9 -21.5t-24 -9t-24 9t-9 21.5t9 21.5t24 9zM584 665l-455 -615h462v-50h-542v35l454 615h-419v50h500v-35z" />
    <glyph glyph-name="zdotaccent" unicode="&#x17c;" horiz-adv-x="473" 
d="M235.5 665q15.5 0 24 -9t8.5 -21.5t-8.5 -21.5t-24 -9t-24 9t-8.5 21.5t8.5 21.5t24 9zM424 475l-308 -431h314v-44h-389v26l308 430h-292v44h367v-25z" />
    <glyph glyph-name="Zcaron" unicode="&#x17d;" horiz-adv-x="640" 
d="M475 902l-152 -153l-152 153l30 31l122 -124l121 124zM584 665l-455 -615h462v-50h-542v35l454 615h-419v50h500v-35z" />
    <glyph glyph-name="zcaron" unicode="&#x17e;" horiz-adv-x="473" 
d="M388 702l-152 -153l-152 153l30 31l122 -124l121 124zM424 475l-308 -431h314v-44h-389v26l308 430h-292v44h367v-25z" />
    <glyph glyph-name="florin" unicode="&#x192;" horiz-adv-x="387" 
d="M387 748v-44q-95 0 -150 -49q-58 -50 -58 -155v-64h166v-44h-166v-412q0 -95 -55 -148q-35 -44 -94 -67v48q38 19 62 57q30 41 30 111v411h-92v44h92v64q0 129 79 192q71 59 186 56z" />
    <glyph glyph-name="Acaron" unicode="&#x1cd;" horiz-adv-x="731" 
d="M516 902l-152 -153l-152 153l31 31l121 -124l121 124zM688 0h-62l-80 193h-361l-80 -193h-62l291 700h63zM203 243h325l-162 393z" />
    <glyph glyph-name="acaron" unicode="&#x1ce;" horiz-adv-x="580" 
d="M444 702l-152 -153l-152 153l31 31l121 -124l122 124zM111 427l-16 37q90 49 186 49q57 0 106.5 -19.5t82.5 -63t33 -102.5v-328h-51l-3 75q-76 -87 -200 -87q-81 0 -138 43t-57 121q0 55 31.5 93.5t78.5 55t104 16.5q101 0 178 -44v56q-1 66 -53 104t-121 38
q-83 0 -161 -44zM446 116v117q-70 46 -168 46q-73 0 -121.5 -31.5t-48.5 -92.5q0 -59 44.5 -91.5t110.5 -32.5q115 0 183 85z" />
    <glyph glyph-name="Icaron" unicode="&#x1cf;" horiz-adv-x="255" 
d="M279 902l-152 -153l-152 153l30 31l122 -124l121 124zM157 0h-59v700h59v-700z" />
    <glyph glyph-name="icaron" unicode="&#x1d0;" horiz-adv-x="229" 
d="M271 702l-152 -153l-152 153l31 31l121 -124l121 124zM148 0h-58v500h58v-500z" />
    <glyph glyph-name="Ocaron" unicode="&#x1d1;" horiz-adv-x="844" 
d="M574 902l-152 -153l-152 153l31 31l121 -124l122 124zM421.5 712q163.5 0 258 -101t94.5 -261q0 -161 -93.5 -261.5t-258.5 -100.5q-162 0 -257 101t-95 261t94 261t257.5 101zM421.5 661q-136.5 0 -214 -85t-77.5 -226t78.5 -226.5t213.5 -85.5q138 0 215.5 85t77.5 227
q0 141 -78.5 226t-215 85z" />
    <glyph glyph-name="ocaron" unicode="&#x1d2;" horiz-adv-x="641" 
d="M473 702l-152 -153l-152 153l30 31l122 -124l121 124zM321 513q122 0 191.5 -72.5t69.5 -190.5t-68.5 -190.5t-192.5 -72.5q-123 0 -192.5 73.5t-69.5 189.5t69.5 189.5t192.5 73.5zM321 467q-95 0 -150 -59.5t-55 -157.5t55 -157.5t150 -59.5q96 0 150 58.5t54 158.5
t-54.5 158.5t-149.5 58.5z" />
    <glyph glyph-name="Ucaron" unicode="&#x1d3;" horiz-adv-x="745" 
d="M524 902l-152 -153l-152 153l31 31l121 -124l121 124zM656 700v-382q0 -77 -13.5 -135t-44.5 -103.5t-86.5 -69t-134.5 -23.5q-78 0 -133.5 23t-87 68t-45 103.5t-13.5 136.5v382h59v-378q0 -143 49.5 -212t170.5 -69t170.5 70t49.5 211v378h59z" />
    <glyph glyph-name="ucaron" unicode="&#x1d4;" horiz-adv-x="612" 
d="M460 702l-152 -153l-152 153l31 31l121 -124l121 124zM536 0h-52l-2 77q-56 -49 -97.5 -70t-95.5 -21q-53 0 -100.5 19.5t-80 63.5t-32.5 103v328h58v-318q0 -70 50 -109.5t118 -39.5q47 0 84 19.5t92 69.5v378h58v-500z" />
    <glyph glyph-name="Udieresismacron" unicode="&#x1d5;" horiz-adv-x="745" 
d="M523 909h-301v38h301v-38zM276 844q15 0 24 -8.5t9 -21t-9 -21.5t-24 -9t-24 9t-9 21.5t9 21t24 8.5zM469 844q15 0 24 -8.5t9 -21t-9 -21.5t-24 -9t-24 9t-9 21.5t9 21t24 8.5zM656 700v-382q0 -77 -13.5 -135t-44.5 -103.5t-86.5 -69t-134.5 -23.5q-78 0 -133.5 23
t-87 68t-45 103.5t-13.5 136.5v382h59v-378q0 -143 49.5 -212t170.5 -69t170.5 70t49.5 211v378h59z" />
    <glyph glyph-name="udieresismacron" unicode="&#x1d6;" horiz-adv-x="612" 
d="M458 725h-300v38h300v-38zM211.5 665q15.5 0 24 -9t8.5 -21.5t-9 -21.5t-24 -9t-24 9t-9 21.5t9 21.5t24.5 9zM405 665q15 0 24 -9t9 -21.5t-9 -21.5t-24 -9t-24 9t-9 21.5t9 21.5t24 9zM536 0h-52l-2 77q-56 -49 -97.5 -70t-95.5 -21q-53 0 -100.5 19.5t-80 63.5
t-32.5 103v328h58v-318q0 -70 50 -109.5t118 -39.5q47 0 84 19.5t92 69.5v378h58v-500z" />
    <glyph glyph-name="Udieresisacute" unicode="&#x1d7;" horiz-adv-x="745" 
d="M470 1028l-159 -133l-30 36l159 133zM276 844q15 0 24 -8.5t9 -21t-9 -21.5t-24 -9t-24 9t-9 21.5t9 21t24 8.5zM469 844q15 0 24 -8.5t9 -21t-9 -21.5t-24 -9t-24 9t-9 21.5t9 21t24 8.5zM656 700v-382q0 -77 -13.5 -135t-44.5 -103.5t-86.5 -69t-134.5 -23.5
q-78 0 -133.5 23t-87 68t-45 103.5t-13.5 136.5v382h59v-378q0 -143 49.5 -212t170.5 -69t170.5 70t49.5 211v378h59z" />
    <glyph glyph-name="udieresisacute" unicode="&#x1d8;" horiz-adv-x="612" 
d="M405 838l-159 -134l-30 36l159 134zM211.5 665q15.5 0 24 -9t8.5 -21.5t-9 -21.5t-24 -9t-24 9t-9 21.5t9 21.5t24.5 9zM405 665q15 0 24 -9t9 -21.5t-9 -21.5t-24 -9t-24 9t-9 21.5t9 21.5t24 9zM536 0h-52l-2 77q-56 -49 -97.5 -70t-95.5 -21q-53 0 -100.5 19.5
t-80 63.5t-32.5 103v328h58v-318q0 -70 50 -109.5t118 -39.5q47 0 84 19.5t92 69.5v378h58v-500z" />
    <glyph glyph-name="Udieresiscaron" unicode="&#x1d9;" horiz-adv-x="745" 
d="M524 1028l-152 -153l-152 153l31 31l121 -124l121 124zM276 844q15 0 24 -8.5t9 -21t-9 -21.5t-24 -9t-24 9t-9 21.5t9 21t24 8.5zM469 844q15 0 24 -8.5t9 -21t-9 -21.5t-24 -9t-24 9t-9 21.5t9 21t24 8.5zM656 700v-382q0 -77 -13.5 -135t-44.5 -103.5t-86.5 -69
t-134.5 -23.5q-78 0 -133.5 23t-87 68t-45 103.5t-13.5 136.5v382h59v-378q0 -143 49.5 -212t170.5 -69t170.5 70t49.5 211v378h59z" />
    <glyph glyph-name="udieresiscaron" unicode="&#x1da;" horiz-adv-x="612" 
d="M460 840l-152 -153l-152 153l31 31l121 -124l121 124zM211.5 665q15.5 0 24 -9t8.5 -21.5t-9 -21.5t-24 -9t-23.5 9t-8.5 21.5t8.5 21.5t24 9zM405 665q15 0 24 -9t9 -21.5t-9 -21.5t-24 -9t-24 9t-9 21.5t9 21.5t24 9zM536 0h-52l-2 77q-56 -49 -97.5 -70t-95.5 -21
q-53 0 -100.5 19.5t-80 63.5t-32.5 103v328h58v-318q0 -70 50 -109.5t118 -39.5q47 0 84 19.5t92 69.5v378h58v-500z" />
    <glyph glyph-name="Udieresisgrave" unicode="&#x1db;" horiz-adv-x="745" 
d="M468 931l-31 -36l-159 133l30 36zM276 844q15 0 24 -8.5t9 -21t-9 -21.5t-24 -9t-24 9t-9 21.5t9 21t24 8.5zM469 844q15 0 24 -8.5t9 -21t-9 -21.5t-24 -9t-24 9t-9 21.5t9 21t24 8.5zM656 700v-382q0 -77 -13.5 -135t-44.5 -103.5t-86.5 -69t-134.5 -23.5
q-78 0 -133.5 23t-87 68t-45 103.5t-13.5 136.5v382h59v-378q0 -143 49.5 -212t170.5 -69t170.5 70t49.5 211v378h59z" />
    <glyph glyph-name="udieresisgrave" unicode="&#x1dc;" horiz-adv-x="612" 
d="M403 736l-30 -36l-159 134l30 35zM211.5 665q15.5 0 24 -9t8.5 -21.5t-9 -21.5t-24 -9t-24 9t-9 21.5t9 21.5t24.5 9zM405 665q15 0 24 -9t9 -21.5t-9 -21.5t-24 -9t-24 9t-9 21.5t9 21.5t24 9zM536 0h-52l-2 77q-56 -49 -97.5 -70t-95.5 -21q-53 0 -100.5 19.5t-80 63.5
t-32.5 103v328h58v-318q0 -70 50 -109.5t118 -39.5q47 0 84 19.5t92 69.5v378h58v-500z" />
    <glyph glyph-name="Adieresismacron" unicode="&#x1de;" horiz-adv-x="731" 
d="M514 912h-300v38h300v-38zM267.5 865q15.5 0 24.5 -9t9 -21.5t-9 -21.5t-24 -9t-24 9t-9 21.5t8.5 21.5t24 9zM461 865q15 0 24 -9t9 -21.5t-9 -21.5t-24 -9t-24 9t-9 21.5t9 21.5t24 9zM688 0h-62l-80 193h-361l-80 -193h-62l291 700h63zM203 243h325l-162 393z" />
    <glyph glyph-name="adieresismacron" unicode="&#x1df;" horiz-adv-x="580" 
d="M443 725h-300v38h300v-38zM196 665q15 0 24 -9t9 -21.5t-9 -21.5t-24 -9t-24 9t-9 21.5t9 21.5t24 9zM389 665q15 0 24 -9t9 -21.5t-9 -21.5t-24 -9t-24 9t-9 21.5t9 21.5t24 9zM111 427l-16 37q90 49 186 49q57 0 106.5 -19.5t82.5 -63t33 -102.5v-328h-51l-3 75
q-76 -87 -200 -87q-81 0 -138 43t-57 121q0 55 31.5 93.5t78.5 55t104 16.5q101 0 178 -44v56q-1 66 -53 104t-121 38q-83 0 -161 -44zM446 116v117q-70 46 -168 46q-73 0 -121.5 -31.5t-48.5 -92.5q0 -59 44.5 -91.5t110.5 -32.5q115 0 183 85z" />
    <glyph glyph-name="Gcaron" unicode="&#x1e6;" horiz-adv-x="790" 
d="M546 902l-152 -153l-152 153l30 31l122 -124l121 124zM701 375v-262q-96 -125 -279 -125q-162 0 -257 101t-95 261t94 261t258 101q166 0 262 -106l-36 -34q-88 89 -226 89q-135 0 -213.5 -85t-78.5 -226t78.5 -226.5t213.5 -85.5q142 0 220 92v197h-220v48h279z" />
    <glyph glyph-name="gcaron" unicode="&#x1e7;" 
d="M452 702l-152 -153l-152 153l31 31l121 -124l121 124zM208 50h92q40 1 71.5 -1.5t66.5 -12t58.5 -25.5t39 -45t15.5 -68q0 -40 -21.5 -71t-57.5 -48t-78.5 -25.5t-89.5 -8.5q-48 0 -91 8t-81 25t-60.5 48t-22.5 72q0 101 102 133q-35 6 -55 25.5t-20 43.5t17 47t48 40
q-69 48 -69 146q0 87 59.5 135.5t156.5 48.5q57 0 102 -17h156v-36l-112 -3q70 -41 70 -128q0 -90 -58 -137.5t-158 -47.5q-60 0 -104 20q-28 -12 -42.5 -29t-14.5 -35q0 -22 21.5 -37.5t59.5 -16.5zM288 472q-75 0 -119 -36.5t-44 -102.5q0 -68 43.5 -104t119.5 -36
t119.5 36.5t43.5 103t-44 103t-119 36.5zM289 7q-42 0 -72.5 -4.5t-57 -15.5t-40 -33.5t-13.5 -55.5q0 -54 53.5 -81.5t135.5 -27.5q86 0 142 27t56 82q0 29 -11 49t-28 31.5t-45 18t-54.5 8.5t-65.5 2z" />
    <glyph glyph-name="Oslashacute" unicode="&#x1fe;" horiz-adv-x="844" 
d="M361 759l-30 36l159 133l30 -36zM626 750l-33 -76q87 -43 134 -128t47 -196q0 -161 -93.5 -261.5t-258.5 -100.5q-65 0 -121 18l-25 -56h-58l33 76q-86 43 -133.5 128t-47.5 196q0 160 94 261t258 101q65 0 122 -18l24 56h58zM272 74l251 573q-47 14 -101 14
q-137 0 -214.5 -85t-77.5 -226q0 -95 37 -166.5t105 -109.5zM572 626l-251 -573q47 -15 101 -15q138 0 215.5 85t77.5 227q0 95 -37 167t-106 109z" />
    <glyph glyph-name="oslashacute" unicode="&#x1ff;" horiz-adv-x="641" 
d="M260 559l-30 36l159 133l31 -36zM477 550l-28 -64q64 -31 98.5 -92.5t34.5 -143.5q0 -118 -68.5 -190.5t-192.5 -72.5q-46 0 -85 11l-21 -48h-51l28 65q-64 31 -98.5 93t-34.5 142q0 116 69.5 189.5t192.5 73.5q45 0 85 -11l21 48h50zM212 60l174 398q-30 9 -65 9
q-95 0 -150 -59.5t-55 -157.5q0 -65 25 -114t71 -76zM429 440l-174 -398q31 -9 66 -9q96 0 150 58.5t54 158.5q0 66 -25 115t-71 75z" />
    <glyph glyph-name="Scommaaccent" unicode="&#x218;" horiz-adv-x="684" 
d="M49 84l36 40q39 -39 109.5 -62.5t147.5 -23.5q59 0 107.5 14.5t81.5 47.5t33 81q0 20 -3.5 36.5t-13 29.5t-18.5 23t-27.5 18t-31 13t-37.5 11t-39.5 8.5t-44.5 8.5q-22 4 -34 6q-43 8 -72.5 15.5t-63 21.5t-54 32t-34 47t-13.5 67q0 63 42.5 108.5t106 65.5t139.5 20
q136 0 231 -57l-35 -43q-83 52 -202 52q-60 0 -109 -15.5t-80.5 -48.5t-31.5 -79q0 -28 11.5 -49.5t27.5 -35t44.5 -24t51 -16t58.5 -12.5q8 -2 25 -5q31 -5 47 -8.5t44 -10t42.5 -11.5t37 -14.5t34 -19t26.5 -23t22 -29.5t12 -36.5t5 -44.5q0 -64 -42.5 -109.5t-105.5 -65
t-139 -19.5q-85 0 -165.5 25.5t-125.5 70.5zM349 -160v5q-2 -1 -9 -1q-15 0 -24 8.5t-9 21.5t9 21.5t24 8.5q19 0 28 -13q11 -14 11 -46q0 -26 -11 -40t-38 -14h-10l4 21h4q13 0 17 6t4 22z" />
    <glyph glyph-name="scommaaccent" unicode="&#x219;" horiz-adv-x="502" 
d="M39 59l20 37q28 -27 81 -44t108 -17q66 0 109 24.5t43 73.5q0 22 -8 38.5t-18.5 26t-33 17t-37.5 11t-46 8.5q-13 3 -19 4q-35 6 -57 11.5t-47.5 15.5t-39.5 23t-23.5 34t-9.5 49q0 46 30.5 78.5t76 47t100.5 14.5q101 0 170 -43l-18 -38q-64 37 -153 37
q-63 0 -106.5 -25t-43.5 -70q0 -19 7 -33t16.5 -23t27 -16t32.5 -10.5t39 -8.5q7 -1 22 -4q30 -5 44.5 -8t39.5 -9.5t37.5 -12.5t29.5 -17t25 -24t14 -32t6 -42q0 -46 -31 -79t-77 -47.5t-99 -14.5q-62 0 -120 18.5t-91 49.5zM259 -159v5q-3 -1 -9 -1q-16 0 -24.5 8.5
t-8.5 21.5t8.5 21.5t24.5 8.5q18 0 27 -12q11 -16 11 -47q0 -26 -10.5 -40t-38.5 -14h-9l3 21h5q12 0 16 6t5 22z" />
    <glyph glyph-name="uni021A" unicode="&#x21a;" horiz-adv-x="666" 
d="M623 650h-260v-650h-60v650h-260v50h580v-50zM342 -160v5q-3 -1 -10 -1q-15 0 -24 8.5t-9 21.5t9 21.5t24 8.5q20 0 28 -13q11 -14 11 -46q0 -26 -10.5 -40t-38.5 -14h-10l4 21h4q13 0 17 6t5 22z" />
    <glyph glyph-name="uni021B" unicode="&#x21b;" horiz-adv-x="397" 
d="M182 500h152v-44h-152v-249q0 -73 40 -117q39 -44 115 -52v-44q-100 6 -154 59q-58 56 -58 154v249h-101v44h101v146h57v-146zM223 -131v5q-3 -1 -9 -1q-15 0 -24 9t-9 22t9 21.5t24 8.5q19 0 28 -14q11 -14 11 -46q0 -26 -11 -40t-39 -14h-9l4 22h4q12 0 16.5 5.5
t4.5 21.5z" />
    <glyph glyph-name="uni0228" unicode="&#x228;" horiz-adv-x="591" 
d="M535 650h-378v-264h346v-50h-346v-286h378v-50h-208l-38 -58q3 0 9.5 0.5t9.5 0.5q44 -2 70.5 -24.5t26.5 -62.5q0 -44 -31.5 -69t-80.5 -25q-67 0 -95 41l24 22q20 -28 67 -28q34 0 53.5 16t19.5 45t-20 45.5t-55 16.5q-14 0 -30 -5l-17 10l46 75h-188v700h437v-50z" />
    <glyph glyph-name="uni0229" unicode="&#x229;" 
d="M240 -77l41 68q-104 11 -163 82t-59 178q0 116 66.5 189.5t186.5 73.5q115 0 177 -58.5t62 -170.5q0 -34 -6 -66h-429q9 -85 62 -135t140 -51q91 -2 166 39l25 -31q-75 -49 -180 -52h-8l-32 -50q12 2 18 2q45 -2 71.5 -24.5t26.5 -62.5q0 -44 -32 -69t-80 -25
q-67 0 -95 41l24 22q20 -28 67 -28q33 0 53 16t20 45q0 28 -20 44.5t-55 16.5q-18 0 -30 -4zM116 255h379q2 20 2 40q0 175 -184 175q-92 0 -143.5 -56.5t-53.5 -147.5v-11z" />
    <glyph glyph-name="circumflex" unicode="&#x2c6;" horiz-adv-x="394" 
d="M349 585l-31 -31l-121 124l-121 -124l-31 31l152 153z" />
    <glyph glyph-name="caron" unicode="&#x2c7;" horiz-adv-x="394" 
d="M349 702l-152 -153l-152 153l31 31l121 -124l121 124z" />
    <glyph glyph-name="breve" unicode="&#x2d8;" horiz-adv-x="373" 
d="M287 704l41 -2q-6 -54 -46 -90t-95.5 -36t-95.5 36t-46 90l41 2q5 -41 33.5 -66t66.5 -25t67 25t34 66z" />
    <glyph glyph-name="dotaccent" unicode="&#x2d9;" horiz-adv-x="156" 
d="M78 665q15 0 24 -9t9 -21.5t-9 -21.5t-24 -9t-24 9t-9 21.5t9 21.5t24 9z" />
    <glyph glyph-name="ring" unicode="&#x2da;" horiz-adv-x="311" 
d="M156 761q46 0 78 -31.5t32 -75t-32 -75t-78 -31.5t-78.5 31.5t-32.5 75t32.5 75t78.5 31.5zM155.5 729q-29.5 0 -52 -21.5t-22.5 -53t22.5 -53t52 -21.5t52 21.5t22.5 53t-22.5 53t-52 21.5z" />
    <glyph glyph-name="ogonek" unicode="&#x2db;" horiz-adv-x="303" 
d="M140 8h59q-54 -37 -81 -75t-27 -69q0 -28 19.5 -46t52.5 -18q36 0 78 22l17 -33q-54 -26 -102 -26q-72 0 -100 49q-11 21 -11 46q0 77 95 150z" />
    <glyph glyph-name="tilde" unicode="&#x2dc;" horiz-adv-x="365" 
d="M79 615l-34 19q29 63 75 63q26 0 66 -22q42 -23 61 -23q24 0 39 34l34 -19q-23 -55 -67 -55q-27 0 -69 23q-40 22 -58 22q-27 0 -47 -42z" />
    <glyph glyph-name="hungarumlaut" unicode="&#x2dd;" horiz-adv-x="464" 
d="M227 697l-148 -148l-34 34l148 148zM419 697l-148 -148l-34 34l147 148z" />
    <glyph glyph-name="dotbelowcomb" unicode="&#x323;" horiz-adv-x="0" 
d="M78 -106q15 0 24 -8.5t9 -21.5t-9 -22t-24 -9t-24 9t-9 22t9 21.5t24 8.5z" />
    <glyph glyph-name="commaaccentcomb" unicode="&#x326;" horiz-adv-x="0" 
d="M87 -160v5q-3 -1 -9 -1q-15 0 -24 8.5t-9 21.5t9 21.5t24 8.5q19 0 28 -13q11 -14 11 -46q0 -26 -11 -40t-38 -14h-10l4 21h4q13 0 17 6t4 22z" />
    <glyph glyph-name="circumflexbelowcomb" unicode="&#x32d;" horiz-adv-x="0" 
d="M349 -192l-31 -30l-121 123l-121 -123l-31 30l152 153z" />
    <glyph glyph-name="macronbelowcomb" unicode="&#x331;" horiz-adv-x="0" 
d="M345 -185h-300v38h300v-38z" />
    <glyph glyph-name="Delta" unicode="&#x394;" horiz-adv-x="600" 
 />
    <glyph glyph-name="Omega" unicode="&#x3a9;" horiz-adv-x="600" 
 />
    <glyph glyph-name="mu" unicode="&#x3bc;" horiz-adv-x="600" 
 />
    <glyph glyph-name="pi" unicode="&#x3c0;" horiz-adv-x="600" 
 />
    <glyph glyph-name="Bdotbelow" unicode="&#x1e04;" horiz-adv-x="690" 
d="M98 700h313q87 0 136.5 -48.5t49.5 -128.5q0 -57 -25.5 -98t-72.5 -60q61 -16 94 -62.5t33 -113.5q0 -86 -52 -137.5t-144 -51.5h-332v700zM157 652v-267h258q59 3 90.5 38.5t31.5 94.5q0 62 -34.5 98t-97.5 36h-248zM157 49h263q68 0 105 38.5t37 105.5
q0 66 -37.5 104.5t-104.5 38.5h-263v-287zM324 -106q15 0 24 -8.5t9 -21.5t-9 -22t-24 -9t-24 9t-9 22t9 21.5t24 8.5z" />
    <glyph glyph-name="bdotbelow" unicode="&#x1e05;" horiz-adv-x="618" 
d="M143 738v-311q60 51 101 68.5t89 17.5q111 0 168.5 -69t57.5 -193q0 -121 -62.5 -192t-173.5 -71q-117 0 -184 86l-2 -74h-52v738h58zM143 376v-251q59 -91 165 -91q95 0 144.5 59t49.5 158q0 216 -182 216q-44 0 -81 -18t-96 -73zM305 -106q15 0 24 -8.5t9 -21.5t-9 -22
t-24 -9t-24 9t-9 22t9 21.5t24 8.5z" />
    <glyph glyph-name="Ddotbelow" unicode="&#x1e0c;" horiz-adv-x="743" 
d="M98 700h223q164 0 258 -95.5t94 -254.5q0 -160 -93 -255t-259 -95h-223v700zM157 50h164q139 0 215.5 80t76.5 220q0 139 -77 219.5t-215 80.5h-164v-600zM320.5 -106q15.5 0 24 -8.5t8.5 -21.5t-8.5 -22t-24 -9t-24 9t-8.5 22t8.5 21.5t24 8.5z" />
    <glyph glyph-name="ddotbelow" unicode="&#x1e0d;" horiz-adv-x="618" 
d="M533 0h-52l-2 74q-67 -86 -184 -86q-111 0 -173.5 71t-62.5 192q0 124 57.5 193t168.5 69q48 0 89 -17.5t102 -68.5v311h57v-738zM476 125v251q-60 55 -97 73t-81 18q-182 0 -182 -216q0 -99 50 -158t144 -59q107 0 166 91zM312 -106q15 0 24 -8.5t9 -21.5t-9 -22t-24 -9
t-24 9t-9 22t9 21.5t24 8.5z" />
    <glyph glyph-name="Dlinebelow" unicode="&#x1e0e;" horiz-adv-x="743" 
d="M98 700h223q164 0 258 -95.5t94 -254.5q0 -160 -93 -255t-259 -95h-223v700zM157 50h164q139 0 215.5 80t76.5 220q0 139 -77 219.5t-215 80.5h-164v-600zM471 -185h-301v38h301v-38z" />
    <glyph glyph-name="dlinebelow" unicode="&#x1e0f;" horiz-adv-x="618" 
d="M533 0h-52l-2 74q-67 -86 -184 -86q-111 0 -173.5 71t-62.5 192q0 124 57.5 193t168.5 69q48 0 89 -17.5t102 -68.5v311h57v-738zM476 125v251q-60 55 -97 73t-81 18q-182 0 -182 -216q0 -99 50 -158t144 -59q107 0 166 91zM462 -185h-300v38h300v-38z" />
    <glyph glyph-name="Dcircumflexbelow" unicode="&#x1e12;" horiz-adv-x="743" 
d="M98 700h223q164 0 258 -95.5t94 -254.5q0 -160 -93 -255t-259 -95h-223v700zM157 50h164q139 0 215.5 80t76.5 220q0 139 -77 219.5t-215 80.5h-164v-600zM473 -192l-31 -30l-121 123l-122 -123l-30 30l152 153z" />
    <glyph glyph-name="dcircumflexbelow" unicode="&#x1e13;" horiz-adv-x="618" 
d="M533 0h-52l-2 74q-67 -86 -184 -86q-111 0 -173.5 71t-62.5 192q0 124 57.5 193t168.5 69q48 0 89 -17.5t102 -68.5v311h57v-738zM476 125v251q-60 55 -97 73t-81 18q-182 0 -182 -216q0 -99 50 -158t144 -59q107 0 166 91zM464 -192l-31 -30l-121 123l-121 -123l-31 30
l152 153z" />
    <glyph glyph-name="Hdotbelow" unicode="&#x1e24;" horiz-adv-x="749" 
d="M652 0h-60v325h-435v-325h-59v700h59v-325h435v325h60v-700zM372 -106q15 0 24 -8.5t9 -21.5t-9 -22t-24 -9t-24 9t-9 22t9 21.5t24 8.5z" />
    <glyph glyph-name="hdotbelow" unicode="&#x1e25;" horiz-adv-x="626" 
d="M151 738v-314q55 48 96 69t94 21q52 0 98.5 -20t78 -63.5t31.5 -102.5v-328h-57v318q0 70 -49.5 109.5t-116.5 39.5q-46 0 -83 -20t-92 -71v-376h-57v738h57zM317 -106q15 0 24 -8.5t9 -21.5t-9 -22t-24 -9t-24 9t-9 22t9 21.5t24 8.5z" />
    <glyph glyph-name="Idieresisacute" unicode="&#x1e2e;" horiz-adv-x="255" 
d="M224 1028l-159 -134l-30 36l159 133zM30 865q15 0 24 -9t9 -21.5t-9 -21.5t-24 -9t-24 9t-9 21.5t9 21.5t24 9zM223 865q15 0 24 -9t9 -21.5t-9 -21.5t-24 -9t-24 9t-9 21.5t9 21.5t24 9zM157 0h-59v700h59v-700z" />
    <glyph glyph-name="idieresisacute" unicode="&#x1e2f;" horiz-adv-x="229" 
d="M216 842l-159 -133l-30 36l159 133zM22 665q15 0 24 -9t9 -21.5t-9 -21.5t-24 -9t-23.5 9t-8.5 21.5t8.5 21.5t23.5 9zM216 665q15 0 24 -9t9 -21.5t-9 -21.5t-24 -9t-24 9t-9 21.5t9 21.5t24 9zM148 0h-58v500h58v-500z" />
    <glyph glyph-name="Ldotbelow" unicode="&#x1e36;" horiz-adv-x="564" 
d="M157 48h365v-48h-424v700h59v-652zM286 -106q15 0 24 -8.5t9 -21.5t-9 -22t-24 -9t-24 9t-9 22t9 21.5t24 8.5z" />
    <glyph glyph-name="ldotbelow" unicode="&#x1e37;" horiz-adv-x="342" 
d="M151 738v-528q0 -86 38 -129q38 -42 115 -42v-44q-101 -3 -155 50q-55 55 -55 165v528h57zM160 -106q15 0 24 -8.5t9 -21.5t-9 -22t-24 -9t-24 9t-9 22t9 21.5t24 8.5z" />
    <glyph glyph-name="Lcircumflexbelow" unicode="&#x1e3c;" horiz-adv-x="564" 
d="M157 48h365v-48h-424v700h59v-652zM438 -192l-31 -30l-121 123l-122 -123l-30 30l152 153z" />
    <glyph glyph-name="lcircumflexbelow" unicode="&#x1e3d;" horiz-adv-x="342" 
d="M151 738v-528q0 -86 38 -129q38 -42 115 -42v-44q-101 -3 -155 50q-55 55 -55 165v528h57zM312 -192l-31 -30l-121 123l-122 -123l-30 30l152 153z" />
    <glyph glyph-name="Macute" unicode="&#x1e3e;" horiz-adv-x="883" 
d="M531 892l-159 -133l-30 36l159 133zM785 0h-60v585l-259 -585h-58l-260 585v-585h-59v700h73l275 -632l274 632h74v-700z" />
    <glyph glyph-name="macute" unicode="&#x1e3f;" horiz-adv-x="946" 
d="M572 692l-159 -133l-30 36l159 133zM137 500l2 -75q50 47 87.5 68t86.5 21q51 0 97 -23.5t72 -67.5q55 52 97 71.5t95 19.5q49 0 92.5 -20t73.5 -63.5t30 -102.5v-328h-58v318q0 70 -45 109.5t-106 39.5q-44 0 -79 -17t-86 -66q11 -29 11 -61v-323h-58v318
q0 70 -45 109.5t-106 39.5q-41 0 -74 -19.5t-81 -68.5v-379h-58v500h52z" />
    <glyph glyph-name="Ndotaccent" unicode="&#x1e44;" horiz-adv-x="728" 
d="M364.5 865q15.5 0 24 -9t8.5 -21.5t-8.5 -21.5t-24 -9t-24 9t-8.5 21.5t8.5 21.5t24 9zM639 0h-72l-419 601v-601h-59v700h72l419 -601v601h59v-700z" />
    <glyph glyph-name="ndotaccent" unicode="&#x1e45;" horiz-adv-x="621" 
d="M315.5 665q15.5 0 24 -9t8.5 -21.5t-9 -21.5t-24 -9t-23.5 9t-8.5 21.5t8.5 21.5t24 9zM137 500l2 -77q56 48 97.5 69.5t95.5 21.5q53 0 100.5 -20t79.5 -63.5t32 -102.5v-328h-57v318q0 70 -50 109.5t-118 39.5q-47 0 -84 -19.5t-92 -69.5v-378h-58v500h52z" />
    <glyph glyph-name="Ndotbelow" unicode="&#x1e46;" horiz-adv-x="728" 
d="M639 0h-72l-419 601v-601h-59v700h72l419 -601v601h59v-700zM364.5 -106q15.5 0 24 -8.5t8.5 -21.5t-9 -22t-24 -9t-23.5 9t-8.5 22t8.5 21.5t24 8.5z" />
    <glyph glyph-name="ndotbelow" unicode="&#x1e47;" horiz-adv-x="621" 
d="M137 500l2 -77q55 48 97 69.5t96 21.5q53 0 100.5 -20t79.5 -63.5t32 -102.5v-328h-57v318q0 70 -50 109.5t-118 39.5q-47 0 -84 -19.5t-92 -69.5v-378h-58v500h52zM315.5 -106q15.5 0 24 -8.5t8.5 -21.5t-9 -22t-24 -9t-24 9t-9 22t9 21.5t24.5 8.5z" />
    <glyph glyph-name="Ncircumflexbelow" unicode="&#x1e4a;" horiz-adv-x="728" 
d="M639 0h-72l-419 601v-601h-59v700h72l419 -601v601h59v-700zM516 -192l-30 -30l-122 123l-121 -123l-31 30l152 153z" />
    <glyph glyph-name="ncircumflexbelow" unicode="&#x1e4b;" horiz-adv-x="621" 
d="M137 500l2 -77q55 48 97 69.5t96 21.5q53 0 100.5 -20t79.5 -63.5t32 -102.5v-328h-57v318q0 70 -50 109.5t-118 39.5q-47 0 -84 -19.5t-92 -69.5v-378h-58v500h52zM467 -192l-30 -30l-122 123l-121 -123l-31 30l152 153z" />
    <glyph glyph-name="Otildeacute" unicode="&#x1e4c;" horiz-adv-x="844" 
d="M520 1027l-159 -133l-30 36l159 133zM321 774l-34 20q29 63 75 63q26 0 67 -23q42 -22 60 -22q25 0 40 34l33 -19q-23 -55 -67 -55q-26 0 -69 22q-40 22 -58 22q-27 0 -47 -42zM421.5 712q163.5 0 258 -101t94.5 -261q0 -161 -93.5 -261.5t-258.5 -100.5q-162 0 -257 101
t-95 261t94 261t257.5 101zM421.5 661q-136.5 0 -214 -85t-77.5 -226t78.5 -226.5t213.5 -85.5q138 0 215.5 85t77.5 227q0 141 -78.5 226t-215 85z" />
    <glyph glyph-name="otildeacute" unicode="&#x1e4d;" horiz-adv-x="641" 
d="M418 843l-159 -134l-30 36l159 133zM219 590l-33 19q28 63 75 63q25 0 66 -22q42 -23 61 -23q24 0 39 34l34 -19q-23 -55 -68 -55q-26 0 -69 23q-40 22 -58 22q-27 0 -47 -42zM321 513q122 0 191.5 -72.5t69.5 -190.5t-68.5 -190.5t-192.5 -72.5q-123 0 -192.5 73.5
t-69.5 189.5t69.5 189.5t192.5 73.5zM320.5 467q-94.5 0 -149.5 -59.5t-55 -157.5t55 -157.5t150 -59.5q96 0 150 58.5t54 158.5t-55 158.5t-149.5 58.5z" />
    <glyph glyph-name="Omacrongrave" unicode="&#x1e50;" horiz-adv-x="844" 
d="M518 930l-30 -36l-160 134l31 35zM573 811h-300v37h300v-37zM421.5 712q163.5 0 258 -101t94.5 -261q0 -161 -93.5 -261.5t-258.5 -100.5q-162 0 -257 101t-95 261t94 261t257.5 101zM421.5 661q-136.5 0 -214 -85t-77.5 -226t78.5 -226.5t213.5 -85.5q138 0 215.5 85
t77.5 227q0 141 -78.5 226t-215 85z" />
    <glyph glyph-name="omacrongrave" unicode="&#x1e51;" horiz-adv-x="641" 
d="M416 740l-30 -36l-159 134l30 36zM471 619h-300v38h300v-38zM321 513q122 0 191.5 -72.5t69.5 -190.5t-68.5 -190.5t-192.5 -72.5q-123 0 -192.5 73.5t-69.5 189.5t69.5 189.5t192.5 73.5zM321 467q-95 0 -150 -59.5t-55 -157.5t55 -157.5t150 -59.5q96 0 150 58.5
t54 158.5t-54.5 158.5t-149.5 58.5z" />
    <glyph glyph-name="Omacronacute" unicode="&#x1e52;" horiz-adv-x="844" 
d="M520 1028l-159 -134l-30 36l159 133zM573 811h-300v37h300v-37zM421.5 712q163.5 0 258 -101t94.5 -261q0 -161 -93.5 -261.5t-258.5 -100.5q-162 0 -257 101t-95 261t94 261t257.5 101zM421.5 661q-136.5 0 -214 -85t-77.5 -226t78.5 -226t213.5 -85q138 0 215.5 84.5
t77.5 226.5q0 141 -78.5 226t-215 85z" />
    <glyph glyph-name="omacronacute" unicode="&#x1e53;" horiz-adv-x="641" 
d="M418 842l-159 -134l-30 36l159 134zM471 619h-300v38h300v-38zM321 513q122 0 191.5 -72.5t69.5 -190.5t-68.5 -190.5t-192.5 -72.5q-123 0 -192.5 73.5t-69.5 189.5t69.5 189.5t192.5 73.5zM320.5 467q-94.5 0 -149.5 -59.5t-55 -157.5t55 -157.5t150 -59.5
q96 0 150 58.5t54 158.5t-55 158.5t-149.5 58.5z" />
    <glyph glyph-name="Sdotbelow" unicode="&#x1e62;" horiz-adv-x="684" 
d="M49 84l36 40q39 -39 109.5 -62.5t147.5 -23.5q59 0 107.5 14.5t81.5 47.5t33 81q0 20 -3.5 36.5t-13 29.5t-18.5 23t-27.5 18t-31 13t-37.5 11t-39.5 8.5t-44.5 8.5q-22 4 -34 6q-43 8 -72.5 15.5t-63 21.5t-54 32t-34 47t-13.5 67q0 63 42.5 108.5t106 65.5t139.5 20
q136 0 231 -57l-35 -43q-83 52 -202 52q-60 0 -109 -15.5t-80.5 -48.5t-31.5 -79q0 -28 11.5 -49.5t27.5 -35t44.5 -24t51 -16t58.5 -12.5q8 -2 25 -5q31 -5 47 -8.5t44 -10t42.5 -11.5t37 -14.5t34 -19t26.5 -23t22 -29.5t12 -36.5t5 -44.5q0 -64 -42.5 -109.5t-105.5 -65
t-139 -19.5q-85 0 -165.5 25.5t-125.5 70.5zM341 -106q15 0 24 -8.5t9 -21.5t-9 -22t-24 -9t-24 9t-9 22t9 21.5t24 8.5z" />
    <glyph glyph-name="sdotbelow" unicode="&#x1e63;" horiz-adv-x="502" 
d="M39 59l20 37q28 -27 81 -44t108 -17q66 0 109 24.5t43 73.5q0 22 -8 38.5t-18.5 26t-33 17t-37.5 11t-46 8.5q-13 3 -19 4q-35 6 -57 11.5t-47.5 15.5t-39.5 23t-23.5 34t-9.5 49q0 46 30.5 78.5t76 47t100.5 14.5q101 0 170 -43l-18 -38q-64 37 -153 37
q-63 0 -106.5 -25t-43.5 -70q0 -19 7 -33t16.5 -23t27 -16t32.5 -10.5t39 -8.5q7 -1 22 -4q30 -5 44.5 -8t39.5 -9.5t37.5 -12.5t29.5 -17t25 -24t14 -32t6 -42q0 -46 -31 -79t-77 -47.5t-99 -14.5q-62 0 -120 18.5t-91 49.5zM251 -104q15 0 24 -9t9 -22q0 -12 -9.5 -21.5
t-24 -9.5t-23.5 9.5t-9 21.5q0 13 9 22t24 9z" />
    <glyph glyph-name="Tdotbelow" unicode="&#x1e6c;" horiz-adv-x="666" 
d="M623 650h-260v-650h-60v650h-260v50h580v-50zM333 -106q15 0 24 -8.5t9 -21.5t-9 -22t-24 -9t-24 9t-9 22t9 21.5t24 8.5z" />
    <glyph glyph-name="tdotbelow" unicode="&#x1e6d;" horiz-adv-x="397" 
d="M182 500h152v-44h-152v-249q0 -73 40 -117q39 -44 115 -52v-44q-100 6 -154 59q-58 56 -58 154v249h-101v44h101v146h57v-146zM215 -77q15 0 24 -8.5t9 -21.5q0 -12 -9 -21.5t-24 -9.5t-24 9.5t-9 21.5q0 13 9 21.5t24 8.5z" />
    <glyph glyph-name="Tlinebelow" unicode="&#x1e6e;" horiz-adv-x="666" 
d="M623 650h-260v-650h-60v650h-260v50h580v-50zM483 -185h-300v38h300v-38z" />
    <glyph glyph-name="tlinebelow" unicode="&#x1e6f;" horiz-adv-x="397" 
d="M182 500h152v-44h-152v-249q0 -73 40 -117q39 -44 115 -52v-44q-100 6 -154 59q-58 56 -58 154v249h-101v44h101v146h57v-146zM365 -155h-300v38h300v-38z" />
    <glyph glyph-name="Tcircumflexbelow" unicode="&#x1e70;" horiz-adv-x="666" 
d="M623 650h-260v-650h-60v650h-260v50h580v-50zM485 -192l-30 -30l-122 123l-121 -123l-31 30l152 153z" />
    <glyph glyph-name="tcircumflexbelow" unicode="&#x1e71;" horiz-adv-x="397" 
d="M182 500h152v-44h-152v-249q0 -73 40 -117q39 -44 115 -52v-44q-100 6 -154 59q-58 56 -58 154v249h-101v44h101v146h57v-146zM367 -162l-31 -31l-121 123l-121 -123l-31 31l152 153z" />
    <glyph glyph-name="Wgrave" unicode="&#x1e80;" horiz-adv-x="1091" 
d="M642 795l-30 -36l-159 133l30 36zM578 700l199 -611l206 611h65l-242 -700h-62l-199 604l-199 -604h-61l-242 700h65l206 -611l199 611h65z" />
    <glyph glyph-name="wgrave" unicode="&#x1e81;" horiz-adv-x="815" 
d="M503 595l-30 -36l-160 133l30 36zM607 0h-61l-139 416l-138 -416h-61l-183 500h59l154 -432l142 432h54l143 -432l154 432h59z" />
    <glyph glyph-name="Wacute" unicode="&#x1e82;" horiz-adv-x="1091" 
d="M645 892l-160 -133l-30 36l160 133zM578 700l199 -611l206 611h65l-242 -700h-62l-199 604l-199 -604h-61l-242 700h65l206 -611l199 611h65z" />
    <glyph glyph-name="wacute" unicode="&#x1e83;" horiz-adv-x="815" 
d="M505 692l-159 -133l-30 36l159 133zM607 0h-61l-139 416l-138 -416h-61l-183 500h59l154 -432l142 432h54l143 -432l154 432h59z" />
    <glyph glyph-name="Wdieresis" unicode="&#x1e84;" horiz-adv-x="1091" 
d="M451 865q15 0 24 -9t9 -21.5t-9 -21.5t-24 -9t-24 9t-9 21.5t9 21.5t24 9zM644 865q15 0 24 -9t9 -21.5t-9 -21.5t-24 -9t-24 9t-9 21.5t9 21.5t24 9zM578 700l199 -611l206 611h65l-242 -700h-62l-199 604l-199 -604h-61l-242 700h65l206 -611l199 611h65z" />
    <glyph glyph-name="wdieresis" unicode="&#x1e85;" horiz-adv-x="815" 
d="M311 665q15 0 24 -9t9 -21.5t-9 -21.5t-24 -9t-24 9t-9 21.5t9 21.5t24 9zM504 665q15 0 24 -9t9 -21.5t-9 -21.5t-24 -9t-24 9t-9 21.5t9 21.5t24 9zM607 0h-61l-139 416l-138 -416h-61l-183 500h59l154 -432l142 432h54l143 -432l154 432h59z" />
    <glyph glyph-name="Zdotbelow" unicode="&#x1e92;" horiz-adv-x="640" 
d="M584 665l-455 -615h462v-50h-542v35l454 615h-419v50h500v-35zM327 -106q15 0 24 -8.5t9 -21.5t-9 -22t-24 -9t-24 9t-9 22t9 21.5t24 8.5z" />
    <glyph glyph-name="zdotbelow" unicode="&#x1e93;" horiz-adv-x="473" 
d="M424 475l-308 -431h314v-44h-389v26l308 430h-292v44h367v-25zM237 -106q15 0 24 -8.5t9 -21.5t-9 -22t-24 -9t-24 9t-9 22t9 21.5t24 8.5z" />
    <glyph glyph-name="adotbelow" unicode="&#x1ea1;" horiz-adv-x="580" 
d="M111 427l-16 37q90 49 186 49q57 0 106.5 -19.5t82.5 -63t33 -102.5v-328h-51l-3 75q-76 -87 -200 -87q-81 0 -138 43t-57 121q0 55 31.5 93.5t78.5 55t104 16.5q101 0 178 -44v56q-1 66 -53 104t-121 38q-83 0 -161 -44zM446 116v117q-70 46 -168 46q-73 0 -121.5 -31.5
t-48.5 -92.5q0 -59 44.5 -91.5t110.5 -32.5q115 0 183 85zM283 -106q15 0 24 -8.5t9 -21.5t-9 -22t-24 -9t-24 9t-9 22t9 21.5t24 8.5z" />
    <glyph glyph-name="Acircumflexdotbelow" unicode="&#x1eac;" horiz-adv-x="731" 
d="M516 785l-31 -31l-121 124l-121 -124l-31 31l152 153zM688 0h-62l-80 193h-361l-80 -193h-62l291 700h63zM203 243h325l-162 393zM364 -106q15 0 24 -8.5t9 -21.5t-9 -22t-24 -9t-24 9t-9 22t9 21.5t24 8.5z" />
    <glyph glyph-name="acircumflexdotbelow" unicode="&#x1ead;" horiz-adv-x="580" 
d="M444 585l-30 -31l-122 124l-121 -124l-31 31l152 153zM111 427l-16 37q90 49 186 49q57 0 106.5 -19.5t82.5 -63t33 -102.5v-328h-51l-3 75q-76 -87 -200 -87q-81 0 -138 43t-57 121q0 55 31.5 93.5t78.5 55t104 16.5q101 0 178 -44v56q-1 66 -53 104t-121 38
q-83 0 -161 -44zM446 116v117q-70 46 -168 46q-73 0 -121.5 -31.5t-48.5 -92.5q0 -59 44.5 -91.5t110.5 -32.5q115 0 183 85zM283 -106q15 0 24 -8.5t9 -21.5t-9 -22t-24 -9t-24 9t-9 22t9 21.5t24 8.5z" />
    <glyph glyph-name="Edotbelow" unicode="&#x1eb8;" horiz-adv-x="591" 
d="M535 650h-378v-264h346v-50h-346v-286h378v-50h-437v700h437v-50zM299 -106q15 0 24 -8.5t9 -21.5t-9 -22t-24 -9t-24 9t-9 22t9 21.5t24 8.5z" />
    <glyph glyph-name="edotbelow" unicode="&#x1eb9;" 
d="M484 72l25 -31q-80 -53 -191 -53q-121 0 -190 73t-69 191q0 115 66.5 188.5t186.5 73.5q115 0 177 -58.5t62 -170.5q0 -34 -6 -66h-429q9 -85 62 -135t140 -51q91 -2 166 39zM116 255h379q2 20 2 40q0 175 -184 175q-92 0 -143.5 -56.5t-53.5 -147.5v-11zM299 -106
q15 0 24 -8.5t9 -21.5t-9 -22t-24 -9t-24 9t-9 22t9 21.5t24 8.5z" />
    <glyph glyph-name="Etilde" unicode="&#x1ebc;" horiz-adv-x="591" 
d="M198 815l-34 19q29 63 75 63q26 0 66 -22q42 -23 61 -23q25 0 39 34l34 -19q-23 -55 -67 -55q-26 0 -69 23q-40 22 -58 22q-27 0 -47 -42zM535 650h-378v-264h346v-50h-346v-286h378v-50h-437v700h437v-50z" />
    <glyph glyph-name="etilde" unicode="&#x1ebd;" 
d="M198 615l-34 19q29 63 75 63q26 0 66 -22q42 -23 61 -23q24 0 39 34l34 -19q-23 -55 -67 -55q-27 0 -69 23q-40 22 -58 22q-27 0 -47 -42zM484 72l25 -31q-80 -53 -191 -53q-121 0 -190 73t-69 191q0 115 66.5 188.5t186.5 73.5q115 0 177 -58.5t62 -170.5q0 -34 -6 -66
h-429q9 -85 62 -135t140 -51q91 -2 166 39zM116 255h379q2 20 2 40q0 175 -184 175q-92 0 -143.5 -56.5t-53.5 -147.5v-11z" />
    <glyph glyph-name="Ecircumflexdotbelow" unicode="&#x1ec6;" horiz-adv-x="591" 
d="M451 785l-31 -31l-121 124l-121 -124l-31 31l152 153zM535 650h-378v-264h346v-50h-346v-286h378v-50h-437v700h437v-50zM299 -106q15 0 24 -8.5t9 -21.5t-9 -22t-24 -9t-24 9t-9 22t9 21.5t24 8.5z" />
    <glyph glyph-name="ecircumflexdotbelow" unicode="&#x1ec7;" 
d="M451 585l-31 -31l-121 124l-121 -124l-31 31l152 153zM484 72l25 -31q-80 -53 -191 -53q-121 0 -190 73t-69 190q0 116 66.5 189.5t186.5 73.5q115 0 177 -58.5t62 -170.5q0 -34 -6 -66h-429q9 -85 62 -135t140 -51q91 -2 166 39zM116 255h379q2 20 2 40q0 175 -184 175
q-92 0 -143.5 -56.5t-53.5 -147.5v-11zM299 -106q15 0 24 -8.5t9 -21.5t-9 -22t-24 -9t-24 9t-9 22t9 21.5t24 8.5z" />
    <glyph glyph-name="Idotbelow" unicode="&#x1eca;" horiz-adv-x="255" 
d="M157 0h-59v700h59v-700zM127 -106q15 0 24 -8.5t9 -21.5t-9 -22t-24 -9t-24 9t-9 22t9 21.5t24 8.5z" />
    <glyph glyph-name="idotbelow" unicode="&#x1ecb;" horiz-adv-x="241" 
d="M125.5 683q14.5 0 24.5 -9.5t10 -23t-10 -23t-24.5 -9.5t-24.5 9.5t-10 23t10 23t24.5 9.5zM154 0h-57v500h57v-500zM125 -106q15 0 24 -8.5t9 -21.5t-9 -22t-24 -9t-24 9t-9 22t9 21.5t24 8.5z" />
    <glyph glyph-name="Odotbelow" unicode="&#x1ecc;" horiz-adv-x="844" 
d="M421.5 712q163.5 0 258 -101t94.5 -261q0 -161 -93.5 -261.5t-258.5 -100.5q-162 0 -257 101t-95 261t94 261t257.5 101zM421.5 661q-136.5 0 -214 -85t-77.5 -226t78.5 -226.5t213.5 -85.5q138 0 215.5 85t77.5 227q0 141 -78.5 226t-215 85zM421.5 -106
q15.5 0 24.5 -8.5t9 -21.5t-9 -22t-24 -9t-24 9t-9 22t8.5 21.5t24 8.5z" />
    <glyph glyph-name="odotbelow" unicode="&#x1ecd;" horiz-adv-x="641" 
d="M321 513q122 0 191.5 -72.5t69.5 -190.5t-68.5 -190.5t-192.5 -72.5q-123 0 -192.5 73.5t-69.5 189.5t69.5 189.5t192.5 73.5zM321 467q-95 0 -150 -59.5t-55 -157.5t55 -157.5t150 -59.5q96 0 150 58.5t54 158.5t-54.5 158.5t-149.5 58.5zM321 -106q15 0 24 -8.5
t9 -21.5t-9 -22t-24 -9t-24 9t-9 22t9 21.5t24 8.5z" />
    <glyph glyph-name="Ocircumflexdotbelow" unicode="&#x1ed8;" horiz-adv-x="844" 
d="M574 785l-30 -31l-122 124l-121 -124l-31 31l152 153zM421.5 712q163.5 0 258 -101t94.5 -261q0 -161 -93.5 -261.5t-258.5 -100.5q-162 0 -257 101t-95 261t94 261t257.5 101zM421.5 661q-136.5 0 -214 -85t-77.5 -226t78.5 -226.5t213.5 -85.5q138 0 215.5 85t77.5 227
q0 141 -78.5 226t-215 85zM421.5 -106q15.5 0 24.5 -8.5t9 -21.5t-9 -22t-24 -9t-24 9t-9 22t8.5 21.5t24 8.5z" />
    <glyph glyph-name="ocircumflexdotbelow" unicode="&#x1ed9;" horiz-adv-x="641" 
d="M473 585l-31 -31l-121 124l-122 -124l-30 31l152 153zM321 513q122 0 191.5 -72.5t69.5 -190.5t-68.5 -190.5t-192.5 -72.5q-123 0 -192.5 73.5t-69.5 189.5t69.5 189.5t192.5 73.5zM321 467q-95 0 -150 -59.5t-55 -157.5t55 -157.5t150 -59.5q96 0 150 58.5t54 158.5
t-54.5 158.5t-149.5 58.5zM321 -106q15 0 24 -8.5t9 -21.5t-9 -22t-24 -9t-24 9t-9 22t9 21.5t24 8.5z" />
    <glyph glyph-name="Udotbelow" unicode="&#x1ee4;" horiz-adv-x="745" 
d="M656 700v-382q0 -77 -13.5 -135t-44.5 -103.5t-86.5 -69t-134.5 -23.5q-78 0 -133.5 23t-87 68t-45 103.5t-13.5 136.5v382h59v-378q0 -143 49.5 -212t170.5 -69t170.5 70t49.5 211v378h59zM377 -106q15 0 24 -8.5t9 -21.5t-9 -22t-24 -9t-24 9t-9 22t9 21.5t24 8.5z" />
    <glyph glyph-name="udotbelow" unicode="&#x1ee5;" horiz-adv-x="612" 
d="M536 0h-52l-2 77q-56 -49 -97.5 -70t-95.5 -21q-53 0 -100.5 19.5t-80 63.5t-32.5 103v328h58v-318q0 -70 50 -109.5t118 -39.5q47 0 84 19.5t92 69.5v378h58v-500zM308 -106q15 0 24 -8.5t9 -21.5t-9 -22t-24 -9t-24 9t-9 22t9 21.5t24 8.5z" />
    <glyph glyph-name="Ygrave" unicode="&#x1ef2;" horiz-adv-x="690" 
d="M440 795l-30 -36l-159 133l30 36zM375 279v-279h-60v279l-272 421h69l233 -366l234 366h68z" />
    <glyph glyph-name="ygrave" unicode="&#x1ef3;" horiz-adv-x="546" 
d="M367 595l-30 -36l-159 133l30 36zM521 500l-242 -598q-31 -77 -94 -115q-59 -35 -145 -35v44q73 0 123 32q47 32 72 92l31 80h-11l-205 500h59l178 -443l175 443h59z" />
    <glyph glyph-name="endash" unicode="&#x2013;" horiz-adv-x="529" 
d="M484 322h-439v48h439v-48z" />
    <glyph glyph-name="emdash" unicode="&#x2014;" horiz-adv-x="658" 
d="M613 322h-568v48h568v-48z" />
    <glyph glyph-name="quoteleft" unicode="&#x2018;" horiz-adv-x="162" 
d="M100 743h-4q-12 0 -16.5 -7t-4.5 -25v-6q3 1 9 1q15 0 24 -9t9 -21.5t-9 -21t-24 -8.5q-20 0 -29 14q-10 14 -10 45t11 47t38 16h10z" />
    <glyph glyph-name="quoteright" unicode="&#x2019;" horiz-adv-x="162" 
d="M87 703v6q-3 -1 -9 -1q-15 0 -24 9t-9 21.5t9 21t24 8.5q19 0 28 -13q11 -14 11 -46q0 -31 -11 -47t-38 -16h-10l4 25h4q12 0 16.5 7t4.5 25z" />
    <glyph glyph-name="quotesinglbase" unicode="&#x201a;" horiz-adv-x="162" 
d="M87 -11v6q-3 -1 -9 -1q-15 0 -24 9t-9 21.5t9 21t24 8.5q19 0 28 -13q11 -15 11 -46t-11 -47.5t-38 -16.5h-10l4 26h4q12 0 16.5 7t4.5 25z" />
    <glyph glyph-name="quotedblleft" unicode="&#x201c;" horiz-adv-x="297" 
d="M235 743h-4q-12 0 -16.5 -7t-4.5 -25v-6q3 1 9 1q15 0 24 -9t9 -21.5t-9 -21t-24 -8.5q-19 0 -28 13q-11 14 -11 46q0 31 11 47t38 16h10zM100 743h-4q-12 0 -16.5 -6.5t-4.5 -24.5v-7q3 1 9 1q15 0 24 -9t9 -21.5t-9 -21t-24 -8.5q-20 0 -29 14q-10 14 -10 45t11 47
t38 16h10z" />
    <glyph glyph-name="quotedblright" unicode="&#x201d;" horiz-adv-x="297" 
d="M87 703v6q-3 -1 -9 -1q-15 0 -24 9t-9 21.5t9 21t24 8.5q19 0 28 -13q11 -15 11 -46t-11 -47t-38 -16h-10l4 25h4q12 0 16.5 7t4.5 25zM222 704v5q-3 -1 -9 -1q-15 0 -24 9t-9 21.5t9 21t24 8.5q20 0 29 -14q10 -15 10 -45q0 -31 -11 -47.5t-38 -16.5h-10l4 26h4
q13 0 17 7t4 26z" />
    <glyph glyph-name="quotedblbase" unicode="&#x201e;" horiz-adv-x="297" 
d="M87 -11v6q-3 -1 -9 -1q-15 0 -24 9t-9 21.5t9 21t24 8.5q19 0 28 -13q11 -15 11 -46t-11 -47.5t-38 -16.5h-10l4 26h4q12 0 16.5 7t4.5 25zM222 -11v6q-3 -1 -9 -1q-15 0 -24 9t-9 21.5t9 21t24 8.5q19 0 28 -13q11 -15 11 -46t-11 -47.5t-38 -16.5h-10l4 26h4
q12 0 16.5 7t4.5 25z" />
    <glyph glyph-name="dagger" unicode="&#x2020;" horiz-adv-x="523" 
d="M291 479h187v-48h-187v-575h-59v575h-187v48h187v238h59v-238z" />
    <glyph glyph-name="daggerdbl" unicode="&#x2021;" horiz-adv-x="523" 
d="M291 479h187v-48h-187v-289h187v-48h-187v-238h-59v238h-187v48h187v289h-187v48h187v238h59v-238z" />
    <glyph glyph-name="bullet" unicode="&#x2022;" horiz-adv-x="288" 
d="M144.5 393q42.5 0 70.5 -28.5t28 -68t-28 -68t-70.5 -28.5t-71 28.5t-28.5 68t28.5 68t71 28.5z" />
    <glyph glyph-name="ellipsis" unicode="&#x2026;" horiz-adv-x="531" 
d="M78 56q15 0 24 -9t9 -21.5t-9 -21.5t-24 -9t-24 9t-9 21.5t9 21.5t24 9zM266 56q15 0 24 -9t9 -21.5t-9 -21.5t-24 -9t-24 9t-9 21.5t9 21.5t24 9zM453 56q15 0 24 -9t9 -21.5t-9 -21.5t-24 -9t-24 9t-9 21.5t9 21.5t24 9z" />
    <glyph glyph-name="perthousand" unicode="&#x2030;" horiz-adv-x="1240" 
d="M232 -17h-59l462 734h59zM205 706q47 0 79.5 -14.5t49 -42.5t23.5 -60t7 -75.5t-7 -76t-24 -60.5t-49.5 -42.5t-78.5 -14.5q-47 0 -79.5 14.5t-49.5 42.5t-24 60.5t-7 76t7 75.5t23.5 60t49 42.5t80.5 14.5zM204.5 668q-64.5 0 -88.5 -38t-24 -116q0 -79 24.5 -117.5
t88.5 -38.5q63 0 87.5 38.5t24.5 117t-24 116.5t-88.5 38zM665 380q47 0 79.5 -15t49.5 -42.5t23.5 -60t6.5 -75.5t-7 -76t-24 -60.5t-49.5 -42t-79 -14.5t-78.5 14.5t-49 42t-24 60.5t-7 76t6.5 75.5t23.5 60t49.5 42.5t79.5 15zM1035 380q47 0 79.5 -15t49.5 -42.5t24 -60
t7 -75.5t-7.5 -76t-24.5 -60.5t-49 -42t-78.5 -14.5t-79 14.5t-49.5 42t-24 60.5t-7 76t6.5 75.5t23.5 60t49.5 42.5t79.5 15zM664.5 342q-64.5 0 -88.5 -38t-24 -117t24.5 -117t88.5 -38t88 38t24 117t-24 117t-88.5 38zM1035.5 342q-64.5 0 -88.5 -38t-24 -117t24.5 -117
t88 -38t88 38t24.5 117t-24 117t-88.5 38z" />
    <glyph glyph-name="guilsinglleft" unicode="&#x2039;" horiz-adv-x="344" 
d="M299 497l-187 -204l187 -204l-38 -30l-216 234l216 234z" />
    <glyph glyph-name="guilsinglright" unicode="&#x203a;" horiz-adv-x="344" 
d="M299 293l-217 -234l-37 30l187 204l-187 204l37 30z" />
    <glyph glyph-name="fraction" unicode="&#x2044;" horiz-adv-x="594" 
d="M102 -17h-59l450 734h59z" />
    <glyph glyph-name="Euro" unicode="&#x20ac;" horiz-adv-x="650" 
d="M45 425h63q6 67 22.5 116.5t49.5 89.5t88 60.5t131 20.5q134 0 206 -65l-35 -36q-63 52 -171 52q-117 0 -168.5 -60.5t-59.5 -177.5h337v-44h-344v-31q0 -30 2 -56h303v-45h-296q12 -103 64 -157t162 -54q108 0 171 52l35 -36q-72 -66 -206 -66q-73 0 -126 18.5t-86 54.5
t-51 82t-26 106h-65v45h60q-2 30 -2 56v31h-58v44z" />
    <glyph glyph-name="trademark" unicode="&#x2122;" horiz-adv-x="878" 
d="M375 662h-143v-355h-44v355h-143v38h330v-38zM833 307h-45v296l-132 -296h-40l-132 296v-296h-45v393h51l146 -335l146 335h51v-393z" />
    <glyph glyph-name="oneeighth" unicode="&#x215b;" horiz-adv-x="759" 
d="M113 -17h-59l450 734h59zM166 348h-45v311l-69 -15v37l83 19h31v-352zM565 356q139 0 139 -94q0 -59 -55 -79q64 -20 64 -88q0 -56 -39.5 -78.5t-108.5 -22.5q-149 0 -149 101q0 67 66 88q-56 20 -56 79q0 94 139 94zM565 320q-48 0 -70.5 -13t-22.5 -47.5t22.5 -47.5
t70.5 -13t70.5 12.5t22.5 48t-22.5 48t-70.5 12.5zM565 164q-53 0 -78 -14.5t-25 -53t25 -53t78 -14.5t78 14.5t25 53t-25 53t-78 14.5z" />
    <glyph glyph-name="threeeighths" unicode="&#x215c;" horiz-adv-x="869" 
d="M224 -17h-60l450 734h59zM98 610h-44q0 96 133 96t133 -94q0 -60 -54 -80q63 -20 63 -87q0 -56 -38.5 -78.5t-103.5 -22.5q-141 0 -142 103h43q0 -39 24 -53t74.5 -14t74 14t23.5 53.5t-23.5 53.5t-74.5 14h-50v33h51q45 0 66.5 13t21.5 48.5t-21 48t-67 12.5
t-67.5 -12.5t-21.5 -47.5zM676 356q139 0 139 -94q0 -59 -56 -79q65 -20 65 -88q0 -56 -39.5 -78.5t-108.5 -22.5q-149 0 -149 101q0 67 66 88q-57 20 -57 79q0 94 140 94zM675.5 320q-48.5 0 -71 -13t-22.5 -47.5t22.5 -47.5t71 -13t71 12.5t22.5 48t-22.5 48t-71 12.5z
M676 164q-53 0 -78 -14.5t-25 -53t25 -53t78 -14.5t77.5 14.5t24.5 53t-24.5 53t-77.5 14.5z" />
    <glyph glyph-name="fiveeighths" unicode="&#x215d;" horiz-adv-x="863" 
d="M217 -17h-59l450 734h59zM302 666h-198v-98h80q65 0 102 -24t37 -88t-37.5 -89.5t-101.5 -25.5q-140 0 -139 115h46q1 -45 23.5 -62t70.5 -17t70.5 16.5t22.5 62.5t-22.5 62.5t-70.5 16.5h-126v165h243v-34zM669 356q139 0 139 -94q0 -59 -55 -79q65 -20 65 -88
q0 -56 -40 -78.5t-109 -22.5q-149 0 -149 101q0 67 66 88q-56 20 -56 79q0 94 139 94zM669 320q-48 0 -70.5 -13t-22.5 -47.5t22.5 -47.5t70.5 -13t70.5 12.5t22.5 48t-22.5 48t-70.5 12.5zM669 164q-53 0 -78 -14.5t-25 -53t25 -53t78 -14.5t78 14.5t25 53t-25 53t-78 14.5
z" />
    <glyph glyph-name="seveneighths" unicode="&#x215e;" horiz-adv-x="803" 
d="M157 -17h-59l450 734h59zM312 676l-189 -328h-49l184 316h-213v36h267v-24zM609 356q139 0 139 -94q0 -59 -55 -79q65 -20 65 -88q0 -56 -40 -78.5t-109 -22.5q-149 0 -149 101q0 67 66 88q-56 20 -56 79q0 94 139 94zM609 320q-48 0 -70.5 -13t-22.5 -47.5t22.5 -47.5
t70.5 -13t70.5 12.5t22.5 48t-22.5 48t-70.5 12.5zM609 164q-53 0 -78 -14.5t-25 -53t25 -53t78 -14.5t78 14.5t25 53t-25 53t-78 14.5z" />
    <glyph glyph-name="partialdiff" unicode="&#x2202;" horiz-adv-x="730" 
 />
    <glyph glyph-name="emptyset" unicode="&#x2205;" horiz-adv-x="730" 
 />
    <glyph glyph-name="product" unicode="&#x220f;" horiz-adv-x="730" 
 />
    <glyph glyph-name="summation" unicode="&#x2211;" horiz-adv-x="730" 
 />
    <glyph glyph-name="minus" unicode="&#x2212;" horiz-adv-x="493" 
d="M448 269h-403v47h403v-47z" />
    <glyph glyph-name="radical" unicode="&#x221a;" horiz-adv-x="730" 
 />
    <glyph glyph-name="infinity" unicode="&#x221e;" horiz-adv-x="730" 
 />
    <glyph glyph-name="integral" unicode="&#x222b;" horiz-adv-x="730" 
 />
    <glyph glyph-name="approxequal" unicode="&#x2248;" horiz-adv-x="531" 
d="M76 349l-31 17q45 89 120 89q46 0 120 -42q55 -32 96 -32q55 0 73 51l32 -16q-14 -36 -41.5 -55t-61.5 -19q-46 0 -103 32q-72 41 -113 41q-58 0 -91 -66zM76 172l-31 17q45 89 120 89q46 0 120 -43q55 -31 96 -31q55 0 73 51l32 -16q-14 -36 -41.5 -55.5t-61.5 -19.5
q-46 0 -103 33q-72 41 -113 41q-58 0 -91 -66z" />
    <glyph glyph-name="notequal" unicode="&#x2260;" horiz-adv-x="493" 
d="M329 408h119v-48h-138l-66 -146h204v-48h-223l-81 -183h-59l82 183h-122v48h141l65 146h-206v48h225l80 180h58z" />
    <glyph glyph-name="lessequal" unicode="&#x2264;" horiz-adv-x="467" 
d="M422 349v-58l-377 -199v53l326 175l-326 176v53zM422 -23h-377v48h377v-48z" />
    <glyph glyph-name="greaterequal" unicode="&#x2265;" horiz-adv-x="467" 
d="M422 496l-326 -176l326 -175v-53l-377 199v58l377 200v-53zM421 -23h-376v48h376v-48z" />
    <glyph glyph-name="lozenge" unicode="&#x25ca;" horiz-adv-x="730" 
 />
    <glyph glyph-name="a.ss01" horiz-adv-x="611" 
d="M533 0h-52l-2 74q-67 -86 -184 -86q-111 0 -173.5 71t-62.5 192q0 124 57.5 193t168.5 69q50 0 91.5 -18.5t102.5 -71.5l2 77h52v-500zM476 125v251q-60 55 -97 73t-81 18q-182 0 -182 -216q0 -99 50 -158t144 -59q107 0 166 91z" />
    <glyph glyph-name="aacute.ss01" horiz-adv-x="611" 
d="M403 692l-159 -133l-30 36l159 133zM533 0h-52l-2 74q-67 -86 -184 -86q-111 0 -173.5 71t-62.5 192q0 124 57.5 193t168.5 69q50 0 91.5 -18.5t102.5 -71.5l2 77h52v-500zM476 125v251q-60 55 -97 73t-81 18q-182 0 -182 -216q0 -99 50 -158t144 -59q107 0 166 91z" />
    <glyph glyph-name="abreve.ss01" horiz-adv-x="611" 
d="M406 704l41 -2q-6 -54 -46 -90t-95.5 -36t-95.5 36t-46 90l41 2q5 -41 34 -66t67 -25t66.5 25t33.5 66zM533 0h-52l-2 74q-67 -86 -184 -86q-111 0 -173.5 71t-62.5 192q0 124 57.5 193t168.5 69q50 0 91.5 -18.5t102.5 -71.5l2 77h52v-500zM476 125v251q-60 55 -97 73
t-81 18q-182 0 -182 -216q0 -99 50 -158t144 -59q107 0 166 91z" />
    <glyph glyph-name="acaron.ss01" horiz-adv-x="611" 
d="M457 702l-152 -153l-152 153l31 31l121 -124l122 124zM533 0h-52l-2 74q-67 -86 -184 -86q-111 0 -173.5 71t-62.5 192q0 124 57.5 193t168.5 69q50 0 91.5 -18.5t102.5 -71.5l2 77h52v-500zM476 125v251q-60 55 -97 73t-81 18q-182 0 -182 -216q0 -99 50 -158t144 -59
q107 0 166 91z" />
    <glyph glyph-name="acircumflex.ss01" horiz-adv-x="611" 
d="M457 585l-30 -31l-122 124l-121 -124l-31 31l152 153zM533 0h-52l-2 74q-67 -86 -184 -86q-111 0 -173.5 71t-62.5 192q0 124 57.5 193t168.5 69q50 0 91.5 -18.5t102.5 -71.5l2 77h52v-500zM476 125v251q-60 55 -97 73t-81 18q-182 0 -182 -216q0 -99 50 -158t144 -59
q107 0 166 91z" />
    <glyph glyph-name="acircumflexdotbelow.ss01" horiz-adv-x="611" 
d="M457 585l-30 -31l-122 124l-121 -124l-31 31l152 153zM533 0h-52l-2 74q-67 -86 -184 -86q-111 0 -173.5 71t-62.5 192q0 124 57.5 193t168.5 69q50 0 91.5 -18.5t102.5 -71.5l2 77h52v-500zM476 125v251q-60 55 -97 73t-81 18q-182 0 -182 -216q0 -99 50 -158t144 -59
q107 0 166 91zM305.5 -106q15.5 0 24 -8.5t8.5 -21.5t-8.5 -22t-24 -9t-24 9t-8.5 22t8.5 21.5t24 8.5z" />
    <glyph glyph-name="adieresis.ss01" horiz-adv-x="611" 
d="M209 665q15 0 24 -9t9 -21.5t-9 -21.5t-24 -9t-24 9t-9 21.5t9 21.5t24 9zM402 665q15 0 24 -9t9 -21.5t-9 -21.5t-24 -9t-24 9t-9 21.5t9 21.5t24 9zM533 0h-52l-2 74q-67 -86 -184 -86q-111 0 -173.5 71t-62.5 192q0 124 57.5 193t168.5 69q50 0 91.5 -18.5
t102.5 -71.5l2 77h52v-500zM476 125v251q-60 55 -97 73t-81 18q-182 0 -182 -216q0 -99 50 -158t144 -59q107 0 166 91z" />
    <glyph glyph-name="adieresismacron.ss01" horiz-adv-x="611" 
d="M456 725h-300v38h300v-38zM209 665q15 0 24 -9t9 -21.5t-9 -21.5t-24 -9t-24 9t-9 21.5t9 21.5t24 9zM402 665q15 0 24 -9t9 -21.5t-9 -21.5t-24 -9t-24 9t-9 21.5t9 21.5t24 9zM533 0h-52l-2 74q-67 -86 -184 -86q-111 0 -173.5 71t-62.5 192q0 124 57.5 193t168.5 69
q50 0 91.5 -18.5t102.5 -71.5l2 77h52v-500zM476 125v251q-60 55 -97 73t-81 18q-182 0 -182 -216q0 -99 50 -158t144 -59q107 0 166 91z" />
    <glyph glyph-name="adotbelow.ss01" horiz-adv-x="611" 
d="M533 0h-52l-2 74q-67 -86 -184 -86q-111 0 -173.5 71t-62.5 192q0 124 57.5 193t168.5 69q50 0 91.5 -18.5t102.5 -71.5l2 77h52v-500zM476 125v251q-60 55 -97 73t-81 18q-182 0 -182 -216q0 -99 50 -158t144 -59q107 0 166 91zM305.5 -106q15.5 0 24 -8.5t8.5 -21.5
t-8.5 -22t-24 -9t-24 9t-8.5 22t8.5 21.5t24 8.5z" />
    <glyph glyph-name="agrave.ss01" horiz-adv-x="611" 
d="M401 595l-30 -36l-160 133l31 36zM533 0h-52l-2 74q-67 -86 -184 -86q-111 0 -173.5 71t-62.5 192q0 124 57.5 193t168.5 69q50 0 91.5 -18.5t102.5 -71.5l2 77h52v-500zM476 125v251q-60 55 -97 73t-81 18q-182 0 -182 -216q0 -99 50 -158t144 -59q107 0 166 91z" />
    <glyph glyph-name="amacron.ss01" horiz-adv-x="611" 
d="M456 676h-300v38h300v-38zM533 0h-52l-2 74q-67 -86 -184 -86q-111 0 -173.5 71t-62.5 192q0 124 57.5 193t168.5 69q50 0 91.5 -18.5t102.5 -71.5l2 77h52v-500zM476 125v251q-60 55 -97 73t-81 18q-182 0 -182 -216q0 -99 50 -158t144 -59q107 0 166 91z" />
    <glyph glyph-name="aogonek.ss01" horiz-adv-x="611" 
d="M481 0l-2 74q-67 -86 -184 -86q-111 0 -173.5 71t-62.5 192q0 124 57.5 193t168.5 69q50 0 91.5 -18.5t102.5 -71.5l2 77h52v-505q-51 -36 -76 -72.5t-25 -66.5q0 -27 20 -45t53 -18q35 0 77 22l17 -33q-55 -26 -103 -26q-71 0 -98 49q-12 20 -12 45q0 78 95 150z
M476 125v251q-60 55 -97 73t-81 18q-182 0 -182 -216q0 -99 50 -158t144 -59q107 0 166 91z" />
    <glyph glyph-name="aring.ss01" horiz-adv-x="611" 
d="M306 761q46 0 78 -31.5t32 -75t-32 -75t-78 -31.5t-78.5 31.5t-32.5 75t32.5 75t78.5 31.5zM305.5 729q-29.5 0 -51.5 -21.5t-22 -53t22 -53t51.5 -21.5t52 21.5t22.5 53t-22.5 53t-52 21.5zM533 0h-52l-2 74q-67 -86 -184 -86q-111 0 -173.5 71t-62.5 192
q0 124 57.5 193t168.5 69q50 0 91.5 -18.5t102.5 -71.5l2 77h52v-500zM476 125v251q-60 55 -97 73t-81 18q-182 0 -182 -216q0 -99 50 -158t144 -59q107 0 166 91z" />
    <glyph glyph-name="atilde.ss01" horiz-adv-x="611" 
d="M204 615l-34 19q29 63 75 63q26 0 67 -22q42 -23 60 -23q25 0 40 34l33 -19q-23 -55 -67 -55q-26 0 -69 23q-40 22 -58 22q-27 0 -47 -42zM533 0h-52l-2 74q-67 -86 -184 -86q-111 0 -173.5 71t-62.5 192q0 124 57.5 193t168.5 69q50 0 91.5 -18.5t102.5 -71.5l2 77h52
v-500zM476 125v251q-60 55 -97 73t-81 18q-182 0 -182 -216q0 -99 50 -158t144 -59q107 0 166 91z" />
    <glyph glyph-name="ae.ss01" horiz-adv-x="1033" 
d="M533 500v-123q25 64 79.5 100.5t133.5 36.5q137 0 196 -72q40 -41 40 -103v-16q-11 -129 -248 -129q-73 0 -182 15q10 -81 63 -128t137 -48q91 -2 166 39l25 -31q-80 -53 -191 -53q-80 0 -137 36.5t-82 101.5v-126h-52l-2 74q-67 -86 -184 -86q-111 0 -173.5 71
t-62.5 192q0 124 57.5 193t168.5 69q50 0 91.5 -18.5t102.5 -71.5l2 77h52zM745 471q-92 0 -143 -55.5t-51 -146.5v-5v-19q92 -17 175 -17q193 0 201 98q6 72 -45 108.5t-137 36.5zM476 125v251q-60 55 -97 73t-81 18q-182 0 -182 -216q0 -99 50 -158t144 -59q107 0 166 91z
" />
    <glyph glyph-name="e.ss01" horiz-adv-x="598" 
d="M484 72l25 -31q-80 -53 -191 -53q-121 0 -190 73t-69 191q0 115 66.5 188.5t186.5 73.5q137 0 196 -72q40 -41 40 -103v-16q-11 -129 -248 -129q-73 0 -183 15q11 -81 64 -128t137 -48q91 -2 166 39zM311 471q-92 0 -143.5 -56.5t-51.5 -147.5l1 -22q92 -17 175 -17
q193 0 201 98q6 72 -45 108.5t-137 36.5z" />
    <glyph glyph-name="eacute.ss01" horiz-adv-x="598" 
d="M397 692l-159 -133l-30 36l159 133zM484 72l25 -31q-80 -53 -191 -53q-121 0 -190 73t-69 191q0 115 66.5 188.5t186.5 73.5q137 0 196 -72q40 -42 40 -103q0 -10 -1 -21q-14 -124 -245 -124q-74 0 -185 15q11 -81 64 -128t137 -48q91 -2 166 39zM311 471
q-92 0 -143.5 -56.5t-51.5 -147.5l1 -22q92 -17 175 -17q193 0 201 98q6 72 -45 108.5t-137 36.5z" />
    <glyph glyph-name="ecaron.ss01" horiz-adv-x="598" 
d="M451 702l-152 -153l-152 153l31 31l121 -124l121 124zM484 72l25 -31q-80 -53 -191 -53q-121 0 -190 73t-69 191q0 115 66.5 188.5t186.5 73.5q137 0 196 -72q40 -42 40 -103q0 -10 -1 -21q-14 -124 -245 -124q-74 0 -185 15q11 -81 64 -128t137 -48q91 -2 166 39z
M311 471q-92 0 -143.5 -56.5t-51.5 -147.5l1 -22q92 -17 175 -17q193 0 201 98q6 72 -45 108.5t-137 36.5z" />
    <glyph glyph-name="uni0229.ss01" horiz-adv-x="598" 
d="M240 -77l41 68q-104 10 -163 81.5t-59 179.5q0 115 66.5 188.5t186.5 73.5q137 0 196 -72q40 -41 40 -103v-16q-11 -129 -248 -129q-73 0 -183 15q11 -81 64 -128t137 -48q91 -2 166 39l25 -31q-76 -49 -179 -52h-9l-32 -50q12 2 18 2q44 -1 71 -23.5t27 -63.5
q0 -44 -31.5 -69t-80.5 -25q-67 0 -95 41l24 22q20 -28 67 -28q34 0 53.5 16t19.5 45q0 28 -20 44.5t-54 16.5q-18 0 -31 -4zM311 471q-92 0 -143 -55.5t-51 -146.5q-1 -12 0 -24q92 -17 175 -17q193 0 201 98q6 72 -45 108.5t-137 36.5z" />
    <glyph glyph-name="ecircumflex.ss01" horiz-adv-x="598" 
d="M451 585l-31 -31l-121 124l-121 -124l-31 31l152 153zM484 72l25 -31q-80 -53 -191 -53q-121 0 -190 73t-69 190q0 116 66.5 189.5t186.5 73.5q137 0 196 -72q40 -42 40 -103q0 -11 -2 -22q-15 -123 -245 -123q-75 0 -184 15q11 -81 64 -128t137 -48q91 -2 166 39z
M311 471q-92 0 -143.5 -56.5t-51.5 -147.5l1 -22q92 -17 175 -17q193 0 201 98q6 72 -45 108.5t-137 36.5z" />
    <glyph glyph-name="ecircumflexdotbelow.ss01" horiz-adv-x="598" 
d="M451 585l-31 -31l-121 124l-121 -124l-31 31l152 153zM484 72l25 -31q-80 -53 -191 -53q-121 0 -190 73t-69 191q0 115 66.5 188.5t186.5 73.5q137 0 196 -72q40 -42 40 -103q0 -11 -1 -22q-15 -123 -245 -123q-74 0 -185 15q11 -81 64 -128t137 -48q91 -2 166 39z
M311 471q-92 0 -143.5 -56.5t-51.5 -147.5l1 -22q92 -17 175 -17q193 0 201 98q6 72 -45 108.5t-137 36.5zM299 -106q15 0 24 -8.5t9 -21.5t-9 -22t-24 -9t-24 9t-9 22t9 21.5t24 8.5z" />
    <glyph glyph-name="edieresis.ss01" horiz-adv-x="598" 
d="M203 665q15 0 24 -9t9 -21.5t-9 -21.5t-24 -9t-24 9t-9 21.5t9 21.5t24 9zM396 665q15 0 24 -9t9 -21.5t-9 -21.5t-24 -9t-24 9t-9 21.5t9 21.5t24 9zM484 72l25 -31q-80 -53 -191 -53q-121 0 -190 73t-69 191q0 115 66.5 188.5t186.5 73.5q137 0 196 -72q40 -42 40 -103
q0 -11 -2 -23q-15 -122 -244 -122q-74 0 -185 15q11 -81 64 -128t137 -48q91 -2 166 39zM311 471q-92 0 -143.5 -56.5t-51.5 -147.5l1 -22q92 -17 175 -17q193 0 201 98q6 72 -45 108.5t-137 36.5z" />
    <glyph glyph-name="edotaccent.ss01" horiz-adv-x="598" 
d="M299 665q15 0 24 -9t9 -21.5t-9 -21.5t-24 -9t-24 9t-9 21.5t9 21.5t24 9zM484 72l25 -31q-80 -53 -191 -53q-121 0 -190 73t-69 191q0 115 66.5 188.5t186.5 73.5q137 0 196 -72q39 -42 39 -103q0 -12 -1 -24q-16 -121 -244 -121q-74 0 -185 15q11 -81 64 -128t137 -48
q91 -2 166 39zM311 471q-92 0 -143.5 -56.5t-51.5 -147.5l1 -22q92 -17 175 -17q193 0 201 98q6 72 -45 108.5t-137 36.5z" />
    <glyph glyph-name="edotbelow.ss01" horiz-adv-x="598" 
d="M484 72l25 -31q-80 -53 -191 -53q-121 0 -190 73t-69 191q0 115 66.5 188.5t186.5 73.5q137 0 196 -72q40 -42 40 -103q0 -11 -2 -23q-15 -122 -245 -122q-74 0 -184 15q11 -81 64 -128t137 -48q91 -2 166 39zM311 471q-92 0 -143.5 -56.5t-51.5 -147.5l1 -22
q92 -17 175 -17q193 0 201 98q6 72 -45 108.5t-137 36.5zM299 -106q15 0 24 -8.5t9 -21.5t-9 -22t-24 -9t-24 9t-9 22t9 21.5t24 8.5z" />
    <glyph glyph-name="egrave.ss01" horiz-adv-x="598" 
d="M395 595l-30 -36l-160 133l30 36zM484 72l25 -31q-80 -53 -191 -53q-121 0 -190 73t-69 191q0 115 66.5 188.5t186.5 73.5q137 0 196 -72q40 -42 40 -103q0 -11 -2 -23q-15 -122 -244 -122q-74 0 -185 15q11 -81 64 -128t137 -48q91 -2 166 39zM311 471
q-92 0 -143.5 -56.5t-51.5 -147.5l1 -22q92 -17 175 -17q193 0 201 98q6 72 -45 108.5t-137 36.5z" />
    <glyph glyph-name="emacron.ss01" horiz-adv-x="598" 
d="M450 676h-301v38h301v-38zM484 72l25 -31q-80 -53 -191 -53q-121 0 -190 73t-69 191q0 115 66.5 188.5t186.5 73.5q137 0 196 -72q40 -42 40 -103q0 -11 -1 -22q-15 -123 -245 -123q-74 0 -185 15q11 -81 64 -128t137 -48q91 -2 166 39zM311 471q-92 0 -143.5 -56.5
t-51.5 -147.5l1 -22q92 -17 175 -17q193 0 201 98q6 72 -45 108.5t-137 36.5z" />
    <glyph glyph-name="eogonek.ss01" horiz-adv-x="598" 
d="M491 -172l17 -33q-54 -26 -102 -26q-72 0 -100 49q-11 20 -11 45q0 67 72 131q-25 -3 -48 -3q-13 0 -26 1q-109 6 -171.5 77t-62.5 182q0 116 66.5 189.5t186.5 73.5q137 0 196 -72q40 -42 40 -103q0 -11 -2 -23q-15 -122 -245 -122q-74 0 -184 15q11 -82 64 -129
t137 -47q91 -2 166 39l25 -31q-31 -21 -69 -34q-50 -36 -74.5 -72t-24.5 -65q0 -28 19.5 -46t52.5 -18q36 0 78 22zM311 471q-91 0 -142 -55t-52 -146q-1 -13 0 -26q92 -17 175 -17q193 0 201 98q6 73 -45 109.5t-137 36.5z" />
    <glyph glyph-name="etilde.ss01" horiz-adv-x="598" 
d="M198 615l-34 19q29 63 75 63q26 0 66 -22q42 -23 61 -23q25 0 39 34l34 -19q-23 -55 -67 -55q-26 0 -69 23q-40 22 -58 22q-27 0 -47 -42zM484 72l25 -31q-80 -53 -191 -53q-121 0 -190 73t-69 191q0 115 66.5 188.5t186.5 73.5q137 0 196 -72q39 -42 39 -103
q0 -12 -1 -24q-16 -121 -245 -121q-74 0 -184 15q11 -81 64 -128t137 -48q91 -2 166 39zM311 471q-92 0 -143.5 -56.5t-51.5 -147.5l1 -22q92 -17 175 -17q193 0 201 98q6 72 -45 108.5t-137 36.5z" />
    <glyph glyph-name="g.ss01" horiz-adv-x="618" 
d="M476 -69v142q-68 -83 -181 -83q-111 0 -173.5 71t-62.5 191q0 123 57.5 192t168.5 69q50 0 91.5 -18.5t102.5 -70.5l2 76h52v-568q0 -59 -33 -102.5t-82.5 -63t-106.5 -19.5q-98 0 -186 49l16 36q79 -43 160 -43q70 0 122 37.5t53 104.5zM476 126v250q-60 55 -97 73
t-81 18q-182 0 -182 -216q0 -98 50 -157t144 -59q107 0 166 91z" />
    <glyph glyph-name="gbreve.ss01" horiz-adv-x="618" 
d="M410 704l41 -2q-6 -54 -46 -90t-95.5 -36t-95.5 36t-46 90l41 2q5 -41 33.5 -66t66.5 -25t67 25t34 66zM476 -69v142q-68 -83 -181 -83q-111 0 -173.5 71t-62.5 191q0 123 57.5 192t168.5 69q50 0 91.5 -18.5t102.5 -70.5l2 76h52v-568q0 -59 -33 -102.5t-82.5 -63
t-106.5 -19.5q-98 0 -186 49l16 36q79 -43 160 -43q70 0 122 37.5t53 104.5zM476 126v250q-60 55 -97 73t-81 18q-182 0 -182 -216q0 -98 50 -157t144 -59q107 0 166 91z" />
    <glyph glyph-name="gcaron.ss01" horiz-adv-x="618" 
d="M461 702l-152 -153l-152 153l31 31l121 -124l121 124zM476 -69v142q-68 -83 -181 -83q-111 0 -173.5 71t-62.5 191q0 123 57.5 192t168.5 69q50 0 91.5 -18.5t102.5 -70.5l2 76h52v-568q0 -59 -33 -102.5t-82.5 -63t-106.5 -19.5q-98 0 -186 49l16 36q79 -43 160 -43
q70 0 122 37.5t53 104.5zM476 126v250q-60 55 -97 73t-81 18q-182 0 -182 -216q0 -98 50 -157t144 -59q107 0 166 91z" />
    <glyph glyph-name="gcommaaccent.ss01" horiz-adv-x="618" 
d="M315 731h-4q-13 0 -17 -5.5t-4 -21.5v-5q3 1 9 1q15 0 24 -9t9 -21.5t-9 -21.5t-24 -9q-19 0 -28 14q-11 14 -11 46q0 26 11 40t38 14h10zM476 -69v142q-68 -83 -181 -83q-111 0 -173.5 71t-62.5 191q0 123 57.5 192t168.5 69q50 0 91.5 -18.5t102.5 -70.5l2 76h52v-568
q0 -59 -33 -102.5t-82.5 -63t-106.5 -19.5q-98 0 -186 49l16 36q79 -43 160 -43q70 0 122 37.5t53 104.5zM476 126v250q-60 55 -97 73t-81 18q-182 0 -182 -216q0 -98 50 -157t144 -59q107 0 166 91z" />
    <glyph glyph-name="gdotaccent.ss01" horiz-adv-x="618" 
d="M309 665q15 0 24 -9t9 -21.5t-9 -21.5t-24 -9t-24 9t-9 21.5t9 21.5t24 9zM476 -69v142q-68 -83 -181 -83q-111 0 -173.5 71t-62.5 191q0 123 57.5 192t168.5 69q50 0 91.5 -18.5t102.5 -70.5l2 76h52v-568q0 -59 -33 -102.5t-82.5 -63t-106.5 -19.5q-98 0 -186 49l16 36
q79 -43 160 -43q70 0 122 37.5t53 104.5zM476 126v250q-60 55 -97 73t-81 18q-182 0 -182 -216q0 -98 50 -157t144 -59q107 0 166 91z" />
    <glyph glyph-name="oe.ss01" horiz-adv-x="1065" 
d="M950 72l25 -31q-80 -53 -191 -53q-88 0 -148 43t-83 118q-22 -76 -82 -119t-150 -43q-123 0 -192.5 73.5t-69.5 189.5t69.5 189.5t192.5 73.5q88 0 148.5 -42.5t83.5 -117.5q22 74 79.5 117.5t145.5 43.5q137 0 196 -72q40 -42 40 -103q0 -11 -1 -22q-15 -123 -245 -123
q-75 0 -184 15q10 -81 63 -128t137 -48q91 -2 166 39zM777 471q-92 0 -142.5 -55.5t-51.5 -146.5q-1 -12 0 -24q92 -17 175 -17q193 0 201 98q6 72 -45 108.5t-137 36.5zM320.5 467q-94.5 0 -149.5 -59.5t-55 -157.5t55 -157.5t150 -59.5q96 0 150 58.5t54 158.5t-55 158.5
t-149.5 58.5z" />
    <glyph glyph-name="T_h" horiz-adv-x="1291" 
d="M817 700v-276q55 48 96 69t93 21q53 0 99 -20t78 -63.5t32 -102.5v-328h-57v318q0 70 -49.5 109.5t-116.5 39.5q-47 0 -84 -20t-91 -71v-376h-57v650h-397v-650h-60v650h-260v50h774z" />
    <glyph glyph-name="c_h" horiz-adv-x="1143" 
d="M669 738v-314q55 48 95.5 69t93.5 21q52 0 98.5 -20t78.5 -63.5t32 -102.5v-328h-58v318q0 70 -49.5 109.5t-116.5 39.5q-46 0 -83 -20t-91 -71v-376h-58v738h58zM436 63l31 -37q-27 -19 -67 -29t-79 -10q-120 0 -191 74t-71 189q0 114 70 188.5t192 74.5q91 0 142 -37
l-32 -36q-35 27 -107 27q-95 0 -151.5 -60.5t-56.5 -156.5q0 -98 57 -157.5t151 -59.5q69 0 112 30z" />
    <glyph glyph-name="c_t" horiz-adv-x="914" 
d="M700 489h151v-44h-151v-238q0 -74 39 -117q40 -44 115 -52v-44q-99 6 -154 59q-58 56 -58 154v238h-211q-39 22 -104 22q-95 0 -153 -60.5t-58 -156.5q0 -98 57 -157.5t151 -59.5q69 0 112 30l31 -37q-27 -19 -67 -29t-79 -10q-120 0 -191 74t-71 189q0 114 70 188.5
t192 74.5q74 0 123 -24h198v157h58v-157z" />
    <glyph glyph-name="f_b" horiz-adv-x="1009" 
d="M533 748v-321q60 51 101.5 68.5t88.5 17.5q111 0 169 -69t58 -193q0 -121 -63 -192t-174 -71q-116 0 -184 86l-2 -74h-51v704h-86q-94 0 -150 -49q-57 -50 -57 -155h165v-44h-165v-456h-57v456h-92v44h92q0 129 78 192q70 59 183 56h146zM533 376v-251q59 -91 166 -91
q94 0 143.5 59t49.5 158q0 216 -181 216q-45 0 -82 -18t-96 -73z" />
    <glyph glyph-name="f_f_j" horiz-adv-x="1027" 
d="M781 748v-44q-95 0 -150 -49q-58 -50 -58 -155h366v-519q0 -113 -72 -172q-61 -59 -159 -65v44q82 9 129 61q45 48 45 132v475h-309v-456h-57v456h-333v-456h-57v456h-92v44h92q0 129 78 192q71 59 186 56v-44q-94 0 -150 -49q-57 -50 -57 -155h333q0 129 79 192
q71 59 186 56z" />
    <glyph glyph-name="f_h" horiz-adv-x="1016" 
d="M542 748v-324q55 48 95.5 69t93.5 21q52 0 98.5 -20t78.5 -63.5t32 -102.5v-328h-58v318q0 70 -49.5 109.5t-116.5 39.5q-46 0 -83 -20t-91 -71v-376h-58v704h-94q-94 0 -150 -49q-57 -50 -57 -155h165v-44h-165v-456h-57v456h-92v44h92q0 129 78 192q70 59 183 56h155z
" />
    <glyph glyph-name="f_j" horiz-adv-x="636" 
d="M390 748v-44q-94 0 -150 -49q-57 -50 -57 -155h366v-519q0 -113 -72 -172q-62 -59 -159 -65v44q82 9 128 61q45 48 45 132v475h-308v-456h-57v456h-92v44h92q0 129 78 192q71 59 186 56z" />
    <glyph glyph-name="f_k" horiz-adv-x="935" 
d="M542 238l263 262h67l-195 -198l222 -302h-68l-190 261l-99 -97v-164h-58v704h-94q-94 0 -150 -49q-57 -50 -57 -155h165v-44h-165v-456h-57v456h-92v44h92q0 129 78 192q70 59 183 56h155v-510z" />
    <glyph glyph-name="s_p" horiz-adv-x="1129" 
d="M39 59l20 37q28 -27 81 -44t108 -17q66 0 109 24.5t43 73.5q0 22 -8 38.5t-18.5 26t-33 17t-37.5 11t-46 8.5q-13 3 -19 4q-35 6 -57 11.5t-47.5 15.5t-39.5 23t-23.5 34t-9.5 49q0 46 30.5 78.5t76 47t100.5 14.5q47 0 91 -11h288l3 -74q67 86 183 86q113 0 175 -70.5
t62 -192.5q0 -124 -57.5 -193t-169.5 -69q-47 0 -88.5 17.5t-101.5 68.5v-311h-57v694h-241q-44 11 -88 11q-63 0 -106.5 -25t-43.5 -70q0 -19 7 -33t16.5 -23t27 -16t32.5 -10.5t39 -8.5q7 -1 22 -4q30 -5 44.5 -8t39.5 -9.5t37.5 -12.5t29.5 -17t25 -24t14 -32t6 -42
q0 -46 -31 -79t-77 -47.5t-99 -14.5q-62 0 -120 18.5t-91 49.5zM653 375v-251q59 -55 96 -73t82 -18q182 0 182 216q0 99 -50 158t-144 59q-107 0 -166 -91z" />
    <glyph glyph-name="s_t" horiz-adv-x="899" 
d="M684 477h152v-45h-152v-225q0 -73 39 -117q40 -44 116 -52v-44q-100 6 -155 59q-57 56 -57 154v225h-214q-63 35 -146 35q-63 0 -106.5 -25t-43.5 -70q0 -19 7 -33t16.5 -23t27 -16t32.5 -10.5t39 -8.5q7 -1 22 -4q30 -5 44.5 -8t39.5 -9.5t37.5 -12.5t29.5 -17t25 -24
t14 -32t6 -42q0 -46 -31 -79t-77 -47.5t-99 -14.5q-62 0 -120 18.5t-91 49.5l20 37q28 -27 81 -44t108 -17q66 0 109 24.5t43 73.5q0 22 -8 38.5t-18.5 26t-33 17t-37.5 11t-46 8.5q-13 3 -19 4q-35 6 -57 11.5t-47.5 15.5t-39.5 23t-23.5 34t-9.5 49q0 46 30.5 78.5t76 47
t100.5 14.5q87 0 151 -34h208v169h57v-169z" />
    <glyph glyph-name="eight.lf" horiz-adv-x="685" 
d="M343 687q47 0 84 -4.5t71.5 -16.5t57.5 -31.5t36.5 -50.5t13.5 -73q0 -69 -34.5 -106.5t-98.5 -51.5q74 -16 113 -57t39 -118q0 -46 -14.5 -79.5t-39 -54.5t-61 -34t-76.5 -18t-91 -5q-64 0 -112.5 8.5t-88.5 29.5t-61 59t-21 94q0 76 39.5 117.5t114.5 57.5
q-66 14 -100.5 52t-34.5 106q0 51 19.5 86.5t57 54.5t82.5 27t105 8zM343 639q-100 0 -150.5 -29t-50.5 -104t50.5 -103.5t150.5 -28.5q99 0 149 28t50 104t-50 104.5t-149 28.5zM343 326q-109 0 -164.5 -32t-55.5 -114t55.5 -113.5t164.5 -31.5q53 0 90.5 6.5t67.5 22
t45 44.5t15 72t-15 72.5t-45 45t-67.5 22t-90.5 6.5z" />
    <glyph glyph-name="eight.osf" horiz-adv-x="685" 
d="M343 687q47 0 84 -4.5t71.5 -16.5t57.5 -31.5t36.5 -50.5t13.5 -73q0 -69 -34.5 -106.5t-98.5 -51.5q74 -16 113 -57t39 -118q0 -46 -14.5 -79.5t-39 -54.5t-61 -34t-76.5 -18t-91 -5q-64 0 -112.5 8.5t-88.5 29.5t-61 59t-21 94q0 76 39.5 117.5t114.5 57.5
q-66 14 -100.5 52t-34.5 106q0 51 19.5 86.5t57 54.5t82.5 27t105 8zM343 639q-100 0 -150.5 -29t-50.5 -104t50.5 -103.5t150.5 -28.5q99 0 149 28t50 104t-50 104.5t-149 28.5zM343 326q-109 0 -164.5 -32t-55.5 -114t55.5 -113.5t164.5 -31.5q53 0 90.5 6.5t67.5 22
t45 44.5t15 72t-15 72.5t-45 45t-67.5 22t-90.5 6.5z" />
    <glyph glyph-name="eight.tf" horiz-adv-x="620" 
d="M310 687q48 0 85 -4.5t71.5 -16.5t57 -31.5t36 -50.5t13.5 -73q0 -69 -34 -106.5t-99 -51.5q74 -16 113 -57t39 -118q0 -46 -14.5 -79.5t-38.5 -54.5t-61 -34t-77 -18t-91 -5q-64 0 -112.5 8.5t-88.5 29.5t-60.5 59t-20.5 94q0 76 39.5 117.5t113.5 57.5q-65 14 -99.5 52
t-34.5 106q0 51 19.5 86.5t56.5 54.5t82.5 27t104.5 8zM310 639q-99 0 -149.5 -29t-50.5 -104t50.5 -103.5t149.5 -28.5q100 0 150 28t50 104t-50 104.5t-150 28.5zM310 326q-108 0 -163.5 -32t-55.5 -114t55.5 -113.5t163.5 -31.5q53 0 91 6.5t68 22t45 44.5t15 72
t-15 72.5t-45 45t-68 22t-91 6.5z" />
    <glyph glyph-name="eight.tosf" horiz-adv-x="620" 
d="M310 687q47 0 84.5 -4.5t72 -16.5t57 -31.5t36 -50.5t13.5 -73q0 -69 -34 -106.5t-99 -51.5q74 -16 113 -57t39 -118q0 -46 -14.5 -79.5t-38.5 -54.5t-61 -34t-77 -18t-91 -5q-64 0 -112.5 8.5t-88.5 29.5t-60.5 59t-20.5 94q0 76 39.5 117.5t113.5 57.5q-65 14 -99.5 52
t-34.5 106q0 51 19.5 86.5t56.5 54.5t82.5 27t104.5 8zM310 639q-99 0 -149.5 -29t-50.5 -104t50.5 -103.5t149.5 -28.5q100 0 150 28t50 104t-50 104.5t-150 28.5zM310 326q-109 0 -164 -32t-55 -114t55 -113.5t164 -31.5q53 0 91 6.5t68 22t45 44.5t15 72t-15 72.5t-45 45
t-68 22t-91 6.5z" />
    <glyph glyph-name="five.lf" horiz-adv-x="618" 
d="M533 632h-396v-210h174q60 0 105 -9.5t82 -32.5t56.5 -67t19.5 -108t-19.5 -108t-56.5 -67.5t-82 -33t-105 -9.5q-59 0 -103.5 9.5t-81 32t-56.5 63.5t-21 101h61q4 -89 54.5 -123.5t148.5 -34.5q100 0 151 36t51 132q0 98 -50.5 134.5t-151.5 36.5h-236v306h456v-48z
" />
    <glyph glyph-name="five.osf" horiz-adv-x="618" 
d="M533 452h-396v-210h174q60 0 105 -9.5t82 -33t56.5 -67.5t19.5 -108t-19.5 -107.5t-56.5 -67t-82 -33t-105 -9.5q-59 0 -103.5 9.5t-81 32t-56.5 63.5t-21 101h61q4 -90 54.5 -124t148.5 -34q49 0 83.5 7t62.5 25t42 52t14 84q0 98 -50.5 134.5t-151.5 36.5h-236v306h456
v-48z" />
    <glyph glyph-name="five.tf" horiz-adv-x="620" 
d="M531 632h-396v-210h174q60 0 105 -9.5t82.5 -32.5t57 -67t19.5 -108t-19.5 -108t-57 -67.5t-82.5 -33t-105 -9.5q-59 0 -103 9.5t-81 32t-56.5 63.5t-21.5 101h62q3 -89 54 -123.5t148 -34.5q101 0 151.5 36t50.5 132q0 98 -50.5 134.5t-151.5 36.5h-235v306h455v-48z
" />
    <glyph glyph-name="five.tosf" horiz-adv-x="620" 
d="M531 452h-396v-210h174q60 0 105 -9.5t82.5 -33t57 -67.5t19.5 -108t-19.5 -107.5t-57 -67t-82.5 -33t-105 -9.5q-59 0 -103 9.5t-81 32t-56.5 63.5t-21.5 101h62q3 -90 53.5 -124t148.5 -34q49 0 83.5 7t62.5 25t42 52t14 84q0 98 -50.5 134.5t-151.5 36.5h-235v306h455
v-48z" />
    <glyph glyph-name="four.lf" horiz-adv-x="642" 
d="M511 204h86v-48h-86v-156h-59v156h-409v52l409 473h59v-477zM107 204h345v400z" />
    <glyph glyph-name="four.osf" horiz-adv-x="642" 
d="M511 32h86v-48h-86v-156h-59v156h-409v51l409 474h59v-477zM107 32h345v400z" />
    <glyph glyph-name="four.tf" horiz-adv-x="620" 
d="M501 204h86v-48h-86v-156h-59v156h-410v52l410 473h59v-477zM97 204h345v400z" />
    <glyph glyph-name="four.tosf" horiz-adv-x="620" 
d="M501 32h86v-48h-86v-156h-59v156h-410v51l410 474h59v-477zM97 32h345v400z" />
    <glyph glyph-name="nine.lf" horiz-adv-x="652" 
d="M531 313v35q-24 -56 -80 -78.5t-142 -22.5q-58 0 -102 10t-80.5 34t-56 68.5t-19.5 107.5q0 65 20 109.5t58.5 67.5t84 33t107.5 10q67 0 116.5 -18.5t79 -48t46.5 -76t23 -95t6 -113t-5.5 -112t-22.5 -95t-46 -77t-79 -47.5t-118 -18q-204 0 -260 160l56 14
q23 -63 70.5 -94.5t133.5 -31.5q52 0 89.5 13t60.5 35.5t36.5 59t18 75.5t5.5 95zM320 639q-51 0 -87.5 -7.5t-65.5 -26.5t-43.5 -53.5t-14.5 -86t14.5 -86.5t43.5 -53.5t65.5 -26t87.5 -7.5q95 0 147.5 30t62.5 106q-9 104 -56 157.5t-154 53.5z" />
    <glyph glyph-name="nine.osf" horiz-adv-x="652" 
d="M531 132v35q-24 -55 -80 -77.5t-142 -22.5q-58 0 -102 10t-80.5 34t-56 68.5t-19.5 107.5q0 65 20 109.5t58.5 67.5t84 32.5t107.5 9.5q67 0 116.5 -18t79 -47.5t46.5 -76.5t23 -95t6 -113t-5.5 -112.5t-22.5 -94.5t-46 -76.5t-79 -48t-118 -18.5q-204 0 -260 160l56 14
q23 -63 70.5 -94.5t133.5 -31.5q52 0 89.5 13t60.5 35.5t36.5 59t18 76t5.5 94.5zM320 458q-51 0 -87.5 -7t-65.5 -26t-43.5 -53.5t-14.5 -86.5t14.5 -86.5t43.5 -53t65.5 -26t87.5 -7.5q95 0 147.5 30t62.5 106q-9 104 -56 157t-154 53z" />
    <glyph glyph-name="nine.tf" horiz-adv-x="620" 
d="M520 313v35q-24 -56 -80.5 -78.5t-141.5 -22.5q-58 0 -102 10t-81 34t-56 68.5t-19 107.5q0 65 19.5 109.5t58 67.5t84 33t107.5 10q68 0 117 -18.5t78.5 -48t46.5 -76t23 -95t6 -113t-5.5 -112t-22.5 -95t-46 -77t-78.5 -47.5t-118.5 -18q-204 0 -260 160l57 14
q22 -63 69.5 -94.5t133.5 -31.5q52 0 89.5 13t60.5 35.5t36.5 59t18.5 75.5t6 95zM308 639q-51 0 -87 -7.5t-65.5 -26.5t-44 -53.5t-14.5 -86t14.5 -86.5t44 -53.5t65.5 -26t87 -7.5q95 0 147.5 30t62.5 106q-9 104 -55.5 157.5t-154.5 53.5z" />
    <glyph glyph-name="nine.tosf" horiz-adv-x="620" 
d="M519 132v35q-24 -55 -80 -77.5t-142 -22.5q-58 0 -102 10t-80.5 34t-56 68.5t-19.5 107.5q0 65 20 109.5t58 67.5t84 32.5t107 9.5q68 0 117 -18t78.5 -47.5t47 -76.5t23 -95t5.5 -113t-5 -112.5t-22 -94.5t-46.5 -76.5t-79 -48t-118.5 -18.5q-203 0 -260 160l57 14
q22 -63 70 -94.5t133 -31.5q53 0 90.5 13t60 35.5t36 59t18.5 76t6 94.5zM308 458q-52 0 -88 -7t-65.5 -26t-44 -53.5t-14.5 -86.5t14.5 -86.5t44 -53t65.5 -26t88 -7.5q95 0 147.5 30t61.5 106q-9 104 -55.5 157t-153.5 53z" />
    <glyph glyph-name="one.lf" horiz-adv-x="327" 
d="M232 0h-59v627l-138 -31v50l153 34h44v-680z" />
    <glyph glyph-name="one.osf" horiz-adv-x="225" 
d="M175 0h-54v453l-99 -23v44l115 26h38v-500z" />
    <glyph glyph-name="one.tf" horiz-adv-x="539" 
d="M368 0h-59v627l-138 -31v50l153 34h44v-680z" />
    <glyph glyph-name="one.tosf" horiz-adv-x="500" 
d="M327 0h-54v453l-100 -23v44l116 26h38v-500z" />
    <glyph glyph-name="seven.lf" horiz-adv-x="594" 
d="M549 647l-373 -647h-65l367 633h-433v48h504v-34z" />
    <glyph glyph-name="seven.osf" horiz-adv-x="594" 
d="M549 466l-373 -647h-65l367 633h-433v48h504v-34z" />
    <glyph glyph-name="seven.tf" horiz-adv-x="620" 
d="M562 647l-373 -647h-65l367 633h-433v48h504v-34z" />
    <glyph glyph-name="seven.tosf" horiz-adv-x="620" 
d="M562 466l-373 -647h-65l367 633h-433v48h504v-34z" />
    <glyph glyph-name="six.lf" horiz-adv-x="652" 
d="M121 360v-34q23 56 79.5 78.5t144.5 22.5q57 0 100.5 -10.5t80 -34.5t56 -68t19.5 -108t-20 -108.5t-58.5 -68t-84 -33t-107.5 -9.5q-67 0 -116.5 18t-79 47.5t-46.5 76.5t-23 95.5t-6 113t5.5 112t22.5 94.5t46 76.5t79 48t118 18.5q204 0 260 -160l-56 -14
q-23 63 -70.5 94.5t-133.5 31.5q-52 0 -89.5 -13.5t-60.5 -35.5t-36.5 -59t-18.5 -76t-5 -95zM332 382q-95 0 -147.5 -30t-62.5 -107q9 -104 56 -157t154 -53q51 0 87.5 7.5t65.5 26t43.5 53.5t14.5 86.5t-14.5 86.5t-43.5 53.5t-65.5 26t-87.5 7.5z" />
    <glyph glyph-name="six.osf" horiz-adv-x="652" 
d="M121 360v-34q23 56 79.5 78.5t144.5 22.5q57 0 100.5 -10.5t80 -34.5t56 -68t19.5 -108t-20 -108.5t-58.5 -68t-84 -33t-107.5 -9.5q-67 0 -116.5 18t-79 47.5t-46.5 76.5t-23 95.5t-6 113t5.5 112t22.5 94.5t46 76.5t79 48t118 18.5q204 0 260 -160l-56 -14
q-23 63 -70.5 94.5t-133.5 31.5q-52 0 -89.5 -13.5t-60.5 -35.5t-36.5 -59t-18.5 -76t-5 -95zM332 382q-95 0 -147.5 -30t-62.5 -107q9 -104 56 -157t154 -53q51 0 87.5 7.5t65.5 26t43.5 53.5t14.5 86.5t-14.5 86.5t-43.5 53.5t-65.5 26t-87.5 7.5z" />
    <glyph glyph-name="six.tf" horiz-adv-x="620" 
d="M100 360v-34q24 56 80.5 78.5t144.5 22.5q57 0 100.5 -10.5t80 -34.5t55.5 -68t19 -108t-20 -108.5t-58 -68t-84 -33t-107 -9.5q-68 0 -117 18t-78.5 47.5t-47 76.5t-23 95.5t-5.5 113t5.5 112t22 94.5t46 76.5t79 48t118.5 18.5q204 0 260 -160l-57 -14
q-22 63 -69.5 94.5t-133.5 31.5q-52 0 -90 -13.5t-60.5 -35.5t-36 -59t-18.5 -76t-6 -95zM312 382q-95 0 -147.5 -30t-62.5 -107q9 -104 55.5 -157t154.5 -53q51 0 87 7.5t65.5 26t44 53.5t14.5 86.5t-14.5 86.5t-44 53.5t-65.5 26t-87 7.5z" />
    <glyph glyph-name="six.tosf" horiz-adv-x="620" 
d="M101 360v-34q23 56 79.5 78.5t144.5 22.5q57 0 100.5 -10.5t80 -34.5t55.5 -68t19 -108t-19.5 -108.5t-58 -68t-84 -33t-107.5 -9.5q-67 0 -116.5 18t-79 47.5t-46.5 76.5t-23 95.5t-6 113t5.5 112t22.5 94.5t46 76.5t78.5 48t118.5 18.5q204 0 260 -160l-57 -14
q-22 63 -69.5 94.5t-133.5 31.5q-52 0 -89.5 -13.5t-60.5 -35.5t-36.5 -59t-18.5 -76t-5 -95zM312 382q-95 0 -147.5 -30t-62.5 -107q9 -104 56 -157t154 -53q51 0 87.5 7.5t65.5 26t43.5 53.5t14.5 86.5t-14.5 86.5t-43.5 53.5t-65.5 26t-87.5 7.5z" />
    <glyph glyph-name="three.lf" horiz-adv-x="630" 
d="M119 510h-57q1 51 20 86.5t54 54.5t77 27.5t99 8.5t99.5 -8t78 -26.5t54.5 -54t19 -87.5q0 -70 -33.5 -108t-96.5 -52q72 -15 110 -56.5t38 -118.5q0 -45 -14 -78.5t-37 -54.5t-58 -33.5t-73.5 -17.5t-86.5 -5q-61 0 -106.5 8.5t-83 29.5t-57.5 59t-21 93h56
q2 -81 55 -111.5t156 -30.5q105 0 158 31.5t53 115t-53 114.5t-158 31h-105v46h106q95 0 143 28.5t48 104.5t-48 104.5t-143 28.5t-143 -28t-50 -101z" />
    <glyph glyph-name="three.osf" horiz-adv-x="630" 
d="M119 330h-57q1 51 20 86t54 54.5t77 27.5t99 8t99.5 -8t78 -26.5t54.5 -54t19 -87.5q0 -69 -33.5 -107t-96.5 -53q72 -15 110 -56t38 -119q0 -45 -14 -78.5t-37 -54.5t-58 -33.5t-73.5 -17.5t-86.5 -5q-61 0 -106.5 8.5t-83 29.5t-57.5 59t-21 93h56q2 -81 55 -111.5
t156 -30.5q105 0 158 31.5t53 114.5q0 44 -14.5 73t-43.5 45t-65.5 22.5t-87.5 6.5h-105v46h106q95 0 143 28.5t48 104t-48 104t-143 28.5t-143 -28t-50 -100z" />
    <glyph glyph-name="three.tf" horiz-adv-x="620" 
d="M116 510h-57q2 51 20.5 86.5t53.5 54.5t77.5 27.5t98.5 8.5q57 0 99.5 -8t78.5 -26.5t54.5 -54t18.5 -87.5q0 -70 -33.5 -108t-96.5 -52q72 -15 110 -56.5t38 -118.5q0 -45 -13.5 -78.5t-37 -54.5t-58.5 -33.5t-73 -17.5t-87 -5q-61 0 -106.5 8.5t-83 29.5t-57.5 59
t-21 93h57q1 -81 54 -111.5t157 -30.5t157 31.5t53 115t-53 114.5t-157 31h-105v46h105q96 0 144 28.5t48 104.5t-48 104.5t-144 28.5q-94 0 -142.5 -28t-50.5 -101z" />
    <glyph glyph-name="three.tosf" horiz-adv-x="620" 
d="M116 330h-57q2 51 20.5 86t53.5 54.5t77.5 27.5t98.5 8q57 0 99.5 -8t78.5 -26.5t54.5 -54t18.5 -87.5q0 -69 -33.5 -107t-96.5 -53q72 -15 110 -56t38 -119q0 -45 -13.5 -78.5t-37 -54.5t-58.5 -33.5t-73 -17.5t-87 -5q-61 0 -106.5 8.5t-83 29.5t-57.5 59t-21 93h57
q1 -81 54 -111.5t157 -30.5t157 31.5t53 114.5q0 44 -14.5 73t-43.5 45t-65 22.5t-87 6.5h-105v46h105q96 0 144 28.5t48 104t-48 104t-144 28.5q-94 0 -142.5 -28t-50.5 -100z" />
    <glyph glyph-name="two.lf" horiz-adv-x="622" 
d="M108 506h-55q0 53 18 89.5t54.5 56t81.5 27.5t107 8q61 0 105.5 -7.5t81 -27t54.5 -56t18 -90.5t-15 -90.5t-47.5 -57t-73.5 -29.5t-103 -13q-115 -7 -169.5 -42.5t-54.5 -120.5v-103h460v-50h-517v153q0 55 19 94.5t57 63.5t86.5 36t114.5 15q100 6 143.5 35.5
t43.5 107.5q0 77 -51 106t-152.5 29t-153 -29t-52.5 -105z" />
    <glyph glyph-name="two.osf" horiz-adv-x="451" 
d="M82 367h-51q-1 78 49.5 109t145.5 31q45 0 78 -6t60.5 -20.5t41.5 -42t14 -67.5q0 -77 -43.5 -106.5t-135.5 -34.5q-82 -5 -120 -30t-38 -85v-72h334v-43h-386v115q0 79 53.5 114.5t152.5 41.5q71 4 101.5 24t30.5 75t-35.5 75t-108.5 20t-108.5 -21t-34.5 -77z" />
    <glyph glyph-name="two.tf" horiz-adv-x="620" 
d="M108 506h-56q0 53 18.5 89.5t54.5 56t81 27.5t107 8t106 -7.5t80.5 -27t55 -56t18.5 -90.5t-15 -90.5t-48 -57t-73.5 -29.5t-102.5 -13q-116 -7 -170.5 -42.5t-54.5 -120.5v-103h461v-50h-518v153q0 55 19.5 94.5t57 63.5t86 36t114.5 15q100 6 143.5 35.5t43.5 107.5
q0 77 -51 106t-152.5 29t-153 -29t-51.5 -105z" />
    <glyph glyph-name="two.tosf" horiz-adv-x="500" 
d="M108 367h-51q-1 78 49.5 109t145.5 31q45 0 78 -6t60.5 -20.5t41.5 -42t14 -67.5q0 -77 -43 -106.5t-136 -34.5q-82 -5 -120 -30t-38 -85v-72h335v-43h-386v115q0 79 53 114.5t153 41.5q71 4 101 24t30 75t-35.5 75t-107.5 20q-74 0 -109.5 -21t-34.5 -77z" />
    <glyph glyph-name="zero.lf" horiz-adv-x="692" 
d="M345.5 687q68.5 0 119.5 -18t82.5 -48t50.5 -76t26.5 -95.5t7.5 -112.5t-7.5 -113t-27 -95.5t-51 -76t-82.5 -48t-118.5 -17.5t-118 17.5t-82 48t-51 76t-27 95.5t-7.5 113t7 112.5t26.5 95.5t50.5 76t82 48t119.5 18zM346 639q-67 0 -112.5 -20.5t-70 -62t-34 -93.5
t-9.5 -125.5t10 -126.5t35 -94t70 -61.5t111 -20.5t111 20.5t70 61.5t35 94t10 126.5t-9.5 125.5t-34 93.5t-70 62t-112.5 20.5z" />
    <glyph glyph-name="zero.osf" horiz-adv-x="513" 
d="M256.5 508q50.5 0 88.5 -13.5t61.5 -36t38 -56t19.5 -70t5 -82.5q0 -58 -9.5 -102t-32 -80.5t-65.5 -56t-105.5 -19.5t-105.5 19.5t-65.5 56t-32 80.5t-9.5 102q0 46 5 82.5t19.5 70t38 56t61.5 36t88.5 13.5zM256.5 466q-91.5 0 -125.5 -53.5t-34 -162t34.5 -162.5
t125 -54t125 54t34.5 162.5t-34 162t-125.5 53.5z" />
    <glyph glyph-name="zero.tf" horiz-adv-x="620" 
d="M309.5 687q68.5 0 120 -18t82.5 -48t50.5 -76t26.5 -95.5t7 -112.5t-7.5 -113t-27 -95.5t-51 -76t-82.5 -48t-118 -17.5t-118 17.5t-82.5 48t-51 76t-27 95.5t-7.5 113t7 112.5t26.5 95.5t50.5 76t82 48t119.5 18zM310 639q-67 0 -112.5 -20.5t-70 -62t-34 -93.5
t-9.5 -125.5t10 -126.5t35 -94t70 -61.5t111 -20.5t111 20.5t70 61.5t35 94t10 126.5t-9.5 125.5t-34 93.5t-70 62t-112.5 20.5z" />
    <glyph glyph-name="zero.tosf" horiz-adv-x="500" 
d="M252 508q51 0 89 -13.5t61 -36t37.5 -56t20 -70t5.5 -82.5q0 -58 -9.5 -102t-32.5 -80.5t-66 -56t-105 -19.5t-105 19.5t-66 56t-32.5 80.5t-9.5 102q0 46 5.5 82.5t19.5 70t37.5 56t61.5 36t89 13.5zM251.5 466q-91.5 0 -125.5 -53.5t-34 -162t35 -162.5t125 -54
t124.5 54t34.5 162.5t-34 162t-125.5 53.5z" />
    <glyph glyph-name="eight.dnom" horiz-adv-x="379" 
d="M190 356q139 0 139 -94q0 -59 -56 -79q65 -20 65 -88q0 -56 -39.5 -78.5t-108.5 -22.5q-149 0 -149 101q0 67 66 88q-57 20 -57 79q0 94 140 94zM189.5 320q-48.5 0 -71 -13t-22.5 -47.5t22.5 -47.5t71 -13t71 12.5t22.5 48t-22.5 48t-71 12.5zM190 164q-53 0 -78 -14.5
t-25 -53t25 -53t78 -14.5t77.5 14.5t24.5 53t-24.5 53t-77.5 14.5z" />
    <glyph glyph-name="eight.numr" horiz-adv-x="379" 
d="M190 706q139 0 139 -94q0 -59 -56 -79q65 -20 65 -87q0 -57 -39.5 -79.5t-108.5 -22.5q-149 0 -149 102q0 67 66 87q-57 20 -57 79q0 94 140 94zM189.5 671q-48.5 0 -71 -13t-22.5 -48t22.5 -48t71 -13t71 13t22.5 48t-22.5 48t-71 13zM190 514q-53 0 -78 -14.5
t-25 -52.5t25 -52.5t78 -14.5t77.5 14t24.5 53t-24.5 53t-77.5 14z" />
    <glyph glyph-name="five.dnom" horiz-adv-x="325" 
d="M275 318h-198v-97h79q66 0 102.5 -24t36.5 -88t-37 -89.5t-102 -25.5q-139 0 -138 115h45q1 -46 23.5 -62.5t70.5 -16.5t71 16.5t23 61.5q0 47 -23 63.5t-71 16.5h-125v165h243v-35z" />
    <glyph glyph-name="five.numr" horiz-adv-x="325" 
d="M275 666h-198v-98h79q66 0 102.5 -24t36.5 -88t-37 -89.5t-102 -25.5q-139 0 -138 115h45q1 -45 23.5 -62t70.5 -17t71 16.5t23 62.5t-23 62.5t-71 16.5h-125v165h243v-34z" />
    <glyph glyph-name="four.dnom" horiz-adv-x="326" 
d="M259 114h43v-36h-43v-78h-41v78h-208v34l208 240h41v-238zM60 114h158v185z" />
    <glyph glyph-name="four.numr" horiz-adv-x="326" 
d="M259 462h43v-36h-43v-78h-41v78h-208v33l208 241h41v-238zM60 462h158v184z" />
    <glyph glyph-name="nine.dnom" horiz-adv-x="358" 
d="M264 160v5q-25 -38 -104 -38q-135 0 -135 113q0 65 38 90.5t104 25.5q44 0 73.5 -14t44 -40.5t20 -56t5.5 -71t-5.5 -70.5t-19.5 -56t-43.5 -40.5t-74.5 -13.5q-109 0 -138 84l43 10q20 -60 95 -60q58 0 77 31.5t20 100.5zM166 320q-50 0 -74 -17t-24 -64t24 -64t74 -17
q46 0 69.5 13.5t28.5 49.5q-5 50 -26.5 74.5t-71.5 24.5z" />
    <glyph glyph-name="nine.numr" horiz-adv-x="358" 
d="M264 510v5q-25 -38 -104 -38q-135 0 -135 113q0 65 38 90.5t104 25.5q44 0 73.5 -13.5t44 -40.5t20 -56.5t5.5 -70.5t-5.5 -70.5t-19.5 -56t-43.5 -40.5t-74.5 -14q-109 0 -138 84l43 10q20 -60 95 -60q58 0 77 32t20 100zM166 670q-50 0 -74 -17t-24 -64t24 -63.5
t74 -16.5q46 0 69.5 13t28.5 49q-5 50 -26.5 74.5t-71.5 24.5z" />
    <glyph glyph-name="one.dnom" horiz-adv-x="179" 
d="M122 0h-44v311l-69 -15v37l83 19h30v-352z" />
    <glyph glyph-name="one.numr" horiz-adv-x="179" 
d="M122 348h-44v312l-69 -16v37l83 19h30v-352z" />
    <glyph glyph-name="seven.dnom" horiz-adv-x="286" 
d="M277 328l-189 -328h-49l183 317h-212v35h267v-24z" />
    <glyph glyph-name="seven.numr" horiz-adv-x="286" 
d="M277 676l-189 -328h-49l183 316h-212v36h267v-24z" />
    <glyph glyph-name="six.dnom" horiz-adv-x="358" 
d="M94 190v-5q25 38 104 38q135 0 135 -114q0 -64 -38 -89.5t-104 -25.5q-44 0 -73.5 13.5t-44 40.5t-20 56.5t-5.5 70.5t5.5 70.5t19.5 56t44 40.5t74 14q109 0 138 -84l-43 -11q-20 61 -95 61q-57 0 -76.5 -32t-20.5 -100zM192 191q-46 0 -69.5 -13t-28.5 -49
q5 -50 26.5 -74.5t71.5 -24.5t74 17t24 64t-24 63.5t-74 16.5z" />
    <glyph glyph-name="six.numr" horiz-adv-x="358" 
d="M94 540v-5q25 38 104 38q135 0 135 -113q0 -65 -38 -90.5t-104 -25.5q-44 0 -73.5 14t-44 40.5t-20 56t-5.5 71t5.5 70.5t19.5 56t44 40.5t74 13.5q109 0 138 -84l-43 -10q-20 60 -95 60q-57 0 -76.5 -31.5t-20.5 -100.5zM192 542q-46 0 -69.5 -13.5t-28.5 -49.5
q5 -50 26.5 -74.5t71.5 -24.5t74 17t24 64t-24 64t-74 17z" />
    <glyph glyph-name="three.dnom" horiz-adv-x="342" 
d="M70 260h-44q0 96 133 96t133 -94q0 -60 -54 -80q63 -20 63 -88q0 -56 -38.5 -78t-103.5 -22q-141 0 -142 103h43q0 -39 24 -53t74.5 -14t74 14t23.5 53t-23.5 53.5t-74.5 14.5h-50v33h51q45 0 66.5 13t21.5 48.5t-21 48t-67 12.5t-67.5 -12.5t-21.5 -47.5z" />
    <glyph glyph-name="three.numr" horiz-adv-x="342" 
d="M70 610h-44q0 96 133 96t133 -94q0 -60 -54 -80q63 -20 63 -87q0 -56 -38.5 -78.5t-103.5 -22.5q-141 0 -142 103h43q0 -39 24 -53t74.5 -14t74 14t23.5 53.5t-23.5 53.5t-74.5 14h-50v33h51q45 0 66.5 13t21.5 48.5t-21 48t-67 12.5t-67.5 -12.5t-21.5 -47.5z" />
    <glyph glyph-name="two.dnom" horiz-adv-x="327" 
d="M62 253h-43q-2 57 34.5 80t103.5 23q66 0 102 -21.5t36 -76t-31 -75.5t-96 -25q-54 -3 -79.5 -19t-25.5 -54v-48h230v-37h-274v82q0 56 38.5 81.5t107.5 29.5q48 3 67 16t19 49t-22.5 49t-71.5 13q-51 0 -73 -14t-22 -53z" />
    <glyph glyph-name="two.numr" horiz-adv-x="327" 
d="M62 603h-43q-2 57 34.5 80t103.5 23q66 0 102 -21t36 -75.5t-31 -76t-96 -24.5q-54 -4 -79.5 -19.5t-25.5 -53.5v-49h230v-37h-274v83q0 56 38.5 81.5t107.5 29.5q48 2 67 15t19 50q0 36 -22.5 48.5t-71.5 12.5q-51 0 -73 -13.5t-22 -53.5z" />
    <glyph glyph-name="zero.dnom" horiz-adv-x="383" 
d="M191.5 356q44.5 0 75 -14t46.5 -40t22.5 -56.5t6.5 -70.5t-7 -71t-23 -56.5t-46.5 -39.5t-74.5 -14t-74 14t-46.5 39.5t-23 56.5t-6.5 71t6.5 70.5t22.5 56.5t46.5 40t75 14zM191.5 320q-60.5 0 -83 -35.5t-22.5 -109.5t22.5 -109.5t82.5 -35.5t83 35.5t23 109.5
t-22.5 109.5t-83 35.5z" />
    <glyph glyph-name="zero.numr" horiz-adv-x="383" 
d="M191.5 706q44.5 0 75 -14t46.5 -40t22.5 -56t6.5 -70.5t-7 -71t-23 -56.5t-46.5 -40t-74.5 -14t-74 14t-46.5 40t-23 56.5t-6.5 71t6.5 70.5t22.5 56t46.5 40t75 14zM191.5 670q-60.5 0 -83 -35.5t-22.5 -109t22.5 -109.5t82.5 -36t83 36t23 109.5t-22.5 109t-83 35.5z
" />
    </font>
</defs>
</svg>
